<svg width="696.000000" height="698.000000" viewBox="0 0 696 698" fill="none" xmlns="http://www.w3.org/2000/svg" xmlns:xlink="http://www.w3.org/1999/xlink">
	<desc>
			Created with Pixso.
	</desc>
	<defs>
		<clipPath id="clip1_404">
			<rect rx="0.000000" width="695.000000" height="697.000000" transform="translate(0.500000 0.500000)" fill="white" fill-opacity="0"/>
		</clipPath>
	</defs>
	<g clip-path="url(#clip1_404)">
		<path d="M246.6 595.25L103.39 595.28L103.4 450.83L103.4 450.62L103.25 450.47L1.19 348.99L103.25 247.52L103.4 247.37L103.4 247.16L103.4 102.62L246.6 102.61L246.8 102.61L246.95 102.46L348 0.7L449.04 102.47L449.19 102.62L449.4 102.62L592.2 102.62L592.3 247.16L592.3 247.37L592.45 247.52L694.8 348.99L592.45 450.48L592.3 450.62L592.3 450.83L592.27 595.25L449.19 595.25L449.04 595.39L348 697.29L246.95 595.39L246.8 595.25L246.6 595.25Z" fill="#FFFCF7" fill-opacity="1.000000" fill-rule="nonzero"/>
		<path d="M103.39 595.28L103.4 450.83L103.4 450.62L103.25 450.47L1.19 348.99L103.25 247.52L103.4 247.37L103.4 247.16L103.4 102.62L246.6 102.61L246.8 102.61L246.95 102.46L348 0.7L449.04 102.47L449.19 102.62L449.4 102.62L592.2 102.62L592.3 247.16L592.3 247.37L592.45 247.52L694.8 348.99L592.45 450.48L592.3 450.62L592.3 450.83L592.27 595.25L449.19 595.25L449.04 595.39L348 697.29L246.95 595.39L246.8 595.25L246.6 595.25L103.39 595.28Z" stroke="#000000" stroke-opacity="1.000000" stroke-width="1.024320"/>
		<path d="M113.27 667.12C112.15 667.12 111.02 667.12 109.9 667.12C109.02 667.11 108.16 667.03 107.31 666.8C107.07 666.74 106.84 666.64 106.61 666.55C106.25 666.4 105.99 666.16 105.74 665.86C104.43 664.25 103.07 662.68 101.45 661.35C100.56 660.63 99.6 659.99 98.58 659.45C97.93 659.09 97.25 658.76 96.61 658.38C95.88 657.95 95.17 657.48 94.45 657.02C94.27 656.9 94.12 656.72 93.87 656.71C93.8 656.71 93.73 656.65 93.68 656.6C93.22 656.17 92.77 655.74 92.32 655.31C91.15 653.56 90.98 652.16 91.97 650.31C92.09 650.07 92.27 649.85 92.43 649.62C92.91 648.95 93.29 648.22 93.6 647.45C93.67 647.27 93.79 647.1 93.88 646.92C94.4 646.01 94.92 645.09 95.43 644.17C95.56 643.93 95.67 643.68 95.77 643.42C96.84 640.62 96.36 638.07 94.51 635.74C94.34 635.53 94.14 635.33 93.99 635.11C93.75 634.75 93.41 634.56 93.01 634.46C92.39 634.3 91.74 634.2 91.09 634.18C90.82 634.16 90.54 634.16 90.27 634.16C88.9 634.15 87.52 634.16 86.15 634.14C85.78 634.14 85.4 634.09 85.03 634.06C84.38 634.01 83.74 633.95 83.09 633.89C82.84 633.87 82.57 633.89 82.35 633.79C81.99 633.64 81.78 633.82 81.58 634.04C81.42 634.21 81.3 634.4 81.15 634.56C80.6 635.15 79.94 635.62 79.21 635.95C78.18 636.41 77.12 636.79 76 636.93C75.21 637.02 74.45 636.9 73.77 636.46C73.45 636.26 73.12 636.1 72.73 636.09C72.64 636.08 72.54 636.05 72.44 636.03C72.07 635.94 71.81 635.73 71.71 635.35C71.69 635.26 71.66 635.16 71.63 635.07C71.56 634.89 71.42 634.77 71.23 634.78C70.91 634.78 70.58 634.8 70.26 634.82C70.04 634.83 69.81 634.88 69.59 634.87C69.17 634.86 68.97 634.58 69.06 634.16C69.09 634.07 69.14 633.97 69.16 633.88C69.21 633.69 69.16 633.61 68.97 633.54C68.81 633.48 68.64 633.44 68.48 633.37C68.25 633.27 68.21 632.98 68.4 632.81C68.49 632.73 68.6 632.66 68.7 632.59C69.4 632.06 70.11 631.55 70.8 631.02C71.24 630.68 71.66 630.33 72.16 630.08C72.27 630.02 72.28 629.93 72.17 629.86C71.48 629.36 70.87 628.77 70.27 628.17C69.77 627.67 69.34 627.11 69 626.5C68.05 624.87 67.44 623.07 67.18 621.2C66.94 619.44 67.05 617.7 67.58 616C68.07 614.42 68.55 612.84 69.06 611.27C69.5 609.9 70.17 608.64 70.92 607.43C71.29 606.83 71.64 606.22 71.96 605.6C73.41 602.78 75.2 600.19 77.26 597.79C80.66 593.84 84.63 590.59 89.01 587.82C94.11 584.61 99.56 582.17 105.27 580.28C108.9 579.08 112.6 578.11 116.34 577.38C117.13 577.23 117.91 577.09 118.69 576.94C118.84 576.91 118.99 576.88 119.13 576.84C119.88 576.65 120.63 576.47 121.38 576.29C122.43 576.03 123.38 575.51 124.3 574.96C125.34 574.35 126.37 573.75 127.46 573.24C128.86 572.59 130.32 572.22 131.88 572.28C132.58 572.31 133.27 572.27 133.97 572.29C134.49 572.3 134.95 572.18 135.37 571.86C136.1 571.32 136.89 570.89 137.69 570.49C138.3 570.19 138.87 569.82 139.4 569.4C139.66 569.19 139.75 568.96 139.7 568.62C139.53 567.45 139.57 566.27 139.59 565.09C139.6 564.4 139.82 563.76 140.2 563.18C140.39 562.89 140.6 562.61 140.79 562.31C140.92 562.12 140.91 562.03 140.72 561.87C140.53 561.71 140.33 561.57 140.11 561.44C139.52 561.1 138.91 560.84 138.24 560.7C138.04 560.67 137.85 560.62 137.66 560.56C136.98 560.34 136.37 560.02 135.95 559.41C135.59 558.9 135.22 558.39 134.89 557.86C134.29 556.91 133.71 555.95 133.14 554.97C132.08 553.17 130.66 551.62 128.95 550.42C127.66 549.51 126.59 548.32 125.8 546.95C125.39 546.26 124.99 545.56 124.46 544.96C124.4 544.88 124.36 544.78 124.35 544.68C124.33 544.26 124.68 543.71 125.08 543.56C125.55 543.38 126.03 543.24 126.54 543.24C126.91 543.24 127.29 543.24 127.66 543.22C128.74 543.17 129.74 543.44 130.7 543.91C131.64 544.37 132.56 544.88 133.35 545.58C133.7 545.9 134.08 546.19 134.45 546.5C135.17 547.12 135.81 547.81 136.37 548.59C136.96 549.44 137.53 550.29 138.16 551.09C139.05 552.21 139.97 553.3 140.89 554.39C141.8 555.45 142.93 556.23 144.12 556.93C144.29 557.03 144.48 557.11 144.66 557.18C145.08 557.32 145.49 557.34 145.9 557.12C146.25 556.93 146.61 556.77 146.97 556.58C147.98 556.04 149 555.51 150.07 555.08C151.03 554.69 152.02 554.46 153.06 554.53C153.25 554.54 153.45 554.58 153.63 554.65C155 555.18 156.4 555.28 157.81 554.87C158.63 554.63 159.44 554.38 160.25 554.15C160.59 554.05 160.94 554 161.27 553.9C161.88 553.72 162.51 553.73 163.13 553.8C164.81 554.01 166.48 554.32 168.11 554.82C169.57 555.27 170.74 556.12 171.56 557.43C171.6 557.5 171.64 557.56 171.68 557.62C172 558.08 171.87 558.53 171.63 558.96C171.59 559.02 171.43 559.07 171.37 559.04C171.1 558.91 170.83 558.77 170.58 558.62C170.22 558.39 169.88 558.15 169.51 557.92C169.13 557.68 168.7 557.55 168.25 557.46C167.96 557.4 167.65 557.44 167.38 557.57C167.3 557.63 167.23 557.7 167.18 557.79C167.11 557.92 167.2 558.12 167.34 558.15C167.43 558.18 167.53 558.19 167.63 558.18C168.18 558.09 168.67 558.27 169.13 558.53C169.48 558.73 169.81 558.96 170.14 559.18C170.61 559.51 171.1 559.82 171.71 559.82C171.88 559.82 171.98 559.94 172.03 560.09C172.3 560.8 172.49 561.52 172.46 562.28C172.45 562.52 172.37 562.71 172.25 562.91C171.38 564.51 170.08 565.71 168.7 566.85C168.32 567.16 167.89 567.43 167.51 567.75C167.07 568.12 166.66 568.52 166.23 568.91C166.22 569.31 165.87 569.47 165.63 569.7C165.38 569.94 165.1 570.16 164.81 570.35C164.2 570.74 163.67 571.24 163.12 571.72C162.64 572.14 162.31 572.67 162.07 573.25C161.83 573.86 161.6 574.47 161.36 575.07C160.39 577.59 158.93 579.78 157.07 581.72C156.36 582.45 155.67 583.21 154.99 583.98C154.06 585.07 153.29 586.27 152.63 587.54C152.24 588.3 151.93 589.09 151.81 589.95C151.74 590.42 151.69 590.88 151.7 591.35C151.7 592.48 151.59 593.6 151.47 594.72C151.31 596.25 150.91 597.72 150.36 599.15C149.8 600.58 149.12 601.95 148.33 603.26C147.33 604.94 146.18 606.52 144.9 608C144.5 608.45 144.13 608.92 143.74 609.37C143.32 609.84 142.89 610.3 142.46 610.75C142.33 610.9 142.18 611.05 142.01 611.14C141.52 611.41 141.16 611.82 140.77 612.22C139.86 613.16 138.8 613.9 137.57 614.39C136.85 614.68 136.14 614.98 135.43 615.29C135.23 615.38 135.02 615.48 134.84 615.61C134.71 615.71 134.6 615.83 134.51 615.96C134.42 616.1 134.36 616.26 134.34 616.42C134.29 616.71 134.19 617 134.11 617.28C133.92 617.98 133.66 618.67 133.54 619.38C133.39 620.27 133.32 621.16 133.39 622.07C133.51 623.74 133.94 625.33 134.43 626.91C134.71 627.79 135 628.67 135.15 629.59C135.23 630.09 135.31 630.58 135.37 631.08C135.44 631.74 135.34 632.38 135.14 633.01C134.87 633.92 134.55 634.81 134.24 635.71C134.01 636.35 133.73 636.96 133.51 637.6C132.97 639.2 132.2 640.69 131.51 642.22C131.14 643.05 130.65 643.8 130.11 644.53C129.92 644.76 129.72 644.98 129.49 645.17C128.77 645.78 127.78 645.73 127.11 645.3C126.67 645.01 126.31 644.62 126.05 644.16C125.66 643.46 125.41 642.68 125.34 641.88C125.19 640.3 125.38 638.78 126.16 637.37C126.34 637.04 126.5 636.7 126.68 636.37C126.92 635.9 127.17 635.44 127.42 634.97C127.88 634.11 128.17 633.17 128.51 632.26C128.75 631.58 128.7 630.93 128.35 630.3C128.15 629.95 127.97 629.59 127.79 629.23C126.91 627.52 126.33 625.66 126.07 623.74C125.91 622.45 125.77 621.15 125.66 619.85C125.58 618.98 125.33 618.2 124.77 617.51C124.02 616.59 123.5 615.53 123.13 614.4C123.06 614.2 122.97 614.11 122.78 614.08C122.34 614 121.9 613.89 121.46 613.85C120.66 613.77 119.87 613.72 119.07 613.68C117.95 613.62 116.83 613.59 115.7 613.54C115.58 613.54 115.45 613.54 115.33 613.54C114.61 613.58 114.54 613.64 114.37 614.33C114.35 614.4 114.32 614.47 114.31 614.55C114.06 616.11 113.31 617.42 112.28 618.59C111.37 619.62 110.44 620.63 109.51 621.65C108.92 622.3 108.38 622.99 107.91 623.73C107.63 624.17 107.36 624.63 107.14 625.11C106.65 626.18 106.46 627.37 106.58 628.54C106.71 629.82 107.05 631.05 107.29 632.31C107.46 633.19 107.65 634.07 107.73 634.97C107.8 635.83 107.69 636.68 107.41 637.49C107.21 638.11 106.93 638.7 106.59 639.25C105.76 640.53 104.92 641.81 104.09 643.09C103.8 643.53 103.51 643.97 103.24 644.42C102.6 645.46 102.21 646.59 101.97 647.77C101.93 647.97 101.87 648.15 101.96 648.36C102.02 648.49 102.02 648.65 102.02 648.8C102.04 650.36 102.54 651.75 103.47 652.99C103.81 653.45 104.19 653.88 104.58 654.31C105.04 654.82 105.61 655.17 106.28 655.36C106.8 655.52 107.33 655.68 107.86 655.8C108.95 656.03 109.87 656.55 110.69 657.27C111.43 657.91 112.15 658.56 112.78 659.31C113.2 659.82 113.69 660.24 114.32 660.47C114.36 660.49 114.4 660.53 114.44 660.56C114.4 660.57 114.36 660.6 114.31 660.6C114.16 660.62 114.01 660.61 113.87 660.64C113.75 660.67 113.63 660.72 113.52 660.78C113.4 660.85 113.34 660.98 113.4 661.1C113.45 661.2 113.56 661.34 113.65 661.34C113.92 661.36 114.19 661.33 114.47 661.3C115.29 661.2 116.11 661.24 116.92 661.41C117.47 661.51 117.97 661.74 118.41 662.09C118.78 662.39 119.15 662.68 119.53 662.96C119.76 663.11 120 663.27 120.25 663.34C121.01 663.56 121.68 663.93 122.33 664.37C122.41 664.42 122.49 664.5 122.58 664.53C122.99 664.67 123.05 665.03 123.05 665.38C123.06 665.79 122.83 666.09 122.48 666.29C122.33 666.37 122.15 666.41 121.99 666.46C121.87 666.48 121.74 666.5 121.62 666.5C121.22 666.51 120.8 666.59 120.43 666.5C120.06 666.41 119.91 665.98 119.64 665.72C119.26 665.36 118.89 664.98 118.49 664.65C117.92 664.19 117.28 663.86 116.54 663.77C116.15 663.72 115.83 663.55 115.52 663.31C115.17 663.04 114.8 662.78 114.43 662.53C113.74 662.06 112.94 661.79 112.11 661.76C111.72 661.74 111.32 661.82 110.93 661.89C110.79 661.91 110.66 662.02 110.55 662.11C110.5 662.16 110.47 662.21 110.46 662.27C110.44 662.34 110.45 662.4 110.48 662.46C110.53 662.6 110.69 662.69 110.84 662.67C110.91 662.65 110.98 662.63 111.05 662.6C112.02 662.28 112.93 662.51 113.78 662.98C114.18 663.2 114.55 663.46 114.9 663.74C115.38 664.12 115.88 664.42 116.5 664.49C117.01 664.55 117.46 664.78 117.86 665.08C118.18 665.32 118.49 665.58 118.77 665.86C118.95 666.04 119.22 666.18 119.26 666.48C118.98 666.64 118.72 666.84 118.42 666.93C118.09 667.03 117.73 667.08 117.39 667.05C116.31 666.94 115.24 667.08 114.17 667.08C113.87 667.07 113.57 667.08 113.27 667.08L113.27 667.12ZM154.91 563.25C155.84 563.22 156.68 562.77 157.29 561.94C157.75 561.32 158.13 560.64 158.69 560.09C158.72 560.04 158.75 559.99 158.77 559.94C158.78 559.88 158.78 559.83 158.77 559.77C158.76 559.71 158.73 559.66 158.69 559.62C158.66 559.58 158.61 559.54 158.56 559.52C158.1 559.36 157.74 559.06 157.35 558.78C157.19 558.66 157.02 558.56 156.84 558.47C156.38 558.26 155.91 558.17 155.39 558.27C154.74 558.39 154.16 558.65 153.6 558.99C153.14 559.26 152.78 559.65 152.53 560.11C152.26 560.62 152.07 561.16 151.67 561.6C151.53 561.75 151.59 562.01 151.76 562.13C151.84 562.19 151.93 562.25 152.02 562.27C152.43 562.33 152.75 562.57 153.09 562.76C153.63 563.05 154.19 563.25 154.91 563.25ZM130.31 548.35C130.14 548.36 130.05 548.35 129.99 548.38C129.9 548.42 129.83 548.48 129.76 548.55C129.7 548.64 129.76 548.81 129.88 548.87C130.03 548.95 130.18 549.04 130.35 549.09C132.17 549.69 133.69 550.73 134.98 552.16C136 553.29 136.89 554.53 137.8 555.76C138.54 556.77 139.27 557.78 140.05 558.76C140.97 559.93 142.15 560.74 143.56 561.21C143.75 561.27 143.95 561.29 144.14 561.3C144.28 561.3 144.37 561.19 144.39 561.06C144.42 560.93 144.4 560.79 144.28 560.73C144.13 560.64 143.96 560.59 143.8 560.53C142.52 560.07 141.44 559.34 140.59 558.28C140.34 557.97 140.09 557.65 139.85 557.33C138.9 556.04 137.97 554.74 137 553.46C136.19 552.38 135.31 551.36 134.28 550.47C133.33 549.65 132.24 549.04 131.08 548.57C130.81 548.46 130.51 548.4 130.31 548.35Z" fill="#000000" fill-opacity="1.000000" fill-rule="nonzero"/>
		<path d="M86.73 635.23C87.49 635.37 88.29 635.28 89.07 635.5C90.2 635.82 91.36 636.01 92.53 636.12C92.63 636.13 92.72 636.15 92.82 636.18C92.92 636.2 92.96 636.32 92.89 636.42C92.77 636.58 92.65 636.74 92.52 636.89C91.92 637.56 91.31 638.23 90.71 638.9C90.09 639.58 89.57 640.36 89.18 641.2C88.8 642 88.6 642.85 88.62 643.74C88.66 645.28 89.29 646.49 90.56 647.36C90.93 647.61 91.32 647.83 91.71 648.06C92.19 648.36 92.19 648.37 91.87 648.86C91.75 649.05 91.62 649.24 91.48 649.42C90.81 650.3 90.5 651.32 90.35 652.4C90.28 652.88 90.34 653.36 90.49 653.81C90.68 654.36 90.9 654.89 91.14 655.41C91.33 655.85 91.65 656.21 92 656.53C92.09 656.62 92.18 656.71 92.27 656.8C92.29 656.83 92.3 656.89 92.32 656.93C92.26 656.96 92.2 657 92.14 657C91.42 656.94 90.7 656.89 89.98 656.83C89.66 656.8 89.34 656.76 89.02 656.71C88.77 656.68 88.52 656.63 88.28 656.57C87.71 656.43 87.29 656.09 87.1 655.53C86.95 655.08 86.65 654.69 86.63 654.19C86.63 654.08 86.52 653.97 86.46 653.86C85.5 652.29 84.34 650.89 82.88 649.75C81.98 649.04 81.07 648.34 80.16 647.64C79.95 647.47 79.72 647.31 79.52 647.13C78.9 646.6 78.49 645.88 78.36 645.08C78.26 644.49 78.41 643.93 78.57 643.38C78.83 642.53 79.31 641.8 79.86 641.11C80.6 640.16 81.49 639.34 82.5 638.69C82.82 638.49 83.13 638.28 83.43 638.06C83.97 637.68 84.38 637.15 84.61 636.54C84.68 636.38 84.72 636.21 84.75 636.04C84.83 635.52 84.82 635.51 85.29 635.42C85.75 635.34 86.23 635.3 86.73 635.23ZM151.18 629.91C150.42 629.92 149.67 629.75 148.99 629.42C147.52 628.72 146.13 627.87 144.85 626.88C143.7 626.01 142.79 624.91 142.1 623.64C141.97 623.4 141.83 623.16 141.71 622.91C141.25 621.89 140.57 621.04 139.79 620.24C138.71 619.14 137.53 618.12 136.32 617.15C136.23 617.08 136.12 617 136.04 616.91C136 616.86 135.96 616.77 136.05 616.72C136.16 616.65 136.27 616.59 136.38 616.54C136.91 616.33 137.44 616.11 137.98 615.9C139.38 615.35 140.64 614.51 141.7 613.44C141.81 613.33 141.91 613.22 142.03 613.13C142.08 613.1 142.18 613.11 142.23 613.14C142.34 613.21 142.42 613.3 142.51 613.39C144.2 615.07 145.74 616.88 146.83 619.02C147.27 619.87 147.87 620.54 148.62 621.1C149.59 621.83 150.4 622.72 151.12 623.68C152.16 625.07 152.92 626.62 153.63 628.2C153.69 628.34 153.74 628.48 153.78 628.63C153.9 629.12 153.71 629.48 153.23 629.62C152.56 629.81 151.87 629.9 151.18 629.91ZM136 560.86C135.9 560.86 135.8 560.88 135.71 560.86C134.34 560.46 132.98 560.04 131.73 559.35C130.16 558.48 128.83 557.31 127.66 555.96C127.28 555.53 126.94 555.07 126.57 554.62C125.95 553.87 125.34 553.11 124.71 552.37C124.14 551.7 123.48 551.13 122.79 550.58C122.33 550.23 121.83 549.95 121.29 549.74C120.71 549.52 120.17 549.21 119.68 548.82C119.35 548.55 118.98 548.34 118.64 548.09C118.41 547.93 118.2 547.75 118 547.56C117.76 547.32 117.72 547.03 117.89 546.74C117.99 546.57 118.13 546.41 118.27 546.28C118.8 545.77 119.48 545.46 120.21 545.38C121.25 545.26 122.3 545.3 123.34 545.42C123.75 545.48 124.04 545.67 124.25 546C124.58 546.51 124.91 547.01 125.21 547.52C125.68 548.33 126.22 549.08 126.88 549.73C127.33 550.17 127.81 550.57 128.28 550.97C128.75 551.35 129.24 551.7 129.69 552.09C130.63 552.88 131.45 553.81 132.1 554.84C132.74 555.86 133.37 556.88 133.99 557.91C134.58 558.9 135.2 559.87 135.96 560.73C135.99 560.76 135.98 560.82 135.99 560.87C135.99 560.87 136 560.86 136 560.86ZM117.46 660.34C118.44 660.31 119.38 660.69 120.12 661.52C120.47 661.91 120.85 662.28 121.07 662.76C121.09 662.81 121.11 662.89 121.09 662.9C121.04 662.93 120.97 662.97 120.91 662.96C120.54 662.88 120.2 662.75 119.9 662.51C119.59 662.25 119.26 662.03 118.96 661.77C118.23 661.15 117.37 660.87 116.44 660.77C116.22 660.75 115.99 660.73 115.77 660.71C115.75 660.71 115.73 660.68 115.73 660.67C115.75 660.63 115.76 660.56 115.8 660.56C116.34 660.4 116.9 660.33 117.46 660.34Z" fill="#000000" fill-opacity="1.000000" fill-rule="nonzero"/>
		<path d="M135.99 560.87L136.07 560.93C136.05 560.92 136.03 560.93 136.02 560.92C136.01 560.9 136.01 560.88 136 560.86L135.99 560.87ZM155.6 559.34C156.59 559.31 157.3 560.29 157 561.24C156.75 562.03 155.9 562.7 154.78 562.31C153.97 562.04 153.66 561.05 154.08 560.25C154.38 559.68 154.93 559.35 155.6 559.34ZM583.64 675.11C584.76 675.11 585.89 675.11 587.01 675.11C587.89 675.1 588.76 675.02 589.6 674.79C589.84 674.72 590.07 674.63 590.31 674.54C590.66 674.39 590.92 674.15 591.17 673.85C592.48 672.24 593.84 670.67 595.46 669.34C596.35 668.62 597.31 667.98 598.33 667.44C598.99 667.08 599.66 666.75 600.3 666.37C601.03 665.94 601.74 665.47 602.46 665.01C602.64 664.89 602.8 664.71 603.04 664.7C603.11 664.69 603.18 664.64 603.23 664.59C603.69 664.16 604.14 663.73 604.59 663.29C605.76 661.55 605.93 660.15 604.95 658.3C604.82 658.05 604.64 657.84 604.48 657.61C604.01 656.94 603.61 656.21 603.31 655.44C603.24 655.25 603.12 655.09 603.03 654.91C602.51 654 601.99 653.08 601.48 652.16C601.35 651.92 601.24 651.67 601.14 651.41C600.07 648.61 600.55 646.05 602.4 643.73C602.57 643.52 602.77 643.32 602.92 643.09C603.16 642.73 603.5 642.55 603.9 642.45C604.53 642.29 605.17 642.19 605.82 642.16C606.09 642.15 606.37 642.15 606.64 642.15C608.02 642.14 609.39 642.15 610.76 642.13C611.14 642.13 611.51 642.08 611.88 642.05C612.53 642 613.17 641.94 613.82 641.88C614.07 641.86 614.34 641.88 614.56 641.78C614.92 641.63 615.13 641.81 615.33 642.03C615.49 642.2 615.61 642.39 615.76 642.55C616.31 643.14 616.97 643.61 617.7 643.94C618.73 644.4 619.79 644.78 620.91 644.91C621.7 645.01 622.46 644.89 623.14 644.45C623.46 644.25 623.79 644.09 624.18 644.07C624.27 644.07 624.37 644.04 624.47 644.02C624.84 643.93 625.1 643.72 625.2 643.34C625.22 643.25 625.25 643.15 625.28 643.05C625.35 642.87 625.49 642.76 625.68 642.76C626 642.77 626.33 642.78 626.65 642.81C626.87 642.82 627.1 642.87 627.32 642.86C627.74 642.85 627.94 642.57 627.84 642.15C627.82 642.05 627.77 641.96 627.75 641.87C627.7 641.68 627.75 641.6 627.94 641.53C628.1 641.46 628.28 641.42 628.44 641.36C628.66 641.26 628.7 640.97 628.51 640.8C628.42 640.72 628.31 640.65 628.21 640.57C627.51 640.05 626.8 639.54 626.11 639.01C625.67 638.67 625.25 638.32 624.75 638.07C624.64 638.01 624.63 637.92 624.74 637.84C625.43 637.34 626.04 636.75 626.64 636.15C627.14 635.66 627.57 635.1 627.91 634.49C628.86 632.86 629.47 631.06 629.73 629.19C629.97 627.43 629.86 625.69 629.33 623.99C628.84 622.41 628.36 620.83 627.86 619.26C627.41 617.89 626.75 616.63 625.99 615.41C625.62 614.82 625.27 614.21 624.95 613.59C623.5 610.77 621.71 608.18 619.65 605.78C616.26 601.83 612.28 598.58 607.9 595.81C602.8 592.59 597.35 590.15 591.64 588.27C588.01 587.07 584.32 586.1 580.57 585.37C579.79 585.22 579 585.08 578.22 584.93C578.07 584.9 577.92 584.87 577.78 584.83C577.03 584.64 576.28 584.46 575.53 584.28C574.48 584.02 573.53 583.5 572.61 582.95C571.58 582.34 570.54 581.74 569.45 581.23C568.05 580.57 566.59 580.21 565.03 580.27C564.34 580.29 563.64 580.26 562.94 580.28C562.42 580.29 561.96 580.17 561.54 579.85C560.82 579.31 560.02 578.88 559.22 578.48C558.62 578.18 558.04 577.81 557.52 577.39C557.26 577.18 557.16 576.95 557.21 576.61C557.39 575.44 557.34 574.26 557.32 573.08C557.31 572.39 557.09 571.75 556.71 571.17C556.53 570.88 556.32 570.59 556.12 570.3C555.99 570.1 556 570.01 556.19 569.86C556.38 569.7 556.58 569.55 556.8 569.43C557.39 569.09 558 568.83 558.67 568.69C558.87 568.66 559.06 568.61 559.25 568.55C559.93 568.33 560.54 568 560.96 567.4C561.32 566.89 561.69 566.38 562.02 565.85C562.62 564.9 563.2 563.94 563.77 562.96C564.83 561.16 566.26 559.61 567.96 558.41C569.25 557.5 570.33 556.31 571.11 554.94C571.52 554.24 571.92 553.55 572.45 552.94C572.52 552.87 572.55 552.77 572.56 552.67C572.58 552.25 572.23 551.7 571.83 551.55C571.36 551.37 570.88 551.22 570.37 551.23C570 551.23 569.62 551.23 569.25 551.21C568.17 551.16 567.17 551.43 566.21 551.9C565.27 552.36 564.36 552.87 563.56 553.57C563.21 553.89 562.83 554.18 562.47 554.49C561.74 555.1 561.09 555.81 560.55 556.58C559.96 557.42 559.38 558.28 558.75 559.08C557.86 560.2 556.95 561.3 556.02 562.38C555.11 563.44 553.98 564.22 552.79 564.92C552.62 565.02 552.44 565.1 552.25 565.17C551.83 565.31 551.42 565.33 551.01 565.11C550.66 564.92 550.3 564.76 549.94 564.57C548.93 564.03 547.91 563.5 546.84 563.07C545.88 562.68 544.89 562.45 543.85 562.52C543.65 562.53 543.46 562.57 543.28 562.64C541.9 563.17 540.51 563.27 539.1 562.86C538.28 562.62 537.47 562.37 536.66 562.14C536.32 562.04 535.97 561.99 535.64 561.89C535.03 561.71 534.4 561.71 533.78 561.79C532.1 562 530.43 562.31 528.8 562.81C527.34 563.26 526.17 564.11 525.35 565.42C525.31 565.48 525.28 565.55 525.23 565.61C524.91 566.07 525.04 566.52 525.28 566.95C525.32 567.01 525.48 567.06 525.54 567.03C525.81 566.9 526.08 566.76 526.33 566.61C526.69 566.38 527.04 566.13 527.4 565.91C527.78 565.67 528.21 565.54 528.66 565.45C528.96 565.39 529.26 565.42 529.53 565.56C529.62 565.62 529.68 565.69 529.73 565.78C529.8 565.9 529.71 566.11 529.57 566.14C529.48 566.17 529.38 566.18 529.28 566.17C528.73 566.08 528.24 566.26 527.78 566.52C527.43 566.72 527.1 566.94 526.77 567.17C526.3 567.5 525.81 567.81 525.21 567.81C525.03 567.81 524.93 567.93 524.88 568.08C524.61 568.78 524.42 569.51 524.45 570.27C524.46 570.51 524.55 570.7 524.66 570.9C525.54 572.49 526.83 573.7 528.21 574.84C528.59 575.15 529.02 575.42 529.4 575.74C529.84 576.11 530.25 576.51 530.68 576.9C530.69 577.3 531.04 577.46 531.28 577.68C531.53 577.92 531.81 578.15 532.1 578.34C532.71 578.73 533.24 579.23 533.79 579.71C534.27 580.13 534.6 580.65 534.84 581.24C535.08 581.84 535.31 582.46 535.55 583.06C536.52 585.58 537.98 587.77 539.84 589.71C540.55 590.44 541.25 591.2 541.92 591.97C542.85 593.06 543.62 594.26 544.28 595.53C544.67 596.29 544.98 597.08 545.11 597.94C545.17 598.41 545.22 598.86 545.21 599.34C545.21 600.47 545.32 601.59 545.44 602.71C545.61 604.24 546.01 605.71 546.56 607.14C547.11 608.57 547.79 609.94 548.58 611.25C549.58 612.93 550.73 614.51 552.01 615.99C552.41 616.44 552.78 616.91 553.18 617.36C553.59 617.83 554.02 618.28 554.45 618.74C554.58 618.88 554.73 619.04 554.9 619.13C555.4 619.4 555.76 619.81 556.14 620.21C557.06 621.15 558.11 621.89 559.34 622.38C560.06 622.67 560.77 622.97 561.48 623.28C561.69 623.37 561.89 623.47 562.07 623.6C562.34 623.8 562.51 624.06 562.57 624.4C562.62 624.7 562.72 624.99 562.8 625.27C563 625.97 563.26 626.66 563.37 627.37C563.52 628.26 563.59 629.15 563.52 630.06C563.4 631.73 562.97 633.32 562.48 634.9C562.2 635.78 561.91 636.66 561.76 637.58C561.68 638.07 561.6 638.57 561.54 639.07C561.47 639.72 561.57 640.37 561.77 641C562.05 641.9 562.36 642.8 562.67 643.7C562.9 644.34 563.18 644.95 563.4 645.59C563.94 647.19 564.71 648.68 565.4 650.21C565.77 651.03 566.27 651.79 566.8 652.51C566.98 652.75 567.2 652.97 567.42 653.16C568.14 653.77 569.14 653.72 569.8 653.29C570.24 653 570.61 652.61 570.86 652.15C571.26 651.45 571.5 650.67 571.57 649.87C571.72 648.28 571.53 646.77 570.75 645.35C570.57 645.03 570.4 644.69 570.23 644.35C569.99 643.89 569.74 643.42 569.49 642.96C569.03 642.09 568.74 641.16 568.4 640.24C568.16 639.57 568.21 638.92 568.56 638.29C568.76 637.94 568.94 637.58 569.12 637.22C570 635.51 570.59 633.65 570.84 631.73C571 630.44 571.14 629.14 571.26 627.84C571.33 626.97 571.58 626.19 572.14 625.5C572.89 624.57 573.41 623.52 573.78 622.39C573.85 622.19 573.94 622.1 574.13 622.07C574.57 621.99 575.01 621.88 575.45 621.84C576.25 621.76 577.05 621.7 577.84 621.66C578.96 621.61 580.09 621.58 581.21 621.53C581.33 621.53 581.46 621.53 581.58 621.53C582.3 621.57 582.37 621.63 582.54 622.32C582.56 622.39 582.59 622.46 582.61 622.53C582.85 624.1 583.6 625.41 584.63 626.58C585.54 627.61 586.48 628.62 587.4 629.64C587.99 630.28 588.53 630.98 589 631.72C589.28 632.16 589.56 632.62 589.77 633.09C590.26 634.17 590.45 635.36 590.33 636.53C590.2 637.81 589.86 639.04 589.62 640.3C589.45 641.18 589.26 642.06 589.18 642.96C589.11 643.81 589.22 644.67 589.5 645.48C589.7 646.1 589.97 646.69 590.32 647.24C591.15 648.52 591.99 649.8 592.82 651.08C593.11 651.52 593.4 651.96 593.68 652.41C594.31 653.44 594.7 654.58 594.95 655.76C594.99 655.96 595.05 656.14 594.95 656.35C594.89 656.47 594.89 656.64 594.89 656.79C594.87 658.35 594.37 659.74 593.44 660.98C593.1 661.44 592.72 661.87 592.33 662.29C591.88 662.8 591.29 663.17 590.64 663.35C590.11 663.51 589.58 663.67 589.05 663.79C587.97 664.01 587.05 664.54 586.22 665.26C585.49 665.9 584.76 666.55 584.13 667.3C583.71 667.81 583.22 668.23 582.59 668.46C582.55 668.48 582.51 668.52 582.47 668.54C582.52 668.56 582.56 668.58 582.6 668.59C582.75 668.61 582.9 668.6 583.04 668.63C583.16 668.66 583.28 668.71 583.39 668.77C583.51 668.84 583.57 668.97 583.51 669.09C583.46 669.19 583.35 669.33 583.26 669.33C582.99 669.34 582.72 669.32 582.45 669.28C581.63 669.19 580.8 669.22 579.99 669.39C579.45 669.5 578.94 669.73 578.5 670.08C578.14 670.38 577.76 670.67 577.38 670.95C577.15 671.1 576.91 671.26 576.66 671.33C575.9 671.54 575.23 671.92 574.58 672.36C574.5 672.41 574.43 672.49 574.33 672.52C573.93 672.66 573.86 673.01 573.86 673.37C573.86 673.78 574.08 674.08 574.43 674.28C574.58 674.36 574.76 674.4 574.93 674.44C575.04 674.48 575.17 674.49 575.3 674.49C575.69 674.5 576.11 674.58 576.49 674.49C576.85 674.4 577 673.97 577.27 673.71C577.65 673.35 578.02 672.97 578.42 672.64C578.99 672.17 579.63 671.84 580.38 671.76C580.76 671.71 581.08 671.54 581.39 671.3C581.74 671.03 582.11 670.76 582.48 670.51C583.17 670.05 583.97 669.78 584.8 669.75C585.19 669.73 585.59 669.81 585.98 669.88C586.12 669.9 586.25 670.01 586.36 670.1C586.41 670.15 586.44 670.2 586.45 670.26C586.47 670.32 586.46 670.39 586.44 670.45C586.41 670.52 586.36 670.58 586.29 670.61C586.22 670.65 586.15 670.67 586.07 670.66C586 670.64 585.93 670.61 585.86 670.59C584.89 670.26 583.98 670.5 583.13 670.97C582.73 671.19 582.36 671.44 582.01 671.73C581.53 672.11 581.03 672.41 580.41 672.48C579.9 672.54 579.45 672.76 579.05 673.07C578.73 673.31 578.42 673.56 578.14 673.85C577.96 674.03 577.69 674.16 577.65 674.47C577.93 674.62 578.19 674.83 578.49 674.92C578.82 675.02 579.18 675.07 579.52 675.04C580.6 674.93 581.67 675.07 582.74 675.06C583.04 675.06 583.34 675.06 583.64 675.06L583.64 675.11ZM542.01 571.24C541.07 571.21 540.23 570.76 539.62 569.93C539.16 569.31 538.78 568.63 538.23 568.07C538.19 568.03 538.16 567.98 538.14 567.93C538.13 567.87 538.13 567.81 538.14 567.76C538.15 567.7 538.18 567.65 538.22 567.61C538.25 567.56 538.3 567.53 538.36 567.51C538.81 567.35 539.17 567.04 539.56 566.77C539.72 566.65 539.89 566.54 540.07 566.46C540.53 566.25 541 566.16 541.52 566.26C542.17 566.38 542.75 566.64 543.31 566.97C543.78 567.25 544.13 567.63 544.38 568.1C544.65 568.61 544.84 569.15 545.25 569.59C545.38 569.74 545.32 570 545.15 570.12C545.07 570.18 544.99 570.24 544.89 570.26C544.48 570.31 544.16 570.56 543.82 570.75C543.28 571.04 542.72 571.24 542.01 571.24ZM566.6 556.34C566.77 556.35 566.86 556.34 566.92 556.37C567.01 556.41 567.09 556.46 567.15 556.54C567.21 556.62 567.15 556.8 567.03 556.86C566.88 556.94 566.73 557.03 566.56 557.08C564.74 557.68 563.22 558.72 561.94 560.15C560.91 561.28 560.02 562.52 559.11 563.75C558.37 564.75 557.64 565.77 556.86 566.75C555.94 567.91 554.76 568.72 553.35 569.2C553.16 569.25 552.96 569.28 552.77 569.29C552.64 569.29 552.54 569.18 552.52 569.05C552.49 568.92 552.51 568.78 552.63 568.71C552.78 568.63 552.95 568.58 553.11 568.52C554.39 568.06 555.47 567.32 556.32 566.27C556.57 565.95 556.82 565.64 557.06 565.32C558.01 564.03 558.94 562.73 559.9 561.45C560.72 560.37 561.6 559.35 562.63 558.46C563.58 557.64 564.67 557.03 565.83 556.56C566.11 556.45 566.4 556.39 566.6 556.34Z" fill="#000000" fill-opacity="1.000000" fill-rule="nonzero"/>
		<path d="M610.18 643.22C609.42 643.36 608.62 643.27 607.84 643.49C606.71 643.81 605.55 643.99 604.38 644.11C604.28 644.11 604.19 644.14 604.09 644.17C603.99 644.19 603.95 644.31 604.02 644.4C604.14 644.57 604.26 644.73 604.39 644.88C604.99 645.55 605.6 646.21 606.2 646.89C606.82 647.57 607.34 648.35 607.73 649.19C608.11 649.99 608.31 650.84 608.29 651.73C608.25 653.26 607.62 654.48 606.35 655.35C605.98 655.6 605.59 655.82 605.2 656.05C604.72 656.35 604.72 656.36 605.04 656.85C605.16 657.04 605.29 657.23 605.43 657.41C606.1 658.29 606.42 659.31 606.56 660.39C606.63 660.87 606.57 661.35 606.42 661.8C606.23 662.34 606.01 662.88 605.77 663.4C605.58 663.84 605.26 664.2 604.91 664.52C604.82 664.61 604.73 664.7 604.65 664.79C604.62 664.82 604.61 664.88 604.59 664.92C604.65 664.94 604.71 664.99 604.77 664.99C605.49 664.93 606.21 664.88 606.93 664.82C607.25 664.79 607.57 664.74 607.89 664.7C608.14 664.66 608.39 664.62 608.63 664.56C609.2 664.42 609.62 664.08 609.81 663.52C609.96 663.07 610.26 662.68 610.28 662.18C610.28 662.07 610.39 661.96 610.45 661.85C611.41 660.28 612.57 658.88 614.03 657.74C614.93 657.03 615.84 656.33 616.75 655.62C616.96 655.46 617.19 655.29 617.39 655.11C618.01 654.59 618.42 653.87 618.55 653.07C618.65 652.48 618.5 651.92 618.34 651.37C618.08 650.52 617.6 649.79 617.05 649.1C616.31 648.15 615.42 647.33 614.41 646.68C614.09 646.48 613.78 646.27 613.48 646.05C612.94 645.67 612.53 645.14 612.3 644.53C612.23 644.37 612.19 644.2 612.16 644.03C612.08 643.51 612.09 643.5 611.62 643.41C611.16 643.33 610.68 643.28 610.18 643.22ZM545.73 637.9C546.49 637.91 547.24 637.74 547.92 637.41C549.39 636.71 550.78 635.86 552.07 634.87C553.21 634 554.12 632.9 554.81 631.63C554.94 631.39 555.08 631.15 555.2 630.9C555.66 629.88 556.34 629.03 557.12 628.23C558.21 627.12 559.38 626.11 560.59 625.14C560.68 625.06 560.79 624.99 560.87 624.9C560.91 624.85 560.95 624.76 560.86 624.71C560.75 624.64 560.64 624.58 560.53 624.53C560 624.31 559.47 624.1 558.93 623.89C557.54 623.34 556.27 622.5 555.21 621.43C555.1 621.32 555 621.21 554.88 621.12C554.84 621.09 554.73 621.1 554.68 621.13C554.58 621.2 554.49 621.29 554.4 621.38C552.71 623.06 551.17 624.86 550.08 627.01C549.65 627.86 549.04 628.53 548.29 629.09C547.32 629.82 546.51 630.7 545.79 631.67C544.75 633.06 543.99 634.61 543.28 636.19C543.22 636.33 543.17 636.47 543.13 636.62C543.01 637.1 543.2 637.47 543.69 637.61C544.35 637.79 545.04 637.89 545.73 637.9ZM560.91 568.84C561.01 568.85 561.11 568.87 561.21 568.84C562.57 568.45 563.93 568.03 565.18 567.33C566.75 566.46 568.08 565.3 569.25 563.95C569.63 563.52 569.98 563.06 570.34 562.61C570.96 561.86 571.57 561.1 572.2 560.36C572.77 559.69 573.43 559.12 574.12 558.57C574.58 558.22 575.08 557.94 575.62 557.73C576.2 557.51 576.75 557.2 577.23 556.8C577.56 556.54 577.93 556.33 578.28 556.08C578.5 555.92 578.71 555.74 578.91 555.55C579.15 555.31 579.19 555.02 579.02 554.73C578.92 554.56 578.78 554.4 578.64 554.27C578.11 553.76 577.43 553.45 576.7 553.37C575.66 553.25 574.61 553.28 573.57 553.41C573.16 553.46 572.87 553.65 572.66 553.99C572.33 554.49 572 555 571.7 555.51C571.23 556.32 570.69 557.07 570.03 557.72C569.58 558.15 569.1 558.56 568.63 558.96C568.17 559.34 567.67 559.69 567.22 560.08C566.28 560.87 565.47 561.8 564.81 562.83C564.18 563.85 563.54 564.87 562.92 565.9C562.33 566.89 561.71 567.86 560.95 568.72C560.92 568.75 560.93 568.81 560.92 568.86L560.91 568.84ZM579.45 668.33C578.47 668.3 577.53 668.68 576.79 669.51C576.44 669.9 576.06 670.27 575.84 670.75C575.82 670.79 575.8 670.88 575.82 670.89C575.87 670.92 575.94 670.96 576 670.94C576.37 670.87 576.71 670.74 577.01 670.5C577.32 670.24 577.65 670.02 577.95 669.76C578.68 669.14 579.54 668.86 580.47 668.76C580.7 668.74 580.92 668.72 581.14 668.7C581.16 668.7 581.19 668.67 581.18 668.66C581.16 668.62 581.15 668.55 581.12 668.54C580.57 668.39 580.01 668.32 579.45 668.33Z" fill="#000000" fill-opacity="1.000000" fill-rule="nonzero"/>
		<path d="M560.92 568.86L560.84 568.91C560.86 568.91 560.88 568.92 560.89 568.91C560.9 568.89 560.9 568.87 560.91 568.84L560.92 568.86ZM541.32 567.33C540.32 567.3 539.61 568.28 539.92 569.23C540.17 570.01 541.01 570.68 542.13 570.3C542.94 570.03 543.25 569.03 542.84 568.24C542.53 567.67 541.98 567.33 541.32 567.33Z" fill="#000000" fill-opacity="1.000000" fill-rule="nonzero"/>
		<path d="M348.12 61.91L351.69 69.22L359.37 66.59L356.74 74.3L364.03 77.88L356.74 81.47L359.37 89.18L351.69 86.54L348.12 93.86L344.55 86.54L336.87 89.18L339.49 81.47L332.21 77.88L339.49 74.3L336.87 66.59L344.55 69.22L348.12 61.91ZM88.6 332.52L92.17 339.84L99.85 337.2L97.22 344.91L104.51 348.5L97.22 352.08L99.85 359.79L92.17 357.16L88.6 364.47L85.03 357.16L77.35 359.79L79.98 352.08L72.69 348.5L79.98 344.91L77.35 337.2L85.03 339.84L88.6 332.52ZM605.65 332.52L609.22 339.84L616.9 337.2L614.27 344.91L621.56 348.5L614.27 352.08L616.9 359.79L609.22 357.16L605.65 364.47L602.07 357.16L594.4 359.79L597.02 352.08L589.74 348.5L597.02 344.91L594.4 337.2L602.07 339.84L605.65 332.52ZM348.12 594.14L351.69 601.46L359.37 598.82L356.74 606.53L364.03 610.12L356.74 613.71L359.37 621.42L351.69 618.78L348.12 626.1L344.55 618.78L336.87 621.42L339.49 613.71L332.21 610.12L339.49 606.53L336.87 598.82L344.55 601.46L348.12 594.14Z" fill="#8B83F6" fill-opacity="1.000000" fill-rule="nonzero"/>
		<path d="M571.12 120.65C572.62 120.61 574.13 120.59 575.63 120.53C576.72 120.49 577.8 120.43 578.88 120.35C579.92 120.27 580.97 120.18 582.02 120.06C584 119.85 585.97 119.58 587.93 119.25C591.73 118.61 595.46 117.74 599.11 116.49C601.04 115.83 602.93 115.06 604.74 114.11C606.05 113.43 607.32 112.67 608.48 111.75C609.5 110.96 610.44 110.07 611.18 109C611.68 108.31 612.05 107.54 612.29 106.72C612.64 105.48 612.56 104.26 612.11 103.06C611.75 102.08 611.17 101.24 610.48 100.48C609.84 99.77 609.12 99.13 608.34 98.57C606.88 97.51 605.3 96.68 603.65 95.96C602.67 95.54 601.68 95.15 600.67 94.81C600.36 94.7 600.05 94.59 599.74 94.47C598.66 94.04 597.53 93.77 596.39 93.52C595.43 93.31 594.47 93.08 593.5 92.89C592.35 92.66 591.19 92.45 590.03 92.26C589.01 92.1 587.98 91.97 586.96 91.82C586.65 91.78 586.33 91.75 586.02 91.71C585.96 91.71 585.9 91.7 585.83 91.7C585.48 91.71 585.28 91.94 585.32 92.29C585.33 92.35 585.35 92.41 585.37 92.47C585.39 92.54 585.34 92.56 585.3 92.56C585.08 92.55 584.86 92.54 584.65 92.52C584.6 92.52 584.56 92.49 584.53 92.46C584.47 92.38 584.56 92.35 584.6 92.31C585.04 91.92 585.49 91.52 585.94 91.13C586.01 91.06 586.08 91.06 586.13 91.14C586.24 91.32 586.4 91.34 586.58 91.3C586.66 91.29 586.73 91.26 586.81 91.24C587.4 91.09 587.98 91.08 588.57 91.27C588.93 91.38 589.28 91.34 589.63 91.21C590.09 91.04 590.55 90.91 591.02 90.76C591.14 90.72 591.26 90.76 591.38 90.81C591.59 90.9 591.81 90.99 592.04 91.05C592.49 91.18 592.94 91.07 593.39 90.98C593.65 90.93 593.91 90.86 594.17 90.8C594.28 90.78 594.37 90.81 594.46 90.89C594.79 91.13 595.13 91.36 595.47 91.58C595.99 91.91 596.56 91.96 597.15 91.84C597.91 91.68 598.63 91.43 599.34 91.12C600.33 90.67 601.35 90.34 602.38 90C602.73 89.89 603.07 89.77 603.4 89.64C604.61 89.15 605.85 88.75 607.07 88.31C608.21 87.91 609.34 87.49 610.48 87.08C611.49 86.72 612.5 86.39 613.5 86.03C615.27 85.39 617.06 84.82 618.82 84.13C618.98 84.07 619.14 84.01 619.3 83.94C619.42 83.89 619.53 83.83 619.59 83.71C619.65 83.55 619.78 83.47 619.91 83.38C621.87 81.92 623.51 80.15 624.87 78.12C625.99 76.44 626.91 74.64 627.6 72.74C628.29 70.89 628.78 68.98 629.09 67.04C629.25 66.06 629.35 65.07 629.43 64.08C629.53 62.68 629.52 61.28 629.48 59.87C629.43 58.95 629.36 58.02 629.24 57.1C629.02 55.24 628.66 53.39 628.17 51.58C627.27 48.22 625.93 44.98 624.2 41.96C623 39.85 621.6 37.86 620.03 36.02C617.37 32.94 614.31 30.37 610.7 28.47C608.5 27.29 606.13 26.45 603.67 25.99C603.29 25.91 602.9 25.86 602.51 25.81C602.45 25.8 602.38 25.78 602.32 25.79C601.87 25.88 601.41 25.82 600.96 25.89C600.53 25.96 600.1 26.04 599.67 26.11C597.76 26.42 595.87 26.81 593.99 27.2C592.62 27.48 591.26 27.79 589.89 28.08C588.31 28.41 586.73 28.73 585.15 29.07C583.82 29.35 582.48 29.64 581.15 29.94C579.64 30.27 578.13 30.63 576.61 30.96C575.92 31.12 575.28 31.41 574.64 31.7C574.34 31.84 574.06 32.03 573.83 32.27C573.31 32.76 572.86 33.3 572.58 33.96C572.52 34.11 572.42 34.17 572.26 34.2C571.78 34.28 571.3 34.36 570.83 34.49C569.4 34.89 568.19 35.64 567.28 36.84C567.18 36.97 567.06 37.11 567 37.27C566.89 37.54 566.69 37.69 566.44 37.81C565.89 38.08 565.34 38.36 564.8 38.63C564.69 38.69 564.57 38.75 564.46 38.81C564.38 38.85 564.28 38.89 564.23 38.96C564.06 39.2 563.81 39.28 563.56 39.38C562.88 39.66 562.21 39.98 561.58 40.37C560.96 40.76 560.3 41.1 559.71 41.55C559.59 41.65 559.46 41.74 559.35 41.85C557.97 43.16 556.65 44.53 555.58 46.13C554.55 47.67 553.69 49.33 553.02 51.06C552.22 53.1 551.65 55.22 551.3 57.38C551.12 58.5 550.99 59.63 550.91 60.76C550.81 62.3 550.79 63.85 550.87 65.39C550.93 66.71 551.09 68.03 551.29 69.34C551.79 72.59 552.69 75.78 553.96 78.81C554.13 79.22 554.32 79.62 554.5 80.02C554.52 80.09 554.51 80.15 554.44 80.18C554.38 80.21 554.32 80.23 554.27 80.25C553.84 80.39 553.47 80.63 553.11 80.88C552.97 80.98 552.85 81.1 552.76 81.26C552.62 81.54 552.37 81.71 552.1 81.83C551.67 82.04 551.22 82.17 550.75 82.22C549.9 82.3 549.06 82.36 548.21 82.28C548.15 82.27 548.09 82.27 548.02 82.27C546.91 82.21 545.8 82.13 544.68 82.09C543.98 82.06 543.27 82.1 542.57 82.11C542.44 82.12 542.32 82.13 542.19 82.13C541.34 82.15 540.5 82.22 539.66 82.31C538.92 82.39 538.19 82.45 537.46 82.54C536.8 82.62 536.15 82.72 535.51 82.84C534.38 83.04 533.25 83.25 532.13 83.48C529.06 84.08 526.08 85.06 523.26 86.4C521.96 87.02 520.77 87.8 519.6 88.64C519.18 88.94 518.83 89.33 518.51 89.74C517.8 90.65 517.14 91.58 516.57 92.58C515.9 93.76 515.45 95.02 515.28 96.36C515.13 97.46 515.18 98.56 515.47 99.64C515.7 100.45 515.91 101.26 516.19 102.04C516.79 103.74 517.7 105.26 518.97 106.54C520.25 107.83 521.66 108.96 523.16 109.98C525.31 111.44 527.59 112.66 529.95 113.73C533.82 115.48 537.84 116.81 541.96 117.82C545.17 118.62 548.43 119.22 551.71 119.63C552.94 119.78 554.18 119.91 555.41 120.01C556.4 120.09 557.38 120.15 558.37 120.21C559.29 120.26 560.22 120.29 561.14 120.28C562.16 120.28 563.18 120.32 564.2 120.39C565.7 120.49 567.21 120.56 568.71 120.58C569.52 120.6 570.32 120.63 571.12 120.65ZM553.95 50.64C553.94 50.67 553.94 50.7 553.93 50.73C553.93 50.75 553.93 50.76 553.92 50.78C553.91 50.75 553.89 50.73 553.9 50.71C553.91 50.69 553.94 50.67 553.96 50.65C553.97 50.58 553.95 50.49 554.05 50.46C554.07 50.37 554.08 50.27 554.11 50.19C554.28 49.83 554.44 49.48 554.62 49.12C555.52 47.33 556.62 45.66 557.98 44.18C558.15 44 558.3 43.8 558.54 43.68C558.62 43.64 558.68 43.56 558.74 43.49C559.03 43.18 559.31 42.86 559.6 42.55C559.86 42.27 560.15 42.04 560.48 41.85C560.67 41.73 560.86 41.62 561.04 41.5C563.17 40.05 565.52 39.17 568.09 38.94C569.44 38.82 570.79 38.89 572.12 39.14C574.22 39.53 576.19 40.3 578.03 41.38C580.31 42.71 582.27 44.42 584.01 46.39C585.64 48.24 587.01 50.27 588.18 52.44C589.99 55.81 591.22 59.39 591.98 63.13C592 63.21 592.01 63.29 592.01 63.37C592.01 63.43 591.97 63.49 591.9 63.5C591.62 63.54 591.34 63.57 591.06 63.61C590.89 63.63 590.85 63.68 590.87 63.86C590.91 64.45 590.96 65.03 591.02 65.61C591.05 65.89 591.09 66.17 591.13 66.45C591.23 67.13 591.32 67.82 591.35 68.52C591.4 69.54 591.39 70.56 591.36 71.59C591.34 71.89 591.34 72.19 591.32 72.49C591.27 73.07 591.21 73.65 591.17 74.23C591.11 75.03 591.04 75.83 590.88 76.62C590.82 76.88 590.74 77.13 590.66 77.39C590.62 77.52 590.56 77.65 590.52 77.79C590.2 78.81 589.84 79.82 589.45 80.82C589.07 81.8 588.68 82.78 588.19 83.72C587.54 84.96 586.79 86.15 585.97 87.28C584.13 89.81 581.79 91.71 578.9 92.9C578.59 93.04 578.26 93.15 577.93 93.26C577.84 93.29 577.75 93.31 577.66 93.32C577.56 93.33 577.42 93.19 577.42 93.07C577.41 92.98 577.5 92.95 577.57 92.92C577.66 92.9 577.75 92.86 577.84 92.83C579.06 92.38 580.24 91.83 581.32 91.08C583.21 89.78 584.76 88.15 586.04 86.25C587.46 84.15 588.47 81.85 589.18 79.41C589.63 77.85 589.95 76.26 590.15 74.65C590.41 72.56 590.48 70.44 590.34 68.33C590.28 67.25 590.16 66.16 590 65.09C589.8 63.77 589.53 62.45 589.19 61.16C588.3 57.77 586.97 54.57 585.12 51.59C583.54 49.04 581.65 46.77 579.32 44.86C577.8 43.61 576.14 42.57 574.31 41.81C572.5 41.04 570.57 40.62 568.6 40.55C567.75 40.53 566.91 40.6 566.07 40.74C564.42 41.01 562.84 41.56 561.39 42.39C560.91 42.66 560.44 42.95 559.98 43.24C559.58 43.49 559.19 43.76 558.86 44.1C558.51 44.45 558.17 44.79 557.82 45.13C557.28 45.68 556.78 46.27 556.31 46.88C555.54 47.88 554.87 48.95 554.29 50.07C554.22 50.2 554.18 50.36 554.04 50.45C554.03 50.53 554.04 50.61 553.95 50.64ZM628.93 61.4C628.9 62.19 628.86 62.82 628.84 63.45C628.82 64.31 628.72 65.18 628.61 66.03C628.48 67.03 628.31 68.03 628.07 69.01C627.47 71.57 626.57 74.01 625.26 76.3C623.72 78.98 621.75 81.28 619.23 83.09C619.14 83.15 619.04 83.22 618.98 83.3C618.89 83.43 618.77 83.49 618.64 83.54C618.15 83.72 617.67 83.91 617.18 84.08C615.95 84.52 614.72 84.94 613.5 85.37C612.4 85.75 611.3 86.13 610.21 86.52C609 86.95 607.79 87.39 606.58 87.83C605.59 88.18 604.6 88.54 603.61 88.89C603.08 89.08 602.56 89.29 602.02 89.47C601.02 89.8 600.03 90.13 599.06 90.56C598.48 90.83 597.87 91.04 597.24 91.19C596.65 91.33 596.09 91.3 595.58 90.93C595.35 90.76 595.1 90.63 594.86 90.47C594.8 90.43 594.73 90.39 594.68 90.33C594.64 90.28 594.58 90.23 594.51 90.21C594.45 90.18 594.37 90.17 594.3 90.18C594.13 90.19 593.96 90.21 593.79 90.24C593.55 90.29 593.31 90.37 593.06 90.42C592.56 90.53 592.06 90.52 591.61 90.23C591.57 90.21 591.52 90.19 591.48 90.17C591.4 90.13 591.32 90.1 591.23 90.1C591.15 90.09 591.06 90.1 590.98 90.13C590.41 90.3 589.85 90.52 589.25 90.58C589.02 90.75 588.78 90.68 588.53 90.62C588.17 90.52 587.79 90.45 587.41 90.5C587.17 90.54 586.92 90.59 586.67 90.64C586.63 90.64 586.58 90.65 586.53 90.65C586.53 90.65 586.52 90.64 586.51 90.64C586.51 90.64 586.5 90.63 586.5 90.63C586.49 90.62 586.49 90.6 586.5 90.59C586.56 90.51 586.62 90.44 586.68 90.37C587.08 89.89 587.5 89.42 587.89 88.92C589.49 86.84 590.66 84.54 591.54 82.07C592.35 79.75 592.9 77.34 593.16 74.9C593.33 73.36 593.41 71.82 593.4 70.28C593.4 69.91 593.36 69.55 593.35 69.19C593.33 67.77 593.17 66.36 592.96 64.96C592.66 62.84 592.18 60.74 591.53 58.7C590.4 55.12 588.8 51.76 586.65 48.68C585.09 46.44 583.28 44.44 581.16 42.73C579.25 41.19 577.16 39.97 574.83 39.16C573.53 38.7 572.18 38.38 570.8 38.28C569.5 38.18 568.2 38.18 566.9 38.42C566.86 38.43 566.81 38.43 566.77 38.43C566.75 38.43 566.74 38.42 566.72 38.41C566.73 38.4 566.73 38.38 566.74 38.38C566.83 38.32 566.92 38.25 567.01 38.19C567.22 38.08 567.39 37.9 567.49 37.68C567.74 37.18 568.1 36.77 568.52 36.41C569.27 35.75 570.16 35.29 571.13 35.05C571.39 34.99 571.65 34.92 571.91 34.88C572.21 34.85 572.52 34.73 572.84 34.84C572.99 34.9 573.15 34.76 573.17 34.59C573.18 34.55 573.18 34.5 573.17 34.45C573.11 34.27 573.19 34.12 573.27 33.96C573.52 33.46 573.89 33.06 574.3 32.68C574.5 32.49 574.74 32.33 575 32.21C575.62 31.94 576.25 31.7 576.9 31.54C577.96 31.29 579.01 31.06 580.07 30.82C581.24 30.55 582.42 30.28 583.6 30.03C585.01 29.73 586.43 29.45 587.84 29.15C590.69 28.55 593.54 27.94 596.4 27.35C597.53 27.11 598.68 26.92 599.82 26.71C600.37 26.61 600.93 26.53 601.49 26.42C601.76 26.36 602.03 26.28 602.31 26.42C602.36 26.45 602.43 26.44 602.49 26.45C603.92 26.65 605.33 26.98 606.7 27.43C608.86 28.17 610.91 29.18 612.81 30.44C615.87 32.46 618.48 34.97 620.73 37.86C622.87 40.63 624.62 43.68 625.94 46.92C626.94 49.34 627.69 51.85 628.19 54.42C628.45 55.78 628.67 57.15 628.76 58.54C628.83 59.54 628.88 60.55 628.93 61.4ZM565.29 59.61L565.33 58.44C565.34 58.15 565.34 57.87 565.37 57.58C565.47 56.53 565.6 55.49 565.82 54.46C566.19 52.77 566.72 51.14 567.53 49.62C568.25 48.25 569.14 47.03 570.3 46C571.38 45.05 572.6 44.36 573.99 44C574.49 43.86 575 43.77 575.52 43.74C575.73 43.73 575.89 43.66 575.91 43.42C575.92 43.34 575.96 43.31 576.03 43.35C576.15 43.41 576.26 43.47 576.36 43.54C578.5 44.79 580.32 46.42 581.94 48.28C583.54 50.14 584.87 52.18 585.97 54.37C586.95 56.29 587.74 58.3 588.34 60.38C588.66 61.48 588.92 62.6 589.15 63.73C589.18 63.92 589.17 63.94 588.99 63.99C588.55 64.12 588.11 64.23 587.68 64.36C586.85 64.61 586.06 64.99 585.35 65.48C584.47 66.09 583.82 66.87 583.46 67.89C583.25 68.51 583.07 69.15 582.87 69.78C582.8 69.99 582.75 70.21 582.66 70.41C582.33 71.2 581.78 71.77 580.94 72.04C580.45 72.19 579.95 72.32 579.44 72.4C578.35 72.57 577.27 72.72 576.18 72.86C575.03 73.01 573.87 73.15 572.73 73.35C572.19 73.45 571.65 73.52 571.15 73.78C571.08 73.81 571 73.81 570.92 73.8C570.37 73.7 569.81 73.6 569.26 73.5C569.09 73.47 568.89 73.48 568.76 73.39C568.64 73.3 568.58 73.1 568.5 72.95C566.93 69.85 565.92 66.5 565.51 63.06C565.38 61.93 565.34 60.8 565.29 59.61ZM551.84 63.65C551.84 62.53 551.89 61.41 552 60.29C552.12 59.15 552.3 58.01 552.54 56.89C553.07 54.41 553.9 52.04 555.13 49.82C555.89 48.44 556.79 47.15 557.87 45.99C557.97 45.87 558.08 45.75 558.21 45.67C558.36 45.58 558.47 45.46 558.59 45.33C559.12 44.73 559.64 44.11 560.39 43.75C560.44 43.73 560.49 43.68 560.54 43.65C562.28 42.42 564.29 41.63 566.39 41.31C566.75 41.26 567.11 41.24 567.47 41.21C567.49 41.21 567.52 41.22 567.55 41.23C567.53 41.25 567.51 41.28 567.49 41.3C567.43 41.33 567.38 41.36 567.32 41.39C566.58 41.78 565.91 42.27 565.27 42.81C564.2 43.73 563.21 44.74 562.31 45.84C561.48 46.83 560.77 47.92 560.19 49.07C559.51 50.45 559.03 51.89 558.66 53.38C558.4 54.44 558.18 55.5 558.12 56.59C558.06 57.83 558.08 59.08 558.19 60.32C558.2 60.38 558.21 60.45 558.22 60.51C558.27 60.71 558.42 60.85 558.57 60.83C558.75 60.81 558.86 60.64 558.83 60.39C558.81 60.17 558.77 59.96 558.77 59.74C558.75 59.03 558.73 58.32 558.73 57.61C558.72 56.84 558.76 56.07 558.89 55.3C559.08 54.17 559.36 53.05 559.7 51.96C560.21 50.35 560.9 48.84 561.86 47.46C562.99 45.85 564.34 44.39 565.85 43.14C566.57 42.53 567.38 42.02 568.24 41.64C568.48 41.53 568.72 41.42 568.95 41.28C569.06 41.22 569.19 41.2 569.31 41.21C569.61 41.24 569.91 41.26 570.2 41.31C571.4 41.49 572.57 41.77 573.7 42.23C574.22 42.44 574.73 42.68 575.24 42.92C575.31 42.95 575.41 43.02 575.41 43.05C575.39 43.17 575.26 43.14 575.18 43.16C575.14 43.16 575.11 43.16 575.08 43.17C574.77 43.21 574.46 43.25 574.15 43.32C572.85 43.61 571.62 44.18 570.55 45C569.29 45.94 568.29 47.12 567.47 48.47C566.66 49.79 566.07 51.21 565.63 52.7C565.06 54.63 564.78 56.6 564.7 58.61C564.64 60.12 564.71 61.64 564.9 63.14C565.06 64.47 565.3 65.78 565.64 67.08C566.32 69.69 567.29 72.17 568.65 74.5C568.97 75.06 569.31 75.6 569.65 76.16C569.71 76.27 569.7 76.33 569.59 76.39C569.48 76.45 569.37 76.51 569.26 76.57C569.12 76.65 569.09 76.65 569 76.51C568.47 75.68 568.02 74.82 567.64 73.92C567.43 73.41 567.5 73.42 566.97 73.52C566.88 73.54 566.79 73.54 566.69 73.56C565.01 73.96 563.51 74.69 562.24 75.89C562.21 75.92 562.17 75.97 562.13 75.98C562.1 75.99 562.03 75.98 562.02 75.96C561.96 75.85 561.9 75.73 561.86 75.62C561.46 74.54 561.05 73.46 560.67 72.38C560.18 70.98 559.78 69.56 559.47 68.11C559.29 67.28 559.17 66.44 559.04 65.6C559.02 65.44 558.98 65.29 558.94 65.14C558.92 65.05 558.84 65.02 558.76 65.02C558.71 65.02 558.66 65.03 558.63 65.06C558.59 65.09 558.57 65.14 558.56 65.18C558.55 65.25 558.55 65.31 558.54 65.37C558.52 66.05 558.57 66.73 558.69 67.4C558.94 68.71 559.27 70.01 559.67 71.29C560.28 73.26 560.99 75.19 561.8 77.09C562.13 77.87 562.47 78.65 562.81 79.43C562.89 79.62 562.97 79.8 563.05 79.99L562.66 80.45C562.65 80.46 562.63 80.48 562.62 80.48C562.58 80.48 562.53 80.48 562.51 80.45C562.45 80.36 562.39 80.27 562.34 80.17C561.99 79.48 561.67 78.78 561.39 78.06C561.35 77.94 561.3 77.83 561.25 77.71C561.24 77.69 561.2 77.67 561.18 77.67C561.16 77.67 561.13 77.7 561.12 77.72C561.05 77.87 560.99 78.01 560.92 78.15C560.76 78.44 560.6 78.73 560.42 79.01C560.16 79.4 559.77 79.64 559.31 79.75C559.1 79.81 558.88 79.84 558.66 79.87C557.77 79.96 556.88 79.96 555.99 79.98C555.82 79.98 555.72 79.91 555.66 79.77C555.46 79.34 555.25 78.92 555.05 78.49C554.03 76.26 553.25 73.92 552.72 71.52C552.48 70.43 552.27 69.33 552.15 68.22C552.06 67.4 551.96 66.59 551.9 65.77C551.86 65.07 551.86 64.36 551.84 63.65ZM577.68 116.33C576.16 116.32 574.82 116.3 573.47 116.13C572.45 116 571.44 115.77 570.46 115.43C570.35 115.39 570.25 115.35 570.16 115.29C570.06 115.24 570.03 115.12 570.05 115C570.06 114.95 570.09 114.9 570.14 114.87C570.18 114.83 570.23 114.81 570.29 114.81C570.36 114.81 570.44 114.82 570.52 114.83C571.66 115.05 572.79 115.28 573.95 115.38C574.61 115.44 575.26 115.51 575.92 115.53C577.24 115.56 578.56 115.55 579.87 115.48C580.94 115.42 582 115.34 583.06 115.24C584.21 115.12 585.36 114.95 586.51 114.8C588.14 114.57 589.76 114.29 591.37 113.95C594.61 113.26 597.79 112.33 600.88 111.15C602.57 110.51 604.22 109.79 605.8 108.91C606.02 108.78 606.24 108.66 606.46 108.53C606.58 108.46 606.72 108.42 606.86 108.42C607.09 108.43 607.23 108.61 607.18 108.84C607.16 108.95 607.1 109.05 607.01 109.11C606.9 109.18 606.8 109.25 606.69 109.31C605.74 109.87 604.76 110.37 603.76 110.82C601.74 111.72 599.66 112.48 597.55 113.14C595.15 113.91 592.7 114.52 590.21 114.98C589.21 115.16 588.21 115.34 587.2 115.51C586.45 115.63 585.68 115.72 584.92 115.81C584.22 115.9 583.52 115.97 582.82 116.04C581.85 116.12 580.88 116.22 579.91 116.27C579.11 116.32 578.31 116.32 577.68 116.33ZM539.71 114.87C539.59 114.84 539.5 114.82 539.41 114.8C538.24 114.5 537.09 114.14 535.96 113.71C532.42 112.37 529.01 110.75 525.68 108.94C524.53 108.32 523.4 107.67 522.33 106.92C522.18 106.82 522.03 106.7 521.88 106.59C521.83 106.55 521.78 106.51 521.74 106.46C521.61 106.33 521.59 106.12 521.68 105.98C521.77 105.85 521.97 105.8 522.14 105.89C522.24 105.94 522.33 106.01 522.42 106.07C523.09 106.56 523.8 107.01 524.51 107.43C527.23 109.01 530.04 110.4 532.91 111.67C534.62 112.43 536.37 113.08 538.12 113.73C538.63 113.92 539.15 114.11 539.66 114.31C539.76 114.34 539.85 114.41 539.93 114.48C540 114.54 540 114.67 539.93 114.74C539.86 114.8 539.77 114.83 539.71 114.87ZM544.04 83.81C543.66 83.82 543.13 83.84 542.59 83.85C542.45 83.85 542.31 83.84 542.18 83.82C542.09 83.81 542.06 83.64 542.13 83.58C542.18 83.54 542.23 83.51 542.29 83.49C542.53 83.4 542.78 83.38 543.03 83.38C544.38 83.35 545.73 83.39 547.07 83.5C547.49 83.53 547.91 83.59 548.33 83.64C548.78 83.7 549.23 83.79 549.68 83.83C550.09 83.86 550.5 83.87 550.9 83.82C551.7 83.72 552.47 83.49 553.18 83.12C553.59 82.92 553.96 82.65 554.35 82.42C554.65 82.24 554.94 82.06 555.24 81.89C555.35 81.82 555.42 81.86 555.5 82.01C555.58 82.15 555.57 82.2 555.45 82.28C555.11 82.48 554.77 82.68 554.45 82.9C553.58 83.5 552.61 83.93 551.58 84.15C551.17 84.25 550.75 84.3 550.32 84.31C549.87 84.31 549.42 84.27 548.97 84.18C547.96 84.01 546.95 83.94 545.93 83.87C545.35 83.82 544.77 83.83 544.04 83.81ZM577.46 90.95C576.77 90.97 576 90.87 575.25 90.73C574.79 90.64 574.34 90.51 573.88 90.39C573.76 90.35 573.73 90.29 573.75 90.18C573.77 90.07 573.8 89.97 573.83 89.86C573.88 89.63 573.9 89.62 574.1 89.68C575.05 89.96 576.02 90.13 577.01 90.22C578.14 90.32 579.27 90.22 580.37 89.93C581.17 89.71 581.93 89.36 582.64 88.92C582.76 88.84 582.88 88.78 583.01 88.73C583.03 88.72 583.08 88.73 583.09 88.75C583.1 88.77 583.1 88.82 583.08 88.83C582.72 89.16 582.37 89.49 581.99 89.8C581.62 90.1 581.24 90.37 580.86 90.64C580.76 90.71 580.67 90.77 580.59 90.62C580.57 90.58 580.48 90.57 580.42 90.57C580.36 90.57 580.3 90.59 580.24 90.61C579.35 90.84 578.45 90.96 577.46 90.95ZM577.78 94.85C577.74 94.82 577.66 94.79 577.65 94.76C577.65 94.7 577.69 94.64 577.72 94.59C577.73 94.57 577.77 94.56 577.8 94.55C577.86 94.52 577.92 94.5 577.98 94.49C579.45 94.07 580.8 93.36 582.09 92.55C583.42 91.7 584.6 90.67 585.67 89.51C585.98 89.18 585.92 89.16 586.44 89.34C586.45 89.35 586.46 89.36 586.48 89.36C586.54 89.39 586.56 89.47 586.52 89.52C586.42 89.64 586.32 89.76 586.21 89.88C585.73 90.41 585.21 90.91 584.66 91.39C582.93 92.87 580.99 93.96 578.8 94.59C578.47 94.68 578.13 94.76 577.78 94.85ZM573.51 110.53L573.51 110.56C572.82 110.52 572.13 110.49 571.45 110.45C570.8 110.42 570.16 110.38 569.52 110.34C569.32 110.32 569.12 110.28 568.92 110.22C568.77 110.18 568.66 110.03 568.68 109.91C568.69 109.85 568.71 109.79 568.76 109.74C568.8 109.69 568.86 109.66 568.92 109.65C569.07 109.61 569.23 109.58 569.38 109.58C569.79 109.58 570.19 109.59 570.6 109.61C571.51 109.66 572.42 109.72 573.32 109.76C573.94 109.78 574.55 109.77 575.16 109.78C575.25 109.78 575.35 109.78 575.44 109.8C575.5 109.82 575.55 109.85 575.6 109.9C575.64 109.94 575.67 110 575.69 110.06C575.7 110.12 575.7 110.19 575.68 110.25C575.66 110.31 575.63 110.36 575.59 110.41C575.52 110.47 575.43 110.52 575.34 110.53C575.13 110.56 574.91 110.58 574.69 110.58C574.3 110.57 573.9 110.55 573.51 110.53ZM568.65 82.05C568.69 82.09 568.76 82.13 568.8 82.18C568.83 82.22 568.83 82.26 568.83 82.3C568.82 82.34 568.8 82.37 568.77 82.4C568.65 82.48 568.53 82.55 568.4 82.6C568.2 82.68 567.99 82.74 567.78 82.81C566.69 83.15 565.74 83.82 565.05 84.73C564.76 85.1 564.49 85.49 564.24 85.89C563.91 86.4 563.6 86.94 563.28 87.45C562.73 88.32 562.01 89.01 561.21 89.63C561.1 89.72 560.97 89.78 560.85 89.85C560.8 89.88 560.73 89.89 560.67 89.89C560.62 89.89 560.55 89.85 560.52 89.81C560.5 89.76 560.5 89.67 560.53 89.64C560.62 89.53 560.73 89.44 560.84 89.35C561.81 88.62 562.64 87.74 563.24 86.67C563.34 86.49 563.44 86.31 563.55 86.14C563.84 85.69 564.12 85.23 564.43 84.8C565.24 83.64 566.29 82.81 567.64 82.38C567.92 82.29 568.2 82.18 568.48 82.09C568.53 82.07 568.57 82.07 568.65 82.05ZM527.88 86.13L527.98 86.13C528.06 86.14 528.13 86.18 528.15 86.26C528.17 86.3 528.17 86.35 528.15 86.39C528.13 86.44 528.1 86.47 528.06 86.5C528.01 86.53 527.95 86.56 527.89 86.57C526.9 86.82 525.94 87.17 525 87.55C522.8 88.42 520.83 89.64 519.25 91.44C519.21 91.49 519.17 91.53 519.12 91.57C519.06 91.63 518.98 91.65 518.91 91.6C518.89 91.59 518.87 91.57 518.86 91.56C518.85 91.54 518.84 91.52 518.84 91.5C518.83 91.49 518.83 91.47 518.84 91.45C518.84 91.43 518.85 91.41 518.86 91.39C519 91.16 519.13 90.93 519.3 90.73C519.51 90.48 519.75 90.24 520 90.03C521.4 88.86 522.92 87.87 524.64 87.21C525.43 86.91 526.23 86.63 527.02 86.35C527.23 86.28 527.44 86.23 527.66 86.17C527.75 86.15 527.84 86.13 527.88 86.13ZM554.03 92.94C554.05 92.91 554.06 92.82 554.11 92.78C554.28 92.65 554.44 92.54 554.62 92.44C555.5 91.96 556.41 91.55 557.2 90.92C557.26 90.87 557.33 90.84 557.41 90.83C557.49 90.81 557.57 90.85 557.61 90.92C557.63 90.98 557.63 91.04 557.6 91.1C557.57 91.17 557.52 91.23 557.46 91.28C557.22 91.46 556.99 91.65 556.73 91.79C555.98 92.21 555.22 92.61 554.46 93.02C554.38 93.06 554.29 93.09 554.2 93.11C554.14 93.13 554.04 93.05 554.03 92.94ZM558.94 81.64C558.65 81.67 558.24 81.71 557.84 81.75C557.56 81.78 557.28 81.82 557.01 81.86C556.88 81.88 556.79 81.84 556.73 81.73C556.71 81.67 556.67 81.62 556.65 81.56C556.64 81.54 556.66 81.5 556.68 81.49C556.74 81.46 556.8 81.44 556.86 81.43C557.35 81.36 557.84 81.28 558.34 81.23C558.7 81.21 559.06 81.2 559.42 81.21C559.57 81.21 559.72 81.26 559.87 81.3C559.92 81.31 559.96 81.33 559.99 81.37C560.02 81.42 560.05 81.49 560.04 81.54C560.03 81.57 560.02 81.59 560 81.62C559.98 81.64 559.96 81.66 559.93 81.67C559.86 81.69 559.78 81.7 559.7 81.69C559.49 81.68 559.27 81.66 558.94 81.64ZM578.86 75.64C578.88 75.61 578.88 75.57 578.9 75.56C578.92 75.56 578.95 75.58 578.98 75.58L578.93 75.68L578.86 75.64Z" fill="#000000" fill-opacity="1.000000" fill-rule="nonzero"/>
		<path d="M597.8 63.42C597.45 63.39 597.17 63.37 596.89 63.35C596.75 63.34 596.69 63.4 596.7 63.55C596.74 64.01 596.79 64.46 596.84 64.91C596.89 65.35 596.94 65.79 596.98 66.23C597.09 67.61 597.12 69 597.11 70.39C597.1 71.25 597.05 72.12 596.98 72.98C596.86 74.33 596.67 75.67 596.4 77C595.91 79.53 595.18 81.99 594.32 84.41C593.78 85.91 593.1 87.35 592.22 88.68C592.11 88.86 592.1 88.99 592.22 89.15C592.23 89.16 592.24 89.18 592.25 89.19C592.33 89.32 592.37 89.34 592.52 89.31C592.87 89.24 593.23 89.17 593.58 89.11C593.98 89.04 594.37 89.11 594.73 89.29C594.97 89.4 595.2 89.53 595.43 89.67C595.9 89.96 596.4 90 596.92 89.86C597.69 89.66 598.41 89.37 599.15 89.09C600.7 88.49 602.24 87.87 603.79 87.26C605.23 86.69 606.71 86.22 608.18 85.71C609.78 85.15 611.38 84.6 613 84.1C613.99 83.8 614.98 83.49 615.96 83.16C616.53 82.97 617.08 82.75 617.63 82.53C617.9 82.42 618.15 82.28 618.41 82.19C619.09 81.96 619.67 81.56 620.22 81.11C620.99 80.5 621.65 79.78 622.26 79.02C622.56 78.66 622.87 78.3 623.19 77.95C623.39 77.73 623.57 77.49 623.7 77.22C624.67 75.28 625.56 73.3 626.25 71.23C626.74 69.76 627.09 68.26 627.35 66.74C627.67 64.82 627.76 62.89 627.73 60.95C627.7 59.84 627.63 58.74 627.49 57.65C627.25 55.64 626.85 53.66 626.29 51.73C625.08 47.5 623.24 43.57 620.73 39.95C619.27 37.84 617.57 35.91 615.67 34.18C614.02 32.7 612.2 31.42 610.23 30.38C609.51 30 608.8 29.62 608.03 29.33C607.43 29.1 606.82 28.88 606.19 28.76C606 28.72 605.81 28.72 605.63 28.66C605.16 28.51 604.7 28.56 604.25 28.72C604.02 28.8 603.8 28.82 603.56 28.79C603.46 28.78 603.37 28.78 603.28 28.77C600.83 28.59 598.7 29.33 596.86 30.95C595.73 31.95 594.86 33.17 594.17 34.5C593.44 35.89 592.93 37.36 592.57 38.89C592.4 39.62 592.28 40.37 592.13 41.11C592.08 41.31 592.11 41.52 592.2 41.71C592.28 41.89 592.38 42.07 592.47 42.25C592.48 42.26 592.54 42.26 592.54 42.25C592.56 42.21 592.57 42.16 592.58 42.12C592.72 41.1 592.89 40.09 593.14 39.1C593.52 37.55 594.06 36.06 594.83 34.66C595.39 33.64 596.06 32.71 596.89 31.91C597.93 30.91 599.13 30.19 600.53 29.82C601.16 29.65 601.82 29.56 602.48 29.56C602.51 29.56 602.54 29.57 602.57 29.58C602.56 29.62 602.55 29.67 602.52 29.69C602.46 29.76 602.38 29.81 602.31 29.88C602.14 30.04 601.97 30.2 601.81 30.37C601.57 30.63 601.4 30.92 601.22 31.22C600.59 32.35 600.31 33.56 600.29 34.84C600.28 35.91 600.45 36.95 600.73 37.97C601.06 39.2 601.53 40.39 602.04 41.56C602.89 43.51 603.81 45.42 604.82 47.29C606.24 49.96 607.69 52.62 609.12 55.28C609.37 55.75 609.6 56.23 609.74 56.75C609.78 56.92 609.8 57.09 609.81 57.27C609.83 57.39 609.81 57.52 609.76 57.64C609.71 57.76 609.64 57.86 609.55 57.95C609.43 58.05 609.31 58.15 609.19 58.25C608.94 58.42 608.69 58.59 608.45 58.75C606.75 59.91 605.42 61.39 604.52 63.25C604.47 63.37 604.41 63.48 604.35 63.59C604.14 64.04 604.24 64.03 603.64 63.95C602.93 63.86 602.21 63.77 601.49 63.7C600.73 63.62 599.96 63.57 599.2 63.5C599 63.49 598.97 63.46 598.93 63.25C598.89 62.97 598.84 62.69 598.81 62.41C598.6 60.89 598.3 59.39 597.91 57.92C597.11 54.81 595.98 51.82 594.47 48.99C592.65 45.59 590.38 42.53 587.55 39.9C584.85 37.4 581.8 35.44 578.34 34.16C577.76 33.95 577.18 33.77 576.6 33.58C576.51 33.56 576.41 33.54 576.32 33.55C576.21 33.55 576.11 33.64 576.09 33.74C576.06 33.86 576.07 33.98 576.17 34.04C576.27 34.11 576.39 34.16 576.51 34.2C577.03 34.37 577.55 34.53 578.07 34.72C580.59 35.65 582.91 36.96 585.04 38.59C587.88 40.77 590.23 43.39 592.2 46.38C594.34 49.63 595.91 53.16 597 56.91C597.49 58.61 597.87 60.35 598.14 62.11C598.19 62.47 598.25 62.83 598.3 63.19C598.33 63.37 598.28 63.42 598.11 63.42L597.8 63.42ZM627.11 60.41L627.13 60.41C627.13 60.82 627.13 61.23 627.13 61.64C627.13 61.68 627.11 61.73 627.1 61.77C627.04 61.75 626.97 61.75 626.93 61.71C626.75 61.58 626.59 61.43 626.41 61.3C626.33 61.24 626.24 61.12 626.14 61.19C626.08 61.23 626.09 61.37 626.09 61.46C626.12 62.82 625.96 64.16 625.74 65.5C625.63 66.23 625.52 66.96 625.52 67.71C625.52 68.18 625.47 68.65 625.42 69.12C625.3 70.34 625.08 71.55 624.82 72.75C624.71 73.3 624.42 73.74 624.1 74.16C624.08 74.2 624.01 74.17 623.99 74.13C623.98 74.08 623.96 74.04 623.95 74C623.81 73.51 623.68 73.02 623.55 72.54C623.53 72.48 623.51 72.42 623.48 72.37C623.4 72.21 623.32 72.06 623.25 71.91C622.85 71.06 622.34 70.28 621.64 69.66C620.52 68.66 619.21 68.32 617.75 68.59C617.41 68.66 617.09 68.81 616.75 68.86C616.49 68.91 616.28 69.02 616.08 69.17C615.9 69.3 615.72 69.42 615.54 69.55C614.57 70.23 613.75 71.09 613.09 72.08C612.41 73.09 611.91 74.19 611.52 75.34C611.14 76.41 610.84 77.51 610.56 78.6C610.32 79.53 610.07 80.46 609.82 81.39C609.69 81.83 609.53 82.25 609.33 82.66C609.04 83.24 608.59 83.64 607.99 83.85C607.67 83.95 607.36 84.05 607.04 84.14C605.14 84.67 603.21 85.1 601.29 85.55C601 85.62 600.7 85.68 600.41 85.74C600.34 85.75 600.29 85.69 600.31 85.63C600.33 85.6 600.34 85.57 600.35 85.55C600.77 84.82 601.07 84.04 601.35 83.25C601.98 81.52 602.48 79.75 602.93 77.96C603.26 76.66 603.51 75.35 603.64 74.01C603.69 73.61 603.65 73.2 603.77 72.79C603.78 72.7 603.78 72.61 603.76 72.51C603.7 72.06 603.66 71.6 603.55 71.16C603.38 70.46 603.33 69.77 603.48 69.06C603.5 68.97 603.5 68.87 603.51 68.78C603.54 68.45 603.56 68.12 603.6 67.79C603.62 67.65 603.64 67.49 603.71 67.38C603.88 67.14 603.92 66.86 603.97 66.58C604.05 66.04 604.21 65.51 604.42 65C604.63 64.52 604.84 64.05 605.06 63.58C605.79 62.02 606.86 60.74 608.21 59.69C608.54 59.43 608.91 59.21 609.25 58.96C609.49 58.78 609.74 58.61 609.95 58.41C610.36 58.03 610.51 57.55 610.42 56.99C610.37 56.68 610.28 56.37 610.17 56.08C609.92 55.43 609.59 54.83 609.26 54.22C608.2 52.27 607.13 50.32 606.08 48.36C604.92 46.2 603.81 44.01 602.81 41.77C602.3 40.66 601.87 39.53 601.49 38.38C601.08 37.07 600.85 35.75 600.94 34.38C600.97 33.72 601.11 33.06 601.34 32.44C601.8 31.21 602.59 30.26 603.78 29.69C604.51 29.35 605.26 29.18 606.07 29.36C606.57 29.47 607.06 29.63 607.55 29.81C608.28 30.07 608.96 30.42 609.65 30.75C610.98 31.41 612.25 32.16 613.41 33.08C613.78 33.38 614.14 33.68 614.5 33.98C616.36 35.56 618.04 37.34 619.5 39.3C621.92 42.54 623.77 46.09 625.08 49.92C625.72 51.76 626.21 53.66 626.55 55.58C626.71 56.48 626.83 57.38 626.94 58.29C627.02 58.99 627.05 59.7 627.11 60.41Z" fill="#000000" fill-opacity="1.000000" fill-rule="nonzero"/>
		<path d="M596.05 69.38C596 68.54 595.96 67.54 595.89 66.53C595.83 65.73 595.76 64.93 595.66 64.13C595.63 63.77 595.55 63.42 595.48 63.06C595.34 62.28 595.2 61.48 595.04 60.7C594.5 58.14 593.71 55.64 592.67 53.24C591.58 50.67 590.2 48.24 588.56 45.98C586.45 43.1 583.97 40.6 581.04 38.56C579.45 37.46 577.75 36.53 575.96 35.79C575.83 35.74 575.69 35.7 575.55 35.69C575.42 35.67 575.3 35.77 575.27 35.89C575.26 35.94 575.26 36 575.28 36.05C575.29 36.11 575.33 36.15 575.38 36.18C575.48 36.25 575.59 36.31 575.7 36.36C577.07 36.9 578.35 37.58 579.59 38.36C580.99 39.24 582.31 40.23 583.54 41.34C586.26 43.78 588.47 46.62 590.27 49.8C592.15 53.12 593.48 56.66 594.33 60.39C594.52 61.19 594.65 61.99 594.81 62.8C594.82 62.86 594.83 62.92 594.83 62.98C594.87 63.3 594.86 63.31 594.56 63.32C594.32 63.33 594.09 63.33 593.85 63.34C593.67 63.35 593.63 63.41 593.66 63.58C593.75 64.17 593.85 64.76 593.92 65.36C594.02 66.12 594.1 66.89 594.18 67.66C594.31 68.99 594.29 70.33 594.25 71.67C594.22 72.82 594.15 73.97 594.01 75.11C593.54 78.98 592.36 82.74 590.52 86.17C589.98 87.2 589.39 88.21 588.82 89.23C588.79 89.28 588.76 89.34 588.73 89.39C588.64 89.53 588.55 89.68 588.47 89.83C588.62 89.96 588.82 89.9 588.99 89.91C589.13 89.92 589.28 89.9 589.42 89.91C589.7 89.94 589.89 89.81 590.07 89.62C590.79 88.85 591.41 87.99 591.92 87.06C592.49 86.01 592.97 84.91 593.37 83.78C593.94 82.16 594.46 80.53 594.87 78.86C595.24 77.3 595.55 75.72 595.75 74.13C595.87 73.14 595.96 72.15 595.98 71.16C595.99 70.62 596.02 70.09 596.05 69.38ZM591.8 43.75C591.83 43.93 591.85 44.12 591.89 44.3C591.91 44.38 591.94 44.45 591.99 44.51C592.08 44.63 592.28 44.62 592.35 44.49C592.41 44.38 592.46 44.25 592.46 44.14C592.45 43.89 592.42 43.64 592.38 43.39C592.36 43.28 592.28 43.2 592.16 43.17C591.97 43.12 591.8 43.22 591.8 43.42C591.79 43.52 591.81 43.63 591.81 43.74L591.8 43.75ZM558.12 62.86C558.15 63.16 558.18 63.46 558.21 63.75C558.22 63.83 558.26 63.9 558.3 63.97C558.36 64.07 558.46 64.11 558.58 64.09C558.68 64.08 558.76 64.02 558.79 63.93C558.82 63.84 558.83 63.75 558.83 63.66C558.81 63.39 558.78 63.13 558.74 62.87C558.72 62.75 558.69 62.63 558.64 62.51C558.59 62.41 558.51 62.33 558.39 62.34C558.28 62.34 558.2 62.42 558.17 62.55C558.15 62.59 558.14 62.64 558.14 62.68C558.13 62.74 558.12 62.81 558.12 62.86ZM125.11 120.65C123.61 120.61 122.11 120.59 120.6 120.53C119.52 120.49 118.44 120.43 117.36 120.35C116.31 120.27 115.26 120.18 114.22 120.06C112.24 119.85 110.27 119.58 108.3 119.25C104.51 118.61 100.77 117.74 97.13 116.49C95.19 115.83 93.31 115.06 91.49 114.11C90.18 113.43 88.92 112.67 87.75 111.76C86.73 110.96 85.8 110.07 85.05 109C84.56 108.31 84.18 107.54 83.95 106.72C83.59 105.48 83.67 104.26 84.12 103.06C84.49 102.08 85.06 101.24 85.75 100.48C86.4 99.77 87.12 99.13 87.9 98.57C89.36 97.52 90.94 96.68 92.58 95.96C93.56 95.54 94.56 95.15 95.57 94.81C95.88 94.7 96.19 94.59 96.49 94.47C97.58 94.04 98.71 93.77 99.84 93.52C100.8 93.31 101.77 93.08 102.74 92.89C103.89 92.66 105.05 92.45 106.21 92.27C107.23 92.1 108.26 91.97 109.28 91.82C109.59 91.78 109.9 91.75 110.21 91.71C110.28 91.71 110.34 91.7 110.4 91.7C110.75 91.71 110.96 91.94 110.92 92.29C110.91 92.35 110.89 92.41 110.87 92.47C110.84 92.54 110.9 92.56 110.93 92.56C111.15 92.55 111.37 92.54 111.59 92.52C111.64 92.52 111.68 92.49 111.71 92.46C111.77 92.38 111.68 92.35 111.64 92.32C111.19 91.92 110.74 91.53 110.3 91.13C110.22 91.06 110.16 91.06 110.11 91.14C110 91.32 109.84 91.34 109.65 91.3C109.58 91.29 109.5 91.26 109.43 91.24C108.84 91.09 108.25 91.08 107.66 91.27C107.31 91.38 106.96 91.34 106.61 91.21C106.15 91.04 105.68 90.91 105.22 90.77C105.09 90.73 104.98 90.76 104.86 90.81C104.64 90.91 104.42 90.99 104.2 91.05C103.74 91.18 103.29 91.07 102.85 90.98C102.59 90.93 102.33 90.86 102.07 90.8C101.95 90.78 101.87 90.81 101.77 90.89C101.44 91.13 101.11 91.36 100.76 91.58C100.24 91.91 99.67 91.96 99.08 91.84C98.33 91.68 97.6 91.44 96.9 91.12C95.91 90.67 94.88 90.34 93.85 90.01C93.51 89.89 93.17 89.78 92.83 89.64C91.63 89.15 90.39 88.75 89.16 88.31C88.02 87.91 86.89 87.49 85.75 87.08C84.75 86.73 83.74 86.4 82.73 86.03C80.97 85.39 79.17 84.82 77.42 84.13C77.26 84.07 77.1 84.01 76.94 83.94C76.82 83.89 76.7 83.83 76.65 83.71C76.58 83.55 76.45 83.47 76.33 83.38C74.37 81.92 72.73 80.15 71.36 78.12C70.24 76.44 69.32 74.64 68.63 72.74C67.95 70.89 67.45 68.98 67.14 67.04C66.99 66.06 66.88 65.07 66.81 64.08C66.7 62.68 66.71 61.28 66.76 59.88C66.79 58.95 66.89 58.02 67 57.1C67.22 55.23 67.58 53.4 68.06 51.59C68.97 48.22 70.3 44.98 72.03 41.96C73.23 39.85 74.63 37.86 76.21 36.02C78.86 32.94 81.93 30.37 85.53 28.47C87.74 27.29 90.11 26.46 92.56 25.99C92.95 25.91 93.34 25.86 93.73 25.81C93.79 25.8 93.85 25.78 93.91 25.79C94.36 25.88 94.82 25.82 95.27 25.9C95.7 25.97 96.14 26.04 96.57 26.11C98.47 26.42 100.36 26.82 102.25 27.2C103.62 27.48 104.98 27.79 106.34 28.08C107.92 28.41 109.51 28.74 111.08 29.07C112.42 29.35 113.75 29.64 115.08 29.94C116.6 30.27 118.11 30.64 119.62 30.97C120.32 31.12 120.96 31.41 121.6 31.7C121.9 31.84 122.17 32.04 122.41 32.27C122.93 32.76 123.38 33.3 123.66 33.96C123.72 34.11 123.81 34.17 123.97 34.2C124.45 34.28 124.93 34.36 125.4 34.49C126.83 34.89 128.04 35.64 128.95 36.84C129.06 36.98 129.17 37.11 129.24 37.27C129.35 37.54 129.55 37.69 129.8 37.81C130.35 38.08 130.89 38.36 131.44 38.64C131.55 38.69 131.66 38.75 131.77 38.81C131.85 38.85 131.95 38.89 132 38.96C132.17 39.2 132.43 39.28 132.67 39.38C133.36 39.66 134.02 39.98 134.65 40.37C135.28 40.76 135.94 41.1 136.52 41.55C136.64 41.65 136.78 41.74 136.89 41.85C138.27 43.16 139.59 44.53 140.65 46.13C141.68 47.67 142.54 49.33 143.22 51.06C144.01 53.1 144.59 55.22 144.93 57.38C145.12 58.51 145.24 59.63 145.33 60.76C145.44 62.31 145.44 63.85 145.36 65.39C145.3 66.71 145.16 68.03 144.95 69.34C144.45 72.59 143.55 75.78 142.27 78.81C142.1 79.22 141.91 79.62 141.74 80.02C141.71 80.09 141.73 80.15 141.8 80.18C141.85 80.21 141.91 80.23 141.97 80.25C142.39 80.39 142.76 80.63 143.12 80.88C143.26 80.99 143.39 81.1 143.47 81.26C143.62 81.54 143.86 81.71 144.14 81.83C144.57 82.04 145.02 82.18 145.49 82.23C146.33 82.31 147.18 82.36 148.02 82.28C148.09 82.28 148.15 82.27 148.21 82.27C149.33 82.21 150.44 82.13 151.55 82.09C152.25 82.07 152.96 82.1 153.67 82.11C153.79 82.12 153.92 82.13 154.04 82.13C154.89 82.15 155.73 82.22 156.58 82.31C157.31 82.39 158.05 82.45 158.78 82.54C159.43 82.62 160.08 82.72 160.73 82.84C161.86 83.04 162.98 83.26 164.1 83.48C167.17 84.08 170.15 85.06 172.98 86.4C174.27 87.02 175.47 87.8 176.63 88.64C177.06 88.94 177.41 89.33 177.73 89.74C178.43 90.65 179.1 91.58 179.67 92.58C180.33 93.76 180.78 95.02 180.96 96.36C181.1 97.46 181.06 98.56 180.76 99.64C180.54 100.45 180.32 101.26 180.05 102.04C179.44 103.74 178.54 105.26 177.26 106.54C175.99 107.83 174.57 108.96 173.08 109.98C170.93 111.44 168.64 112.66 166.28 113.73C162.41 115.49 158.39 116.81 154.27 117.83C151.06 118.62 147.8 119.23 144.52 119.63C143.29 119.78 142.06 119.91 140.83 120.01C139.84 120.09 138.85 120.15 137.87 120.21C136.94 120.26 136.02 120.29 135.09 120.28C134.07 120.28 133.05 120.32 132.03 120.39C130.53 120.5 129.03 120.56 127.52 120.58C126.72 120.6 125.92 120.63 125.11 120.65ZM142.29 50.64L142.3 50.73C142.3 50.75 142.31 50.76 142.31 50.78C142.32 50.75 142.35 50.73 142.34 50.71C142.33 50.69 142.3 50.67 142.28 50.65C142.27 50.58 142.28 50.49 142.18 50.46C142.16 50.37 142.16 50.28 142.12 50.19C141.96 49.83 141.8 49.48 141.62 49.12C140.72 47.33 139.62 45.66 138.26 44.18C138.09 44 137.93 43.8 137.7 43.69C137.62 43.65 137.56 43.56 137.5 43.49C137.21 43.18 136.93 42.86 136.64 42.55C136.38 42.27 136.08 42.04 135.75 41.85C135.57 41.73 135.38 41.62 135.2 41.5C133.06 40.05 130.72 39.17 128.15 38.95C126.8 38.82 125.44 38.89 124.11 39.14C122.01 39.53 120.05 40.3 118.2 41.38C115.93 42.71 113.97 44.42 112.23 46.39C110.59 48.24 109.22 50.27 108.06 52.44C106.25 55.81 105.01 59.39 104.26 63.13C104.24 63.21 104.23 63.29 104.23 63.37C104.23 63.43 104.26 63.49 104.34 63.5C104.62 63.54 104.9 63.57 105.18 63.61C105.35 63.64 105.38 63.68 105.37 63.87C105.32 64.45 105.27 65.03 105.22 65.61C105.19 65.89 105.14 66.17 105.1 66.45C104.99 67.13 104.92 67.82 104.88 68.52C104.84 69.54 104.84 70.56 104.88 71.59C104.89 71.89 104.9 72.19 104.92 72.49C104.96 73.07 105.02 73.65 105.07 74.23C105.12 75.03 105.2 75.83 105.36 76.62C105.41 76.88 105.5 77.13 105.57 77.39C105.62 77.52 105.68 77.65 105.72 77.79C106.04 78.81 106.39 79.82 106.78 80.82C107.17 81.8 107.55 82.78 108.04 83.72C108.7 84.96 109.44 86.15 110.27 87.28C112.1 89.81 114.44 91.71 117.33 92.91C117.65 93.04 117.98 93.15 118.3 93.26C118.39 93.29 118.48 93.31 118.58 93.32C118.67 93.33 118.82 93.19 118.82 93.07C118.82 92.98 118.74 92.95 118.66 92.93C118.57 92.9 118.48 92.87 118.4 92.83C117.17 92.38 116 91.83 114.92 91.08C113.02 89.79 111.47 88.15 110.19 86.25C108.77 84.15 107.76 81.85 107.05 79.41C106.6 77.86 106.28 76.26 106.09 74.65C105.82 72.56 105.76 70.44 105.89 68.33C106.04 65.91 106.42 63.51 107.04 61.16C107.93 57.77 109.26 54.57 111.11 51.59C112.69 49.05 114.59 46.77 116.91 44.86C118.44 43.61 120.1 42.58 121.92 41.81C123.73 41.04 125.67 40.62 127.63 40.55C128.48 40.54 129.33 40.6 130.16 40.74C131.82 41.01 133.38 41.56 134.84 42.39C135.32 42.67 135.79 42.95 136.26 43.24C136.66 43.49 137.04 43.76 137.38 44.1C137.72 44.45 138.07 44.79 138.41 45.13C138.95 45.69 139.46 46.27 139.93 46.88C140.69 47.88 141.37 48.95 141.95 50.07C142.02 50.2 142.05 50.36 142.19 50.45C142.2 50.53 142.19 50.61 142.29 50.64ZM67.31 61.41C67.34 62.19 67.37 62.82 67.39 63.45C67.42 64.31 67.51 65.18 67.62 66.04C67.75 67.04 67.93 68.03 68.16 69.01C68.77 71.57 69.67 74.01 70.97 76.3C72.51 78.98 74.49 81.28 77.01 83.09C77.1 83.15 77.19 83.22 77.26 83.3C77.35 83.43 77.47 83.49 77.6 83.54C78.08 83.72 78.57 83.91 79.05 84.08C80.28 84.52 81.51 84.94 82.74 85.37C83.84 85.75 84.93 86.13 86.03 86.52C87.24 86.95 88.45 87.39 89.66 87.83C90.64 88.19 91.63 88.54 92.62 88.89C93.15 89.08 93.68 89.29 94.22 89.47C95.21 89.8 96.21 90.13 97.17 90.56C97.76 90.83 98.37 91.04 98.99 91.19C99.58 91.33 100.14 91.3 100.66 90.93C100.88 90.76 101.13 90.63 101.37 90.48C101.44 90.43 101.51 90.39 101.56 90.33C101.6 90.28 101.66 90.23 101.72 90.21C101.79 90.18 101.86 90.17 101.93 90.18C102.1 90.2 102.28 90.21 102.44 90.24C102.69 90.29 102.93 90.37 103.17 90.42C103.68 90.53 104.17 90.52 104.63 90.23C104.67 90.21 104.71 90.19 104.75 90.17C104.83 90.13 104.92 90.11 105 90.1C105.09 90.09 105.18 90.1 105.26 90.13C105.83 90.31 106.38 90.52 106.98 90.59C107.22 90.75 107.46 90.68 107.7 90.62C108.07 90.52 108.44 90.45 108.82 90.5C109.07 90.54 109.31 90.59 109.56 90.64C109.61 90.65 109.65 90.65 109.7 90.65C109.71 90.65 109.73 90.64 109.74 90.63C109.75 90.62 109.74 90.6 109.73 90.59C109.68 90.51 109.61 90.44 109.55 90.37C109.15 89.89 108.73 89.42 108.35 88.92C106.75 86.84 105.57 84.54 104.7 82.07C103.88 79.75 103.34 77.34 103.08 74.9C102.91 73.36 102.82 71.82 102.84 70.28C102.84 69.91 102.87 69.55 102.88 69.19C102.91 67.77 103.07 66.36 103.27 64.96C103.58 62.84 104.06 60.75 104.7 58.7C105.84 55.12 107.43 51.76 109.59 48.68C111.15 46.45 112.95 44.44 115.07 42.73C116.99 41.19 119.08 39.97 121.4 39.16C122.71 38.7 124.05 38.38 125.44 38.28C126.74 38.18 128.04 38.18 129.33 38.43C129.38 38.43 129.42 38.43 129.47 38.43C129.48 38.43 129.5 38.42 129.51 38.41C129.51 38.4 129.5 38.38 129.49 38.38C129.4 38.32 129.31 38.25 129.22 38.2C129.02 38.08 128.85 37.9 128.74 37.69C128.5 37.18 128.13 36.77 127.71 36.41C126.97 35.75 126.07 35.29 125.11 35.05C124.85 34.99 124.59 34.92 124.33 34.88C124.02 34.85 123.72 34.73 123.4 34.84C123.24 34.9 123.08 34.76 123.07 34.59C123.06 34.55 123.06 34.5 123.07 34.45C123.13 34.27 123.05 34.12 122.97 33.96C122.72 33.46 122.34 33.06 121.94 32.68C121.73 32.49 121.49 32.33 121.23 32.21C120.62 31.93 119.98 31.71 119.33 31.55C118.28 31.29 117.22 31.06 116.17 30.82C114.99 30.55 113.81 30.28 112.63 30.03C111.22 29.73 109.81 29.45 108.4 29.16C105.54 28.56 102.69 27.94 99.84 27.35C98.7 27.11 97.56 26.92 96.42 26.71C95.86 26.61 95.3 26.53 94.75 26.42C94.47 26.36 94.2 26.28 93.93 26.42C93.87 26.45 93.8 26.44 93.74 26.45C92.31 26.65 90.91 26.97 89.53 27.44C87.38 28.17 85.32 29.18 83.42 30.45C80.36 32.46 77.76 34.97 75.51 37.87C73.37 40.63 71.61 43.68 70.29 46.92C69.3 49.34 68.54 51.85 68.05 54.42C67.78 55.78 67.57 57.15 67.48 58.54C67.41 59.54 67.36 60.55 67.31 61.41ZM130.95 59.61L130.9 58.44C130.89 58.15 130.89 57.87 130.86 57.59C130.76 56.54 130.63 55.49 130.41 54.46C130.05 52.77 129.51 51.14 128.71 49.62C127.99 48.25 127.09 47.03 125.93 46C124.86 45.05 123.64 44.36 122.25 44C121.75 43.86 121.23 43.78 120.72 43.74C120.51 43.73 120.35 43.66 120.32 43.42C120.31 43.34 120.27 43.31 120.2 43.35C120.09 43.41 119.98 43.47 119.87 43.54C117.74 44.79 115.91 46.42 114.3 48.29C112.69 50.14 111.37 52.18 110.26 54.37C109.29 56.29 108.5 58.31 107.9 60.38C107.58 61.48 107.31 62.6 107.09 63.73C107.05 63.92 107.06 63.94 107.25 64C107.69 64.12 108.13 64.23 108.56 64.37C109.39 64.61 110.17 64.99 110.89 65.48C111.77 66.09 112.42 66.87 112.77 67.89C112.99 68.51 113.17 69.15 113.37 69.78C113.43 69.99 113.49 70.21 113.57 70.41C113.91 71.2 114.45 71.77 115.29 72.04C115.79 72.19 116.29 72.32 116.8 72.4C117.88 72.57 118.97 72.72 120.06 72.86C121.21 73.01 122.36 73.15 123.5 73.36C124.04 73.45 124.59 73.52 125.09 73.78C125.16 73.81 125.24 73.82 125.31 73.8C125.87 73.71 126.42 73.6 126.98 73.5C127.15 73.47 127.35 73.48 127.47 73.39C127.6 73.3 127.66 73.1 127.73 72.95C129.3 69.85 130.31 66.5 130.72 63.06C130.86 61.93 130.9 60.8 130.95 59.61ZM144.39 63.65C144.4 62.53 144.35 61.41 144.23 60.3C144.12 59.15 143.94 58.02 143.7 56.89C143.16 54.41 142.33 52.04 141.11 49.82C140.35 48.44 139.45 47.15 138.37 45.99C138.26 45.88 138.16 45.75 138.03 45.67C137.88 45.58 137.75 45.46 137.65 45.33C137.11 44.73 136.6 44.11 135.85 43.75C135.79 43.73 135.75 43.68 135.69 43.65C133.95 42.42 131.95 41.63 129.84 41.31C129.49 41.26 129.13 41.24 128.77 41.21C128.74 41.21 128.71 41.22 128.69 41.23C128.71 41.25 128.72 41.28 128.75 41.3C128.8 41.33 128.86 41.36 128.91 41.39C129.65 41.78 130.32 42.27 130.96 42.81C132.04 43.73 133.03 44.75 133.93 45.84C134.76 46.83 135.47 47.92 136.04 49.07C136.72 50.45 137.21 51.89 137.58 53.38C137.84 54.44 138.06 55.5 138.11 56.59C138.18 57.83 138.15 59.08 138.04 60.32C138.03 60.39 138.03 60.45 138.01 60.51C137.96 60.72 137.82 60.85 137.66 60.83C137.49 60.81 137.38 60.64 137.4 60.4C137.42 60.18 137.46 59.96 137.47 59.74C137.49 59.03 137.5 58.32 137.51 57.61C137.52 56.84 137.47 56.07 137.35 55.3C137.15 54.17 136.88 53.05 136.53 51.96C136.02 50.36 135.34 48.84 134.38 47.46C133.24 45.85 131.9 44.4 130.38 43.14C129.66 42.53 128.86 42.02 128 41.64C127.75 41.54 127.51 41.42 127.28 41.28C127.17 41.22 127.05 41.2 126.92 41.21C126.63 41.24 126.33 41.26 126.03 41.31C124.84 41.49 123.66 41.78 122.54 42.23C122.02 42.45 121.51 42.69 120.99 42.92C120.93 42.95 120.82 43.02 120.83 43.06C120.85 43.17 120.97 43.14 121.06 43.16C121.09 43.16 121.12 43.16 121.15 43.17C121.46 43.22 121.78 43.25 122.08 43.32C123.39 43.61 124.61 44.18 125.68 45C126.94 45.94 127.95 47.13 128.77 48.47C129.58 49.79 130.17 51.21 130.61 52.7C131.18 54.63 131.45 56.61 131.53 58.61C131.59 60.12 131.53 61.64 131.34 63.14C131.18 64.47 130.93 65.79 130.6 67.08C129.92 69.69 128.94 72.17 127.59 74.5C127.27 75.06 126.92 75.6 126.59 76.16C126.52 76.27 126.54 76.33 126.64 76.39C126.75 76.45 126.86 76.51 126.97 76.57C127.12 76.65 127.15 76.65 127.24 76.51C127.76 75.68 128.21 74.82 128.59 73.92C128.81 73.41 128.74 73.42 129.26 73.52C129.35 73.54 129.45 73.54 129.54 73.56C131.22 73.96 132.73 74.69 133.99 75.89C134.03 75.92 134.06 75.97 134.1 75.98C134.14 75.99 134.21 75.98 134.22 75.96C134.28 75.85 134.33 75.73 134.37 75.62C134.77 74.54 135.19 73.47 135.56 72.38C136.05 70.98 136.46 69.56 136.77 68.11C136.95 67.28 137.07 66.44 137.19 65.6C137.22 65.44 137.25 65.29 137.29 65.14C137.32 65.05 137.39 65.02 137.48 65.02C137.52 65.02 137.57 65.03 137.61 65.06C137.64 65.09 137.67 65.14 137.67 65.18C137.68 65.25 137.69 65.31 137.69 65.37C137.71 66.05 137.66 66.73 137.54 67.4C137.29 68.71 136.97 70.01 136.57 71.29C135.96 73.26 135.25 75.2 134.44 77.09C134.11 77.87 133.77 78.65 133.43 79.43C133.35 79.62 133.26 79.81 133.18 79.99L133.58 80.45C133.59 80.46 133.6 80.48 133.61 80.48C133.65 80.48 133.71 80.48 133.72 80.46C133.79 80.37 133.84 80.27 133.89 80.17C134.24 79.49 134.56 78.78 134.84 78.06C134.89 77.95 134.93 77.83 134.98 77.71C134.99 77.69 135.03 77.67 135.06 77.67C135.08 77.67 135.11 77.7 135.12 77.72C135.19 77.87 135.24 78.02 135.32 78.15C135.48 78.44 135.63 78.73 135.81 79.01C136.08 79.4 136.46 79.64 136.92 79.75C137.14 79.81 137.35 79.84 137.57 79.87C138.46 79.96 139.36 79.96 140.25 79.98C140.42 79.98 140.51 79.91 140.58 79.77C140.78 79.35 140.99 78.92 141.19 78.49C142.21 76.26 142.99 73.92 143.51 71.52C143.75 70.43 143.97 69.33 144.09 68.22C144.18 67.4 144.28 66.59 144.33 65.77C144.38 65.07 144.37 64.36 144.39 63.65ZM118.56 116.33C120.07 116.32 121.42 116.3 122.76 116.13C123.79 116 124.8 115.77 125.78 115.43C125.88 115.39 125.98 115.35 126.08 115.3C126.17 115.24 126.21 115.12 126.18 115C126.17 114.95 126.14 114.9 126.1 114.87C126.06 114.83 126 114.81 125.95 114.81C125.87 114.81 125.79 114.82 125.72 114.83C124.58 115.05 123.44 115.29 122.28 115.38C121.63 115.44 120.97 115.51 120.31 115.53C119 115.57 117.68 115.55 116.36 115.48C115.3 115.42 114.24 115.34 113.17 115.24C112.02 115.12 110.87 114.96 109.72 114.8C108.09 114.57 106.47 114.29 104.86 113.95C101.62 113.27 98.44 112.33 95.35 111.15C93.66 110.51 92.01 109.79 90.43 108.91C90.21 108.78 89.99 108.66 89.78 108.53C89.66 108.46 89.52 108.42 89.38 108.42C89.15 108.43 89.01 108.61 89.05 108.84C89.07 108.95 89.14 109.05 89.23 109.11C89.33 109.18 89.44 109.25 89.55 109.31C90.49 109.87 91.47 110.37 92.48 110.82C94.5 111.72 96.57 112.48 98.68 113.15C101.09 113.91 103.54 114.52 106.02 114.98C107.02 115.16 108.03 115.35 109.03 115.51C109.79 115.63 110.55 115.72 111.31 115.82C112.01 115.9 112.72 115.97 113.42 116.04C114.39 116.13 115.35 116.22 116.32 116.27C117.12 116.32 117.92 116.32 118.56 116.33ZM156.53 114.87C156.64 114.84 156.73 114.82 156.82 114.8C158 114.5 159.15 114.14 160.28 113.71C163.82 112.37 167.23 110.75 170.56 108.95C171.7 108.32 172.83 107.67 173.9 106.92C174.06 106.82 174.21 106.7 174.36 106.59C174.41 106.55 174.46 106.51 174.5 106.47C174.62 106.33 174.64 106.12 174.55 105.99C174.46 105.85 174.27 105.8 174.09 105.9C174 105.95 173.9 106.01 173.82 106.07C173.14 106.57 172.44 107.01 171.72 107.43C169.01 109.02 166.19 110.4 163.32 111.67C161.62 112.43 159.87 113.08 158.12 113.73C157.6 113.92 157.09 114.11 156.58 114.31C156.48 114.35 156.38 114.41 156.31 114.48C156.24 114.54 156.24 114.67 156.31 114.74C156.38 114.8 156.46 114.83 156.53 114.87ZM152.19 83.81C152.58 83.82 153.11 83.84 153.64 83.85C153.78 83.85 153.92 83.84 154.06 83.82C154.14 83.81 154.17 83.64 154.11 83.58C154.06 83.54 154 83.51 153.95 83.49C153.71 83.41 153.46 83.38 153.21 83.38C151.86 83.35 150.51 83.39 149.16 83.5C148.74 83.53 148.32 83.59 147.9 83.64C147.45 83.7 147 83.79 146.55 83.83C146.15 83.87 145.74 83.87 145.33 83.82C144.54 83.72 143.77 83.49 143.05 83.12C142.65 82.92 142.27 82.66 141.88 82.42C141.59 82.24 141.3 82.06 141 81.89C140.89 81.82 140.82 81.86 140.74 82.01C140.66 82.15 140.67 82.2 140.79 82.28C141.12 82.49 141.46 82.68 141.78 82.9C142.65 83.5 143.63 83.93 144.66 84.16C145.07 84.25 145.49 84.31 145.91 84.31C146.37 84.32 146.82 84.26 147.27 84.18C148.27 84.01 149.29 83.94 150.3 83.87C150.88 83.83 151.46 83.83 152.19 83.81ZM118.78 90.95C119.47 90.97 120.23 90.87 120.99 90.73C121.45 90.64 121.9 90.51 122.35 90.39C122.48 90.35 122.51 90.29 122.49 90.18C122.46 90.07 122.44 89.97 122.41 89.86C122.35 89.63 122.34 89.62 122.13 89.68C121.18 89.96 120.21 90.14 119.23 90.23C118.1 90.33 116.96 90.23 115.87 89.93C115.06 89.71 114.31 89.36 113.6 88.92C113.48 88.84 113.35 88.79 113.22 88.73C113.2 88.72 113.16 88.73 113.14 88.75C113.13 88.77 113.14 88.82 113.15 88.83C113.52 89.16 113.87 89.49 114.24 89.8C114.61 90.1 115 90.37 115.38 90.65C115.47 90.71 115.56 90.77 115.65 90.62C115.67 90.58 115.76 90.57 115.81 90.57C115.87 90.57 115.94 90.59 116 90.61C116.88 90.84 117.78 90.96 118.78 90.95ZM118.45 94.85C118.5 94.82 118.57 94.79 118.58 94.76C118.59 94.71 118.55 94.64 118.52 94.59C118.51 94.57 118.47 94.56 118.44 94.55C118.38 94.52 118.32 94.5 118.26 94.49C116.78 94.07 115.44 93.36 114.15 92.55C112.82 91.7 111.64 90.67 110.56 89.51C110.26 89.18 110.32 89.16 109.8 89.34C109.78 89.35 109.77 89.36 109.76 89.36C109.7 89.39 109.68 89.47 109.72 89.52C109.82 89.64 109.91 89.77 110.02 89.88C110.51 90.41 111.03 90.91 111.58 91.39C113.3 92.87 115.24 93.96 117.43 94.59C117.76 94.68 118.1 94.76 118.45 94.85ZM122.72 110.54L122.72 110.56C123.41 110.53 124.1 110.49 124.79 110.45C125.43 110.42 126.07 110.39 126.71 110.34C126.91 110.32 127.12 110.27 127.31 110.22C127.47 110.18 127.57 110.03 127.55 109.91C127.55 109.85 127.52 109.79 127.48 109.74C127.44 109.69 127.38 109.66 127.32 109.65C127.17 109.61 127.01 109.59 126.86 109.58C126.45 109.58 126.04 109.59 125.63 109.61C124.73 109.66 123.82 109.72 122.91 109.76C122.3 109.78 121.69 109.77 121.08 109.78C120.98 109.78 120.89 109.78 120.8 109.8C120.74 109.82 120.68 109.85 120.64 109.9C120.59 109.94 120.56 110 120.55 110.06C120.53 110.12 120.53 110.19 120.55 110.25C120.57 110.31 120.6 110.36 120.65 110.41C120.72 110.47 120.8 110.52 120.89 110.53C121.11 110.56 121.33 110.58 121.55 110.58C121.94 110.58 122.33 110.55 122.72 110.54ZM127.59 82.05C127.54 82.09 127.47 82.13 127.43 82.18C127.41 82.22 127.4 82.26 127.41 82.3C127.41 82.34 127.44 82.37 127.47 82.4C127.58 82.48 127.7 82.55 127.83 82.6C128.04 82.68 128.25 82.74 128.46 82.81C129.54 83.15 130.49 83.82 131.19 84.73C131.47 85.1 131.74 85.49 132 85.89C132.33 86.4 132.63 86.94 132.96 87.46C133.5 88.32 134.23 89.01 135.02 89.63C135.13 89.72 135.26 89.79 135.39 89.85C135.44 89.88 135.5 89.9 135.56 89.89C135.62 89.89 135.69 89.85 135.71 89.81C135.74 89.77 135.74 89.67 135.71 89.64C135.61 89.53 135.51 89.44 135.4 89.36C134.42 88.62 133.6 87.74 132.99 86.67C132.89 86.49 132.79 86.32 132.68 86.14C132.39 85.69 132.12 85.23 131.81 84.8C131 83.65 129.94 82.82 128.59 82.38C128.31 82.29 128.03 82.18 127.75 82.09C127.71 82.07 127.66 82.07 127.59 82.05ZM168.35 86.13L168.26 86.13C168.17 86.14 168.11 86.18 168.08 86.26C168.07 86.3 168.07 86.35 168.08 86.4C168.1 86.44 168.13 86.48 168.17 86.5C168.23 86.53 168.29 86.56 168.35 86.57C169.34 86.82 170.29 87.17 171.24 87.55C173.43 88.42 175.41 89.64 176.98 91.44C177.02 91.49 177.06 91.54 177.11 91.58C177.18 91.63 177.25 91.65 177.33 91.6C177.35 91.59 177.36 91.58 177.37 91.56C177.39 91.54 177.39 91.53 177.4 91.51C177.4 91.49 177.4 91.47 177.4 91.45C177.4 91.43 177.39 91.41 177.38 91.39C177.24 91.17 177.11 90.93 176.94 90.73C176.72 90.47 176.49 90.24 176.24 90.03C174.83 88.86 173.31 87.87 171.6 87.21C170.81 86.91 170.01 86.63 169.21 86.35C169.01 86.28 168.79 86.23 168.58 86.17C168.49 86.15 168.4 86.14 168.35 86.13ZM142.21 92.94C142.19 92.91 142.17 92.82 142.12 92.78C141.96 92.65 141.79 92.54 141.61 92.45C140.74 91.96 139.83 91.55 139.03 90.92C138.97 90.88 138.9 90.84 138.82 90.83C138.74 90.81 138.66 90.85 138.63 90.92C138.61 90.98 138.61 91.05 138.63 91.1C138.66 91.17 138.72 91.23 138.78 91.28C139.02 91.46 139.25 91.65 139.5 91.79C140.25 92.21 141.01 92.62 141.77 93.02C141.85 93.06 141.94 93.09 142.03 93.11C142.1 93.13 142.2 93.05 142.21 92.94ZM137.29 81.64C137.59 81.67 137.99 81.71 138.39 81.75C138.67 81.78 138.95 81.82 139.23 81.86C139.35 81.88 139.44 81.84 139.5 81.73C139.53 81.67 139.56 81.62 139.58 81.56C139.59 81.54 139.57 81.5 139.55 81.49C139.5 81.46 139.44 81.44 139.38 81.43C138.89 81.36 138.39 81.28 137.89 81.23C137.54 81.21 137.18 81.2 136.82 81.21C136.67 81.22 136.51 81.26 136.36 81.3C136.32 81.31 136.28 81.33 136.25 81.37C136.22 81.42 136.18 81.49 136.19 81.54C136.2 81.59 136.25 81.65 136.3 81.67C136.38 81.69 136.46 81.7 136.53 81.69C136.75 81.68 136.97 81.66 137.29 81.64ZM117.37 75.64C117.36 75.61 117.36 75.57 117.34 75.57C117.32 75.56 117.28 75.58 117.26 75.59L117.3 75.68C117.33 75.67 117.35 75.65 117.37 75.64Z" fill="#000000" fill-opacity="1.000000" fill-rule="nonzero"/>
		<path d="M98.44 63.42C98.78 63.39 99.07 63.37 99.35 63.35C99.49 63.34 99.55 63.4 99.53 63.55C99.49 64.01 99.44 64.46 99.39 64.91C99.35 65.35 99.29 65.79 99.26 66.23C99.15 67.61 99.11 69 99.13 70.39C99.14 71.26 99.18 72.12 99.26 72.98C99.38 74.33 99.57 75.67 99.83 77C100.33 79.53 101.05 81.99 101.92 84.41C102.46 85.91 103.13 87.35 104.01 88.68C104.13 88.86 104.13 88.99 104.01 89.15C104 89.16 104 89.18 103.99 89.19C103.91 89.32 103.86 89.34 103.72 89.31C103.36 89.24 103.01 89.17 102.65 89.11C102.25 89.04 101.87 89.11 101.51 89.29C101.27 89.4 101.03 89.53 100.81 89.67C100.33 89.96 99.84 90 99.31 89.86C98.55 89.66 97.82 89.37 97.09 89.09C95.54 88.49 93.99 87.87 92.45 87.26C91 86.69 89.52 86.22 88.06 85.71C86.45 85.15 84.85 84.6 83.23 84.1C82.25 83.8 81.26 83.49 80.27 83.16C79.71 82.97 79.16 82.75 78.6 82.53C78.34 82.42 78.09 82.28 77.82 82.19C77.14 81.96 76.57 81.56 76.01 81.11C75.25 80.5 74.59 79.78 73.97 79.02C73.67 78.66 73.36 78.3 73.05 77.95C72.84 77.73 72.67 77.49 72.53 77.22C71.56 75.28 70.67 73.3 69.99 71.23C69.5 69.76 69.15 68.26 68.89 66.74C68.56 64.82 68.47 62.89 68.51 60.95C68.53 59.84 68.61 58.74 68.74 57.65C68.98 55.64 69.38 53.67 69.94 51.73C71.16 47.5 72.99 43.57 75.5 39.95C76.97 37.84 78.67 35.91 80.57 34.18C82.22 32.7 84.04 31.42 86 30.38C86.72 30 87.44 29.62 88.21 29.33C88.81 29.1 89.41 28.88 90.05 28.76C90.23 28.72 90.42 28.72 90.6 28.66C91.07 28.51 91.53 28.56 91.98 28.72C92.21 28.8 92.44 28.82 92.68 28.79C92.77 28.78 92.86 28.78 92.96 28.77C95.4 28.59 97.53 29.33 99.37 30.95C100.51 31.95 101.37 33.17 102.07 34.5C102.79 35.89 103.31 37.36 103.66 38.89C103.83 39.62 103.96 40.37 104.11 41.11C104.15 41.31 104.13 41.52 104.04 41.71C103.95 41.89 103.86 42.07 103.76 42.25C103.76 42.26 103.7 42.26 103.69 42.25C103.68 42.21 103.66 42.16 103.66 42.12C103.53 41.1 103.34 40.1 103.1 39.1C102.71 37.55 102.18 36.06 101.41 34.66C100.85 33.64 100.18 32.71 99.34 31.91C98.31 30.91 97.11 30.19 95.71 29.82C95.07 29.65 94.41 29.56 93.75 29.56C93.72 29.56 93.69 29.57 93.67 29.58C93.68 29.62 93.69 29.67 93.71 29.69C93.78 29.76 93.86 29.81 93.93 29.88C94.1 30.04 94.27 30.2 94.43 30.37C94.67 30.63 94.84 30.92 95.01 31.22C95.64 32.35 95.92 33.56 95.94 34.84C95.96 35.91 95.78 36.95 95.51 37.97C95.17 39.2 94.71 40.39 94.2 41.56C93.35 43.51 92.42 45.42 91.41 47.29C89.99 49.96 88.55 52.62 87.12 55.28C86.86 55.75 86.64 56.23 86.5 56.75C86.46 56.92 86.44 57.09 86.42 57.27C86.41 57.39 86.43 57.52 86.47 57.64C86.52 57.76 86.59 57.86 86.69 57.95C86.8 58.05 86.92 58.15 87.05 58.25C87.29 58.42 87.54 58.59 87.79 58.75C89.48 59.91 90.81 61.39 91.71 63.25L91.88 63.59C92.1 64.04 92 64.03 92.59 63.95C93.31 63.86 94.02 63.77 94.74 63.7C95.51 63.62 96.27 63.57 97.04 63.5C97.24 63.49 97.27 63.46 97.3 63.25C97.35 62.97 97.39 62.69 97.43 62.41C97.64 60.89 97.94 59.39 98.32 57.92C99.13 54.81 100.25 51.82 101.77 48.99C103.58 45.59 105.85 42.53 108.68 39.9C111.39 37.4 114.43 35.44 117.9 34.16C118.47 33.95 119.06 33.77 119.64 33.58C119.73 33.56 119.82 33.54 119.91 33.55C120.02 33.55 120.12 33.64 120.15 33.74C120.18 33.86 120.16 33.98 120.07 34.04C119.97 34.11 119.84 34.16 119.73 34.2C119.21 34.37 118.68 34.53 118.17 34.72C115.64 35.65 113.33 36.96 111.19 38.59C108.36 40.77 106 43.39 104.04 46.38C101.9 49.63 100.32 53.16 99.24 56.91C98.74 58.61 98.36 60.35 98.09 62.11C98.04 62.47 97.98 62.83 97.93 63.19C97.91 63.37 97.95 63.42 98.12 63.42L98.44 63.42ZM69.13 60.41L69.11 60.41C69.11 60.82 69.1 61.23 69.11 61.64C69.11 61.68 69.13 61.73 69.14 61.77C69.19 61.75 69.26 61.75 69.31 61.71C69.48 61.58 69.65 61.43 69.82 61.3C69.9 61.24 69.99 61.12 70.1 61.19C70.15 61.23 70.15 61.36 70.15 61.46C70.12 62.82 70.28 64.16 70.49 65.5C70.61 66.23 70.72 66.96 70.72 67.71C70.72 68.18 70.76 68.65 70.81 69.12C70.94 70.34 71.16 71.55 71.41 72.75C71.53 73.3 71.81 73.73 72.13 74.16C72.16 74.19 72.22 74.17 72.24 74.13C72.26 74.08 72.28 74.04 72.29 73.99C72.42 73.51 72.55 73.02 72.69 72.54C72.7 72.48 72.73 72.42 72.76 72.37C72.83 72.21 72.92 72.06 72.99 71.91C73.39 71.06 73.89 70.28 74.6 69.65C75.72 68.65 77.02 68.32 78.49 68.59C78.82 68.66 79.15 68.81 79.48 68.86C79.75 68.9 79.95 69.02 80.16 69.17C80.34 69.29 80.52 69.42 80.7 69.55C81.66 70.23 82.49 71.09 83.14 72.08C83.82 73.09 84.32 74.19 84.72 75.34C85.09 76.41 85.39 77.51 85.67 78.6C85.92 79.53 86.16 80.46 86.42 81.38C86.54 81.83 86.7 82.25 86.91 82.66C87.2 83.24 87.64 83.64 88.25 83.85C88.56 83.95 88.88 84.05 89.19 84.14C91.1 84.67 93.03 85.1 94.95 85.55C95.24 85.62 95.53 85.68 95.82 85.74C95.89 85.75 95.95 85.69 95.92 85.63C95.91 85.6 95.89 85.57 95.88 85.54C95.47 84.82 95.17 84.04 94.88 83.25C94.25 81.52 93.75 79.75 93.3 77.96C92.97 76.66 92.73 75.35 92.59 74.01C92.55 73.61 92.58 73.19 92.47 72.79C92.45 72.7 92.45 72.6 92.47 72.51C92.54 72.06 92.57 71.6 92.68 71.16C92.85 70.46 92.9 69.77 92.76 69.06C92.74 68.97 92.74 68.87 92.73 68.78C92.7 68.45 92.67 68.12 92.63 67.79C92.61 67.65 92.6 67.49 92.52 67.38C92.36 67.14 92.31 66.86 92.27 66.58C92.18 66.04 92.03 65.51 91.81 65C91.6 64.52 91.4 64.05 91.18 63.58C90.44 62.02 89.38 60.74 88.02 59.69C87.69 59.43 87.33 59.21 86.98 58.96C86.74 58.78 86.5 58.61 86.28 58.41C85.87 58.02 85.73 57.54 85.81 56.99C85.87 56.68 85.95 56.37 86.07 56.08C86.31 55.43 86.65 54.82 86.98 54.22C88.04 52.27 89.11 50.32 90.15 48.36C91.31 46.2 92.43 44.01 93.43 41.77C93.92 40.66 94.38 39.53 94.74 38.38C95.15 37.07 95.38 35.75 95.3 34.38C95.26 33.71 95.12 33.06 94.9 32.44C94.44 31.21 93.65 30.26 92.45 29.69C91.73 29.34 90.98 29.18 90.17 29.36C89.66 29.47 89.17 29.63 88.68 29.81C87.96 30.07 87.27 30.41 86.58 30.75C85.25 31.4 83.99 32.15 82.82 33.08C82.46 33.37 82.1 33.68 81.74 33.98C79.87 35.56 78.19 37.34 76.73 39.3C74.32 42.54 72.47 46.09 71.16 49.92C70.52 51.76 70.03 53.66 69.68 55.58C69.52 56.48 69.4 57.38 69.29 58.29C69.21 58.99 69.18 59.7 69.13 60.41Z" fill="#000000" fill-opacity="1.000000" fill-rule="nonzero"/>
		<path d="M100.19 69.38C100.23 68.54 100.27 67.54 100.35 66.53C100.4 65.73 100.48 64.93 100.57 64.13C100.61 63.77 100.69 63.42 100.75 63.06C100.9 62.28 101.04 61.49 101.2 60.7C101.74 58.14 102.53 55.64 103.56 53.24C104.66 50.67 106.04 48.24 107.68 45.98C109.79 43.1 112.27 40.6 115.2 38.56C116.79 37.46 118.49 36.53 120.28 35.79C120.41 35.74 120.54 35.7 120.68 35.69C120.82 35.67 120.93 35.77 120.96 35.89C120.98 35.94 120.98 36 120.96 36.05C120.94 36.11 120.91 36.15 120.86 36.18C120.76 36.25 120.65 36.32 120.53 36.36C119.17 36.9 117.88 37.58 116.64 38.36C115.24 39.24 113.92 40.23 112.7 41.34C109.98 43.78 107.76 46.62 105.97 49.8C104.09 53.12 102.76 56.66 101.9 60.39C101.72 61.19 101.58 61.99 101.43 62.8C101.41 62.86 101.41 62.92 101.4 62.98C101.37 63.3 101.38 63.31 101.68 63.32C101.91 63.33 102.15 63.33 102.38 63.34C102.57 63.35 102.61 63.41 102.58 63.58C102.49 64.17 102.39 64.76 102.31 65.36C102.22 66.12 102.13 66.89 102.05 67.66C101.92 68.99 101.94 70.33 101.98 71.67C102.02 72.82 102.09 73.97 102.23 75.11C102.7 78.98 103.88 82.74 105.71 86.17C106.26 87.2 106.84 88.21 107.41 89.23C107.44 89.28 107.48 89.34 107.51 89.39L107.77 89.83C107.61 89.96 107.42 89.9 107.24 89.91C107.1 89.92 106.96 89.9 106.82 89.91C106.54 89.94 106.35 89.81 106.16 89.62C105.44 88.85 104.82 87.99 104.32 87.06C103.75 86.01 103.26 84.91 102.87 83.78C102.3 82.16 101.77 80.53 101.37 78.86C100.98 77.3 100.69 75.72 100.49 74.13C100.37 73.14 100.27 72.15 100.26 71.16C100.25 70.62 100.22 70.09 100.19 69.38ZM104.44 43.75C104.41 43.93 104.38 44.12 104.35 44.3C104.33 44.38 104.29 44.45 104.24 44.51C104.16 44.63 103.95 44.62 103.88 44.49C103.83 44.38 103.77 44.25 103.77 44.14C103.78 43.89 103.82 43.64 103.86 43.39C103.87 43.28 103.96 43.2 104.07 43.17C104.26 43.12 104.43 43.22 104.44 43.42C104.44 43.52 104.43 43.63 104.42 43.74L104.44 43.75ZM138.12 62.86C138.09 63.16 138.06 63.46 138.02 63.75C138.01 63.83 137.98 63.9 137.94 63.97C137.88 64.07 137.77 64.11 137.66 64.09C137.56 64.08 137.48 64.02 137.45 63.93C137.42 63.84 137.4 63.75 137.41 63.66C137.43 63.39 137.46 63.13 137.5 62.87C137.51 62.75 137.55 62.62 137.6 62.51C137.64 62.41 137.72 62.33 137.85 62.34C137.95 62.34 138.03 62.42 138.07 62.55C138.08 62.59 138.09 62.64 138.1 62.68C138.11 62.74 138.11 62.81 138.12 62.86Z" fill="#000000" fill-opacity="1.000000" fill-rule="nonzero"/>
	</g>
</svg>
