<svg width="58.000000" height="58.000000" viewBox="0 0 58 58" fill="none" xmlns="http://www.w3.org/2000/svg" xmlns:xlink="http://www.w3.org/1999/xlink">
	<desc>
			Created with Pixso.
	</desc>
	<defs>
		<clipPath id="clip1_253">
			<rect rx="0.000000" width="57.000000" height="57.000000" transform="translate(0.500000 0.500000)" fill="white" fill-opacity="0"/>
		</clipPath>
	</defs>
	<g clip-path="url(#clip1_253)">
		<path d="M29 57.53C13.23 57.53 0.46 44.76 0.46 29C0.46 13.23 13.23 0.46 29 0.46C44.76 0.46 57.53 13.23 57.53 29C57.53 44.76 44.76 57.53 29 57.53Z" stroke="#000000" stroke-opacity="1.000000" stroke-width="1.015873"/>
		<path d="M37.94 21.39C37.86 21.11 37.48 21.13 37.44 21.42C37.2 23.11 38.59 27.1 38.09 28.95C38.09 28.96 38.08 28.98 38.08 28.99C37.97 29.38 37.4 29.31 37.4 28.9C37.38 27.3 36.97 25.55 36.1 24.48C32.8 20.45 36.32 17.48 36.19 16.51C36.19 16.48 36.18 16.46 36.16 16.43C36.15 16.41 36.13 16.38 36.1 16.37C36.08 16.35 36.05 16.34 36.02 16.34C35.99 16.34 35.96 16.34 35.93 16.35C35.93 16.35 35.92 16.35 35.92 16.36C35.71 16.48 35.51 16.62 35.32 16.76C33.99 17.71 32.78 18.84 32.08 20.37C31.68 21.25 31.58 22.23 31.35 23.17C31.26 23.52 31.16 23.88 31.04 24.22C30.91 24.61 30.72 25 30.43 25.29C30.3 25.42 30.14 25.51 29.97 25.55C29.5 25.64 29.26 25.31 29.17 24.92C28.92 23.83 29.1 22.74 29.2 21.65C29.57 17.25 24.91 16.84 26.61 10.43C27.06 8.74 20.97 14.32 23.02 19.17C23.42 20.12 23.38 21.03 22.93 21.95C22.44 22.92 21.85 23.8 21.55 24.87C21.45 25.26 21.39 25.64 21.34 26.04C21.28 26.55 21.42 27.31 20.77 27.44C20.5 27.5 20.13 27.46 19.9 27.28C19.73 27.14 19.63 26.92 19.57 26.7C19.3 25.66 19.34 24.61 19.46 23.55C19.58 22.62 19.66 20.87 18.72 22.62C15.68 28.26 15.79 35.29 19.49 40.58C20.92 42.62 22.72 43.92 25.09 44.51C29.9 45.71 35.64 45.35 38.67 41.1C39.83 39.48 40.52 37.5 40.97 35.55C41.55 33.07 41.66 30.72 40.76 28.31C39.88 25.98 38.63 23.8 37.94 21.39Z" fill="#000000" fill-opacity="1.000000" fill-rule="nonzero"/>
	</g>
</svg>
