<svg width="225.000000" height="156.000000" viewBox="0 0 225 156" fill="none" xmlns="http://www.w3.org/2000/svg" xmlns:xlink="http://www.w3.org/1999/xlink">
	<desc>
			Created with Pixso.
	</desc>
	<defs>
		<clipPath id="clip1_237">
			<rect rx="0.000000" width="224.000000" height="155.000000" transform="translate(0.500000 0.500000)" fill="white" fill-opacity="0"/>
		</clipPath>
	</defs>
	<g clip-path="url(#clip1_237)">
		<path d="M91.3 0.12C93.42 0.09 95.06 0.43 96.55 1.14C100.68 3.11 101.2 7.04 99.71 9.95C99.59 10.18 99.45 10.41 99.29 10.6C98.34 11.69 97.62 12.93 96.87 14.15C95.5 16.38 93.96 18.48 92.06 20.29C89.8 22.45 87.19 23.89 84.07 24.35C83.41 24.45 82.8 24.67 82.3 25.12C82.18 25.22 82.1 25.39 82.04 25.55C81.96 25.78 82.28 26.13 82.49 26.05C82.69 25.98 82.89 25.89 83.07 25.78C83.44 25.55 83.86 25.41 84.29 25.34C88.29 24.7 91.45 22.61 94.11 19.64C95.47 18.11 96.64 16.44 97.72 14.7C97.93 14.37 98.18 14.05 98.32 13.69C98.75 12.54 99.71 12.54 100.67 12.63C100.94 12.65 101.22 12.88 101.42 13.09C101.75 13.44 101.9 13.91 101.92 14.4C101.99 15.84 101.91 17.26 101.36 18.63C100.67 20.34 99.68 21.86 98.44 23.22C97.07 24.74 95.53 26.09 93.89 27.31C93.44 27.64 92.95 27.95 92.45 28.19C90.35 29.22 88.24 30.25 86.11 31.22C85.36 31.56 84.56 31.78 83.76 31.98C82.35 32.34 81.19 31.85 80.31 30.73C79.86 30.15 79.48 29.51 79.07 28.9C78.27 27.71 77.28 26.65 76.13 25.79C74.59 24.63 72.85 24.03 70.95 23.86C70.35 23.81 69.74 23.85 69.15 23.96C68.4 24.1 67.89 23.81 67.45 23.27C67.42 23.23 67.39 23.2 67.37 23.16C66.12 21.28 64.88 19.4 63.64 17.51C63.47 17.26 63.35 16.98 63.22 16.71C63.12 16.52 63.2 16.36 63.38 16.29C64.34 15.88 65.34 15.95 66.33 16.09C67.28 16.22 68.19 16.51 69.09 16.86C70.06 17.24 71.06 17.48 72.1 17.65C73.43 17.86 74.8 17.78 76.09 17.39C77.88 16.86 79.62 16.19 81.38 15.58C81.54 15.52 81.7 15.42 81.84 15.33C82.05 15.21 82.15 14.94 82.05 14.78C82 14.69 81.91 14.61 81.81 14.57C81.71 14.53 81.6 14.53 81.49 14.55C81.11 14.64 80.74 14.76 80.37 14.89C79.22 15.29 78.07 15.68 76.93 16.1C74.55 16.99 72.18 16.94 69.81 16.05C68.87 15.7 67.91 15.43 66.94 15.19C65.66 14.87 64.36 14.88 63.09 15.29C62.74 15.4 62.64 15.31 62.55 14.95C62.22 13.74 62.42 12.53 62.62 11.34C62.7 10.81 63.02 10.37 63.4 10.01C65.14 8.34 67.01 6.88 69.45 6.35C70.93 6.03 72.4 5.66 73.88 5.31C75.57 4.92 77.22 4.33 78.77 3.57C79.63 3.14 80.5 2.75 81.37 2.35C83.8 1.22 86.38 0.68 89.02 0.35C89.92 0.23 90.83 0.17 91.3 0.12ZM32.01 47.59C32.09 46.28 32.18 45.28 32.21 44.29C32.24 43.55 32.24 42.81 32.15 42.08C31.97 40.63 32.32 39.33 33.04 38.09C33.44 37.41 33.92 36.79 34.52 36.28C36.84 34.28 38.67 31.85 40.61 29.5C42.11 27.7 43.56 25.85 45.08 24.07C47.53 21.22 50.32 18.74 53.53 16.77C54.37 16.25 55.29 15.83 56.19 15.4C57.11 14.96 58.1 14.89 59.11 14.86C59.46 14.84 59.81 14.9 60.13 15.03C60.45 15.15 60.75 15.35 60.99 15.6C61.45 16.06 61.9 16.54 62.27 17.07C62.8 17.81 63.28 18.59 63.7 19.4C64.35 20.67 65.09 21.9 65.9 23.09C66.5 23.96 66.95 24.88 66.8 25.99C66.78 26.16 66.8 26.34 66.83 26.51C67.21 29.3 66.65 31.96 65.7 34.55C65.35 35.5 64.81 36.34 64.21 37.14C62.09 39.98 59.6 42.46 56.83 44.65C55.09 46.03 53.12 47.07 51.14 48.07C50.02 48.64 48.9 49.22 47.79 49.81C47.1 50.18 46.45 50.61 45.9 51.17C45.76 51.32 45.52 51.48 45.35 51.46C44.85 51.38 44.41 51.6 43.95 51.63C43.17 51.68 42.38 51.7 41.61 51.62C40.84 51.53 40.07 51.37 39.34 51.08C38.98 50.94 38.58 50.9 38.2 50.8C38.04 50.76 37.97 50.52 38.1 50.39C38.31 50.17 38.51 49.93 38.75 49.75C39.36 49.26 39.97 48.77 40.62 48.34C42.14 47.34 43.7 46.38 45.23 45.39C47.72 43.8 50.16 42.14 52.4 40.2C54.94 38.01 57.15 35.47 58.94 32.64C60.07 30.86 60.91 28.97 61.34 26.9C61.65 25.41 61.96 23.93 62.05 22.41C62.07 22.1 62.05 21.8 61.99 21.51C61.96 21.37 61.78 21.2 61.65 21.18C61.52 21.17 61.29 21.31 61.26 21.43C61.14 21.84 61.05 22.28 61.02 22.71C60.91 24.41 60.54 26.06 60.12 27.7C59.66 29.48 58.79 31.08 57.77 32.61C55.59 35.9 52.85 38.67 49.72 41.06C47.37 42.86 44.87 44.43 42.36 46C41.19 46.75 40.04 47.52 38.9 48.32C37.97 48.97 37.13 49.73 36.56 50.73C36.36 51.07 36.08 51.21 35.71 51.22C35.4 51.22 35.1 51.26 34.79 51.25C33.61 51.21 32.62 50.49 32.29 49.33C32.11 48.67 32.07 47.97 32.01 47.59ZM130.07 18.84C130.08 18.97 130.14 19.11 130.1 19.22C129.83 20.05 129.57 20.88 129.24 21.68C128.81 22.73 128.15 23.67 127.3 24.42C127.07 24.62 126.84 24.83 126.63 25.04C124.85 26.79 122.66 27.62 120.24 28C118.17 28.33 116.08 28.33 114.01 28.19C112.06 28.06 110.15 27.62 108.27 27.09C108.02 27.02 107.78 26.89 107.54 26.81C106.93 26.6 106.54 26.19 106.23 25.62C104.98 23.35 104.12 20.96 103.84 18.38C103.78 17.91 103.77 17.41 103.85 16.95C104.06 15.83 104.03 14.71 104.07 13.59C104.07 13.57 104.23 13.53 104.28 13.56C105.21 14.03 106.16 14.45 107.16 14.74C108.76 15.21 110.4 15.35 112.04 15.48C114.47 15.67 116.89 15.81 119.31 16.01C120.13 16.08 120.93 16.3 121.75 16.42C122.17 16.49 122.6 16.5 123.03 16.51C123.18 16.52 123.27 16.2 123.16 16.09C122.99 15.95 122.84 15.78 122.64 15.71C122.11 15.53 121.58 15.33 121.02 15.25C118.96 14.95 116.89 14.75 114.8 14.66C112.51 14.56 110.2 14.44 107.96 13.91C106.51 13.56 105.14 13.01 103.96 12.08C103.31 11.56 102.71 11 102.4 10.2C102.35 10.08 102.3 9.94 102.22 9.85C101.54 9.13 101.6 8.25 101.75 7.39C101.87 6.66 102.06 5.95 102.31 5.25C102.7 4.2 103.18 3.17 103.59 2.12C103.86 1.44 104.27 1.14 105.06 1.12C107.76 1.04 110.44 1.2 113.1 1.67C116.26 2.23 119.39 2.95 122.43 4.01C123.41 4.36 124.37 4.77 125.35 5.13C125.54 5.21 125.76 5.23 125.97 5.25C126.11 5.27 126.26 4.96 126.18 4.85C126.08 4.71 125.98 4.55 125.84 4.48C125.19 4.13 124.54 3.76 123.86 3.49C121.97 2.72 120 2.17 118.03 1.68C117.14 1.46 116.25 1.28 115.37 1.08C115.3 1.06 115.23 1.01 115.16 0.98C115.24 0.96 115.32 0.93 115.41 0.91C115.45 0.9 115.49 0.9 115.54 0.9C118.35 1.11 121.15 1.43 123.86 2.32C125.47 2.84 127.06 3.42 128.58 4.16C129.99 4.86 131.33 5.66 132.52 6.68C133.34 7.38 134.22 7.87 135.31 7.98C135.65 8.02 135.99 8.1 136.32 8.21C137.41 8.56 137.79 9.66 137.15 10.61C136.88 11 136.54 11.36 136.19 11.67C135.58 12.23 134.94 12.75 134.3 13.27C133.29 14.1 132.35 14.99 131.61 16.09C131.4 16.41 131.12 16.71 130.81 16.93C128.51 18.58 126.13 20.08 123.46 21.07C121.73 21.71 119.94 22.02 118.13 22.23C117.23 22.34 116.31 22.39 115.4 22.44C113.57 22.54 111.76 22.37 109.95 22.1C109.4 22.02 108.84 21.99 108.27 21.96C108.19 21.96 108.03 22.08 108.01 22.18C107.99 22.27 108.05 22.43 108.14 22.5C108.27 22.61 108.42 22.69 108.59 22.74C109.09 22.88 109.59 23.04 110.1 23.11C111.91 23.35 113.72 23.63 115.55 23.39C115.93 23.34 116.33 23.32 116.72 23.32C120.8 23.22 124.58 22.09 128.07 19.95C128.59 19.64 129.1 19.3 129.62 19C129.76 18.92 129.94 18.91 130.1 18.87L130.07 18.84ZM133.73 33.73C134.09 33.63 134.28 33.91 134.52 34.08C135.78 34.94 137.1 35.7 138.56 36.15C139.35 36.39 140.15 36.57 140.96 36.74C141.29 36.81 141.66 36.81 142 36.76C143.77 36.53 145.55 36.54 147.33 36.52C148.11 36.51 148.89 36.42 149.67 36.35C149.84 36.34 150 36.28 150.14 36.19C150.19 36.15 150.23 36.1 150.26 36.04C150.29 35.99 150.31 35.93 150.31 35.87C150.31 35.76 150.22 35.6 150.13 35.56C149.94 35.47 149.72 35.38 149.52 35.39C147.48 35.46 145.44 35.54 143.4 35.62C143.14 35.63 142.87 35.63 142.62 35.68C141.56 35.92 140.55 35.7 139.54 35.41C138.33 35.07 137.17 34.56 136.1 33.89C134.53 32.93 133.16 31.74 131.87 30.43C131.5 30.05 131.2 29.64 131.14 29.09C130.92 26.9 130.99 24.75 131.81 22.67C131.95 22.32 132.07 22.25 132.39 22.42C134.25 23.38 136.11 24.32 137.94 25.31C140.34 26.61 142.67 28.05 144.92 29.62C145.27 29.86 145.65 30.08 146.03 30.27C146.11 30.31 146.3 30.24 146.37 30.17C146.43 30.09 146.45 29.9 146.4 29.82C146.29 29.63 146.15 29.46 145.98 29.33C145.27 28.76 144.57 28.17 143.82 27.66C140.63 25.54 137.28 23.72 133.86 22C133.62 21.88 133.39 21.78 133.15 21.66C132.29 21.24 132.29 21.23 132.66 20.4C133.12 19.37 133.69 18.39 134.39 17.5C134.96 16.79 135.52 16.07 136.12 15.38C136.7 14.72 137.2 14.02 137.51 13.2C137.58 13.04 137.65 12.88 137.73 12.73C137.89 12.45 138.07 12.35 138.38 12.45C139.11 12.71 139.86 12.95 140.57 13.27C142.67 14.22 144.65 15.38 146.58 16.65C148.93 18.21 151.13 20 153.15 21.97C153.55 22.37 153.99 22.72 154.43 23.08C154.5 23.13 154.7 23.12 154.77 23.06C154.85 22.99 154.91 22.8 154.86 22.72C154.69 22.42 154.5 22.13 154.28 21.87C153.05 20.45 151.68 19.18 150.2 18.03C147.7 16.08 145.02 14.37 142.2 12.92C141.15 12.39 140.08 11.92 138.96 11.57C138.56 11.44 138.51 11.28 138.76 10.93C139.35 10.1 140.05 9.41 141.02 9.03C141.37 8.9 141.67 8.86 142 9.09C143.82 10.37 145.84 11.28 147.81 12.29C150.01 13.42 152.11 14.76 154.07 16.27C154.75 16.8 155.37 17.42 155.98 18.04C157.85 19.92 159.45 22.06 160.71 24.39C161.51 25.84 161.99 27.44 162.12 29.09C162.21 30.22 162.72 30.96 163.65 31.49C164.03 31.7 164.4 31.93 164.78 32.15C165.27 32.45 165.67 32.84 165.92 33.37C166.34 34.23 165.93 34.96 164.99 35.04C164.69 35.07 164.38 35.06 164.08 35.05C160.46 35 157.03 35.89 153.68 37.17C151.77 37.89 149.98 38.86 148.18 39.84C147.73 40.09 147.25 40.31 146.78 40.51C146.16 40.78 145.51 40.83 144.87 40.6C144.01 40.3 143.14 40.03 142.31 39.66C141.35 39.24 140.44 38.74 139.51 38.26C137.45 37.19 135.67 35.73 134 34.14C133.89 34.03 133.83 33.86 133.75 33.71L133.73 33.73L133.73 33.73ZM40.89 155.02C40.37 155.02 39.85 155.03 39.33 155.02C36.71 154.98 34.43 154.07 32.41 152.41C31.08 151.29 29.69 150.24 28.26 149.26C26.06 147.76 23.58 147.03 20.93 146.86C18.98 146.74 17.03 146.89 15.08 147.06C12.83 147.24 10.57 147.25 8.31 147.15C7.48 147.12 6.68 146.92 5.94 146.51C5.64 146.34 5.31 146.22 5 146.07C3.86 145.52 2.68 145.41 1.46 145.77C1.33 145.81 1.2 145.84 1.08 145.84C1 145.84 0.86 145.8 0.85 145.76C0.83 145.64 0.83 145.49 0.89 145.41C1.05 145.21 1.24 145.02 1.44 144.86C1.93 144.5 2.42 144.14 2.95 143.84C3.31 143.63 3.73 143.44 4.18 143.66C5.13 143.59 6.08 143.54 7.03 143.44C9.01 143.22 10.99 142.96 12.97 142.73C17.03 142.27 21.05 141.64 24.94 140.33C26.55 139.79 28.07 139.04 29.54 138.2C31.97 136.82 34.56 135.85 37.25 135.11C38.58 134.75 39.93 134.77 41.26 134.97C42.63 135.18 43.96 135.58 45.21 136.22C47.03 137.17 48.53 138.44 49.5 140.27C49.89 141 50.27 141.73 50.63 142.47C51.19 143.6 51.76 144.72 52.27 145.87C52.61 146.62 52.88 147.4 53.1 148.19C53.55 149.87 52.96 151.28 51.77 152.44C51.44 152.76 50.97 152.97 50.54 153.15C49.29 153.66 48.02 154.07 46.69 154.35C44.78 154.75 42.86 155.11 40.89 155.02ZM176.51 56.31C176.42 57.99 176.38 59.3 175.99 60.55C175.84 61.05 175.89 61.47 176.18 61.9C176.51 62.41 176.83 62.93 177.12 63.46C177.44 64.04 177.61 64.67 177.55 65.34C177.49 66.05 177.19 66.45 176.51 66.66C175.87 66.87 175.22 66.81 174.57 66.72C173.63 66.59 172.68 66.46 171.74 66.33C170.94 66.22 170.23 65.93 169.64 65.38C169.06 64.85 168.5 64.3 167.91 63.79C167.19 63.16 166.48 62.53 165.71 61.96C163.87 60.6 161.8 59.9 159.5 60C158.54 60.04 157.59 59.98 156.65 59.8C154.93 59.48 153.42 58.8 152.42 57.26C151.14 55.27 150.28 53.1 149.67 50.82C149.65 50.75 149.69 50.66 149.71 50.57C149.8 50.61 149.93 50.62 149.97 50.69C151.3 52.95 153.35 54.4 155.61 55.58C157.34 56.49 159.05 57.42 160.68 58.5C160.86 58.62 161.05 58.73 161.25 58.82C161.46 58.92 161.74 58.86 161.82 58.7C161.95 58.47 161.87 58.26 161.71 58.11C161.38 57.82 161.06 57.52 160.69 57.3C159.54 56.6 158.37 55.93 157.21 55.26C156.79 55.03 156.34 54.85 155.94 54.6C155.08 54.08 154.21 53.58 153.42 52.98C150.69 50.93 149.5 48.1 149.33 44.76C149.31 44.36 149.4 43.99 149.59 43.64C150 42.87 150.47 42.14 151.11 41.54C151.72 40.98 152.37 40.47 153.01 39.96C153.13 39.86 153.32 39.85 153.48 39.8C153.51 39.97 153.55 40.14 153.56 40.31C153.57 40.43 153.55 40.56 153.55 40.7C153.5 41.99 153.85 43.18 154.49 44.3C155.15 45.44 155.99 46.42 156.97 47.3C158.28 48.5 159.56 49.74 160.72 51.1C162.51 53.2 163.9 55.54 165.02 58.05C165.19 58.41 165.38 58.74 165.59 59.06C165.65 59.14 165.86 59.2 165.94 59.15C166.08 59.06 166.18 58.93 166.24 58.78C166.28 58.68 166.24 58.52 166.19 58.4C165.98 57.83 165.78 57.26 165.52 56.71C164.11 53.74 162.27 51.07 159.93 48.75C158.98 47.8 158 46.88 157.03 45.94C156.24 45.19 155.6 44.3 155.12 43.32C154.49 42.01 154.39 40.66 154.82 39.27C154.92 38.95 155.08 38.73 155.38 38.6C156.38 38.18 157.38 37.77 158.38 37.35C158.82 37.16 159.1 37.35 159.39 37.67C162.1 40.67 164.27 44.13 165.81 47.88C166.65 49.92 167.46 51.98 168.07 54.12C168.16 54.4 168.29 54.68 168.45 54.93C168.5 55.02 168.68 55.07 168.79 55.05C168.85 55.03 168.91 55 168.95 54.96C169 54.91 169.04 54.86 169.06 54.81C169.12 54.64 169.13 54.47 169.11 54.3C169.04 53.92 168.95 53.53 168.83 53.16C167.63 49.48 166.24 45.88 164.26 42.54C163.45 41.19 162.55 39.91 161.56 38.7C161.15 38.2 160.73 37.7 160.31 37.2C160.16 37.02 160.19 36.88 160.4 36.82C161.61 36.46 162.84 36.23 164.09 36.06C164.62 35.98 165.02 36.18 165.34 36.58C165.84 37.18 166.35 37.77 166.83 38.39C169.09 41.33 170.58 44.63 171.52 48.2C171.99 50 172.38 51.83 172.81 53.64C172.89 53.98 172.99 54.31 173.11 54.63C173.12 54.67 173.14 54.71 173.17 54.74C173.2 54.78 173.24 54.8 173.28 54.82C173.32 54.84 173.36 54.85 173.4 54.85C173.45 54.85 173.49 54.84 173.53 54.83C173.64 54.78 173.78 54.66 173.79 54.57C173.82 54.27 173.84 53.96 173.78 53.67C173.58 52.56 173.39 51.44 173.1 50.35C172.69 48.71 172.22 47.09 171.71 45.47C170.67 42.25 168.95 39.4 166.83 36.77C166.67 36.57 166.53 36.36 166.39 36.14C166.37 36.11 166.47 35.95 166.51 35.95C167.06 35.99 167.63 36.01 168.17 36.12C168.4 36.17 168.63 36.38 168.79 36.57C169.23 37.11 169.67 37.65 170.05 38.23C171.87 40.95 173.34 43.84 174.43 46.93C175.07 48.73 175.77 50.52 176.05 52.42C176.26 53.84 176.39 55.26 176.51 56.31ZM84.97 123.91C83.69 123.78 82.2 124.02 80.77 124.6C80.48 124.72 80.24 124.66 80.09 124.42C79.11 122.86 77.71 121.66 76.57 120.23C76.15 119.7 75.55 119.3 75.02 118.86C74.64 118.55 74.17 118.39 73.69 118.41C72.67 118.44 71.84 117.99 71.1 117.36C70.81 117.1 70.56 116.79 70.28 116.52C69.32 115.59 68.23 115.09 66.86 115.56C66.45 115.7 66.02 115.77 65.6 115.89C65.37 115.96 65.23 116.21 65.3 116.39C65.33 116.49 65.4 116.58 65.48 116.65C65.57 116.72 65.67 116.76 65.78 116.77C65.91 116.78 66.04 116.75 66.17 116.72C66.55 116.64 66.93 116.55 67.3 116.46C67.88 116.32 68.46 116.35 68.92 116.73C69.72 117.39 70.48 118.1 71.25 118.8C71.27 118.82 71.24 118.95 71.2 118.98C71.09 119.05 70.97 119.11 70.85 119.16C70.24 119.39 69.63 119.6 69.03 119.85C68.8 119.93 68.63 119.93 68.44 119.76C68.12 119.48 67.77 119.21 67.42 118.96C65.88 117.91 63.96 118.22 62.99 119.77C62.4 120.71 61.76 121.68 61.78 122.88C61.78 123.16 61.65 123.38 61.43 123.55C61.36 123.6 61.29 123.65 61.23 123.72C60.54 124.49 59.7 124.94 58.64 125.02C58.22 125.04 57.83 125.31 57.43 125.46C57.09 125.59 56.88 125.46 56.71 125.12C56.5 124.69 56.58 124.28 56.74 123.86C57.36 122.18 58.21 120.62 59.33 119.22C59.39 119.16 59.44 119.08 59.5 119.03C60.74 117.88 61.32 116.41 61.65 114.8C61.71 114.51 61.76 114.21 61.81 113.91C62.1 112.24 62.97 110.93 64.28 109.9C65.37 109.04 66.57 108.33 67.85 107.78C70.45 106.66 73.12 105.79 75.92 105.3C77.54 105.01 79.19 104.81 80.84 104.87C81.78 104.89 82.72 105.13 83.66 105.3C84.08 105.37 84.5 105.51 84.91 105.64C87.16 106.31 89.4 106.99 91.67 107.54C92.18 107.66 92.67 107.83 93.15 108.04C93.78 108.31 94.19 108.49 93.28 109.12C92.9 109.39 92.6 109.79 92.3 110.16C92.05 110.45 91.84 110.79 91.62 111.11C90.73 112.4 89.48 112.96 87.94 112.96C87.38 112.96 86.81 112.95 86.25 112.98C84.63 113.07 83.23 113.71 81.99 114.73C81.73 114.94 81.52 115.23 81.36 115.53C81.27 115.7 81.31 115.95 81.33 116.16C81.34 116.33 81.73 116.46 81.86 116.35C81.97 116.28 82.06 116.18 82.13 116.08C83.04 114.84 84.36 114.32 85.78 114.03C86.37 113.92 86.99 113.96 87.59 113.96C89.58 113.99 91.27 113.4 92.44 111.69C92.66 111.37 92.86 111.03 93.12 110.74C93.4 110.41 93.72 110.11 94.03 109.81C94.08 109.76 94.2 109.73 94.27 109.75C94.33 109.77 94.38 109.88 94.39 109.96C94.53 111.15 94.3 112.29 93.95 113.42C93.75 114.03 93.48 114.63 93.25 115.24C93.09 115.64 92.92 116.04 92.76 116.44C92.63 116.77 92.62 117.1 92.7 117.46C93.31 119.98 91.89 121.93 90.14 122.93C89.08 123.53 87.89 123.87 86.67 123.9C86.19 123.92 85.71 123.91 84.97 123.91Z" fill="#000000" fill-opacity="1.000000" fill-rule="nonzero"/>
		<path d="M55.31 148.5C54.05 148.51 53.56 147.95 53.78 146.78C53.89 146.23 54.06 145.69 54.2 145.14C54.33 144.59 54.47 144.05 54.6 143.5C54.73 142.97 54.64 142.47 54.47 141.97C54.38 141.7 54.23 141.51 53.97 141.41C53.77 141.33 53.57 141.24 53.38 141.14C52.53 140.74 51.75 139.18 52.33 138.1C52.55 137.69 52.78 137.26 53.08 136.9C54.45 135.25 55.95 133.76 57.82 132.68C58.72 132.15 59.61 131.61 60.51 131.08C60.69 130.97 60.89 130.88 61.06 130.75C62.14 129.94 63.22 129.14 64.26 128.3C65.52 127.27 66.48 125.97 67.51 124.75C68.15 123.98 68.77 123.2 69.44 122.46C70.11 121.71 70.99 121.18 71.97 120.94C72.57 120.78 73.19 120.72 73.77 120.89C75.13 121.31 76.3 122.02 77.13 123.2C77.41 123.59 77.66 124 77.91 124.4C78.61 125.56 78.88 126.81 78.65 128.15C78.61 128.36 78.56 128.57 78.52 128.78C78.36 129.55 78.49 130.24 79.02 130.85C80.04 132.03 80.17 133.38 79.87 134.88C79.53 136.58 78.67 137.92 77.39 139.05C75.21 140.97 72.69 142.49 69.97 143.52C67.9 144.3 65.8 145 63.66 145.56C62.1 145.96 60.61 146.53 59.14 147.2C58.43 147.52 57.72 147.85 57 148.13C56.43 148.35 55.85 148.56 55.31 148.5ZM46.83 127.63C45.47 127.72 44.25 127.39 43.06 126.99C41.7 126.53 40.33 126.16 38.9 125.97C38.13 125.87 37.37 125.68 36.61 125.48C35.2 125.12 33.78 125.16 32.35 125.36C30.46 125.61 28.57 125.88 26.67 126.06C23.47 126.36 20.3 126.83 17.2 127.7C16.24 127.97 15.27 128.2 14.32 128.5C12.6 129.05 11.07 129.92 9.83 131.27C9.77 131.33 9.72 131.42 9.64 131.44C9.49 131.49 9.31 131.54 9.16 131.5C8.9 131.42 8.89 131.2 8.95 130.97C9.12 130.34 9.29 129.71 9.45 129.08C9.78 127.74 10.56 126.72 11.79 126.11C12.88 125.58 14 125.08 15.15 124.71C17.66 123.9 20.21 123.18 22.74 122.42C24.23 121.96 25.73 121.52 27.21 121.02C29.73 120.18 32.08 118.97 34.32 117.53C35.34 116.87 36.37 116.22 37.4 115.57C39.49 114.25 41.71 113.17 43.97 112.15C45.85 111.32 47.83 110.85 49.87 110.63C50.39 110.58 50.9 110.5 51.42 110.46C52.7 110.37 53.94 110.62 55.14 110.99C56.34 111.36 57.52 111.81 58.7 112.24C58.94 112.33 59.18 112.45 59.4 112.59C59.79 112.83 60.03 113.16 59.96 113.66C59.84 114.61 59.76 115.56 59.46 116.48C59.13 117.5 58.49 118.09 57.42 118.2C55.66 118.39 54.47 119.38 53.69 120.9C53.39 121.47 53.17 122.09 52.93 122.69C52.69 123.3 52.47 123.91 52.24 124.52C51.45 126.55 49.82 127.37 47.8 127.62C47.46 127.66 47.11 127.63 46.83 127.63ZM177.59 84.3L177.9 85.55C178.5 88 178.23 90.3 176.62 92.32C176.06 93.03 175.42 93.69 174.77 94.33C173.67 95.44 172.53 96.52 171.42 97.61C169.87 99.15 168.54 100.87 167.4 102.72C166.79 103.71 166.33 104.8 165.8 105.85C165.53 106.39 165.26 106.93 164.96 107.45C164.67 107.95 164.19 108.14 163.63 108.12C163.01 108.1 162.42 107.96 161.9 107.61C160.64 106.78 159.27 106.3 157.76 106.21C157.03 106.17 156.73 105.65 156.47 105.09C156.44 105.03 156.46 104.92 156.48 104.84C156.51 104.76 156.56 104.69 156.62 104.62C158.55 102.5 160.02 100.02 161.77 97.75C163.44 95.58 165.11 93.42 166.9 91.34C168.42 89.56 169.92 87.76 171.44 85.97C172.23 85.04 173.13 84.22 174.18 83.58C174.73 83.23 175.4 83.11 176.05 83.23C176.34 83.28 176.61 83.63 176.87 83.41C177.04 83.28 176.99 82.92 177.1 82.69C177.32 82.23 177.95 81.94 178.56 82.07C179.07 82.18 179.56 82.34 180.03 82.57C180.77 82.93 181.49 83.34 182.18 83.78C183.91 84.86 185.62 85.98 187.2 87.28C188.91 88.69 190.69 90 192.31 91.52C194.44 93.5 196.43 95.63 198.27 97.89C198.57 98.26 198.83 98.66 199.04 99.09C199.44 99.9 199.28 100.47 198.57 101.02C197.91 101.53 197.24 102.01 196.59 102.52C195.49 103.38 194.32 103.55 193.07 102.89C192.5 102.59 191.92 102.27 191.42 101.87C190.1 100.8 188.79 99.73 187.54 98.58C185.35 96.58 183.54 94.24 181.91 91.78C181.04 90.48 180.29 89.1 179.53 87.74C179.15 87.06 178.85 86.33 178.58 85.6C178.37 85.05 178.09 84.6 177.56 84.33L177.49 84.25C177.52 84.27 177.55 84.28 177.59 84.3ZM160.19 62.06C162.07 62.03 163.64 62.75 164.96 64.06C165.3 64.4 165.6 64.77 165.91 65.14C167.03 66.42 168.24 67.59 169.68 68.51C170.63 69.12 171.58 69.73 172.53 70.34C172.89 70.57 173.02 70.94 172.87 71.35C172.82 71.51 172.73 71.66 172.64 71.81C171.97 72.92 171.29 74.03 170.61 75.14C169.79 76.48 168.77 77.68 167.57 78.69C166.35 79.73 165.08 80.72 163.83 81.73C163.73 81.81 163.62 81.87 163.52 81.96C162.78 82.55 161.98 82.71 161.08 82.37C160.72 82.23 160.34 82.14 159.98 81.99C156.76 80.69 153.44 79.67 150.17 78.52C148.54 77.95 146.94 77.26 145.25 76.85C145.17 76.83 145.09 76.79 145 76.76C144.72 76.65 144.62 76.42 144.77 76.14C145.35 74.98 145.88 73.78 146.56 72.67C148.66 69.27 151.43 66.47 154.67 64.14C155.73 63.38 156.9 62.81 158.14 62.38C158.81 62.15 159.48 62.02 160.19 62.06ZM67.01 67.26C67.07 68.65 66.61 70.04 65.86 71.34C65.53 71.9 65.14 72.42 64.49 72.67C64.17 72.8 63.84 72.62 63.84 72.28C63.85 72.03 63.86 71.74 63.97 71.53C64.98 69.55 64.87 67.48 64.35 65.43C63.75 63.12 62.43 61.26 60.44 59.92C60.12 59.7 59.78 59.5 59.43 59.33C57.77 58.51 56.16 58.62 54.6 59.59C53.71 60.15 52.91 60.82 52.22 61.6C51.32 62.61 50.44 63.62 49.57 64.65C48.75 65.64 47.75 66.39 46.64 67.01C45.68 67.56 44.63 67.8 43.53 67.86C40.42 68.02 37.72 66.98 35.43 64.92C32.7 62.47 31.18 59.38 30.66 55.76C30.45 54.31 30.55 52.9 30.75 51.48C30.83 50.92 30.98 50.38 31.43 49.97C31.67 49.76 32.1 49.8 32.21 50.07C33.04 52.13 34.71 53.08 36.74 53.59C38.07 53.92 39.41 53.85 40.75 53.69C43.12 53.41 45.49 53.06 47.86 52.85C50.97 52.56 54.03 52.84 56.94 54.05C61.04 55.75 64.12 58.54 66.03 62.58C66.7 64.01 67.02 65.53 67.01 67.26L67.01 67.26ZM139.5 110.34C139.51 110.26 139.56 109.92 139.64 109.59C139.87 108.66 140.24 107.78 140.71 106.94C140.85 106.67 140.83 106.45 140.63 106.23C138.75 104.16 137.31 101.77 135.76 99.47C135.16 98.58 134.77 97.55 134.29 96.57C134.12 96.22 133.99 95.85 133.85 95.49C133.42 94.38 132.63 93.61 131.58 93.07C131.28 92.91 130.96 92.76 130.66 92.59C130.06 92.24 129.99 91.98 130.37 91.45C130.67 91.03 131.01 90.63 131.37 90.25C132.13 89.42 132.97 88.66 133.68 87.79C134.46 86.84 135.44 86.1 136.29 85.24C136.47 85.06 136.78 85.04 137.01 85.23C137.38 85.53 137.76 85.82 138.07 86.18C138.99 87.25 140.07 88.09 141.29 88.79C141.92 89.16 142.46 89.69 143.01 90.18C144.76 91.74 146.51 93.3 148.24 94.88C149.3 95.84 150.34 96.84 151.38 97.82C151.55 97.97 151.69 98.12 151.83 98.3C152.21 98.81 152.35 99.33 152.01 99.97C150.7 102.53 149.31 105.03 147.34 107.16C146.48 108.08 145.64 109.02 144.75 109.91C144.3 110.37 143.78 110.78 143.25 111.16C142.66 111.61 141.97 111.88 141.26 112.11C140.18 112.45 139.61 111.95 139.5 110.87C139.49 110.79 139.5 110.7 139.5 110.34L139.5 110.34ZM144.73 77.46C145.11 77.55 145.5 77.59 145.86 77.71C146.52 77.94 147.16 78.19 147.81 78.45C150.94 79.72 153.98 81.2 156.98 82.78C158.74 83.71 160.52 84.62 162.29 85.54C162.4 85.6 162.53 85.64 162.64 85.71C163.28 86.09 163.44 86.89 163 87.5C162.95 87.56 162.89 87.63 162.82 87.69C161.87 88.54 161.21 89.61 160.49 90.64C159.18 92.48 157.52 93.9 155.45 94.84C154.51 95.27 153.62 95.31 152.73 94.76C152.29 94.49 151.82 94.25 151.38 93.97C149.34 92.65 147.32 91.31 145.27 89.99C143.92 89.13 142.55 88.29 141.17 87.48C140.48 87.08 139.89 86.6 139.44 85.94C138.95 85.23 138.52 84.47 137.8 83.93C137.61 83.8 137.58 83.56 137.64 83.34C137.72 83.05 137.83 82.77 137.96 82.5C138.06 82.31 138.2 82.14 138.37 82C139.68 80.79 140.9 79.5 142.34 78.44C142.66 78.21 142.99 78.01 143.34 77.83C143.76 77.59 144.24 77.47 144.73 77.46Z" fill="#000000" fill-opacity="1.000000" fill-rule="nonzero"/>
		<path d="M127.68 114.97C127.76 114.57 127.82 113.96 127.99 113.39C128.19 112.73 128.16 112.11 127.89 111.49C127.66 110.98 127.46 110.45 127.19 109.95C125.16 106.05 123.75 101.9 122.41 97.73C122.37 97.61 122.32 97.49 122.29 97.36C122.21 96.99 122.29 96.67 122.59 96.42C123.7 95.52 124.84 94.65 126.18 94.1C126.75 93.87 127.32 93.71 127.95 93.7C128.29 93.69 128.62 93.59 128.96 93.53C129.26 93.48 129.56 93.4 129.86 93.38C130.27 93.36 130.62 93.5 130.86 93.86C130.96 94.01 131.05 94.15 131.14 94.3C133.39 97.96 135.65 101.61 137.91 105.26C138.29 105.89 138.67 106.54 139.14 107.09C139.55 107.57 139.55 108.02 139.35 108.53C139.24 108.81 139.07 109.07 138.92 109.33C137.01 112.42 134.43 114.82 131.44 116.83C130.9 117.19 130.3 117.46 129.66 117.61C128.71 117.84 128.03 117.43 127.82 116.47C127.73 116.05 127.74 115.61 127.68 114.97ZM121.99 125.84C121.98 125.13 122.17 124.46 122.44 123.82C122.52 123.62 122.61 123.39 122.76 123.26C123.53 122.57 124.17 121.73 125.11 121.23C126.57 120.46 128.04 119.69 129.63 119.24C132.24 118.51 134.66 117.34 137.08 116.16C139.46 114.99 141.74 113.64 143.94 112.16C145.05 111.41 146.24 110.76 147.42 110.11C148.63 109.44 149.87 108.81 151.12 108.2C151.7 107.91 152.32 107.71 152.94 107.51C153.57 107.31 154.21 107.36 154.87 107.47C155.46 107.58 155.91 107.85 156.3 108.28C157.14 109.21 157.35 110.36 157.39 111.55C157.4 112.08 157.14 112.57 156.71 112.91C156.19 113.3 155.67 113.71 155.1 114.01C152.65 115.32 150.13 116.48 147.43 117.22C145.88 117.64 144.36 118.14 142.83 118.63C139.83 119.59 137.07 121.05 134.32 122.55C133.03 123.25 131.73 123.97 130.46 124.71C129.67 125.17 128.92 125.69 128.16 126.19C127.43 126.67 126.74 127.18 126 127.65C125.64 127.88 125.24 128.07 124.83 128.19C123.38 128.64 122.09 127.74 121.99 126.23C121.98 126.1 121.99 125.97 121.99 125.84ZM105.39 116.04C105.4 117.04 105.19 118.04 104.79 118.96C104.48 119.67 104.01 120.21 103.3 120.53C102.2 121.04 101.08 121.49 99.85 121.65C97.61 121.94 95.4 122.4 93.31 123.3C92.99 123.44 92.66 123.55 92.32 123.63C92.17 123.67 91.98 123.63 91.82 123.59C91.64 123.54 91.48 123.21 91.56 123.05C91.66 122.86 91.78 122.68 91.91 122.51C93.03 121.02 93.73 119.37 93.9 117.5C93.99 116.45 94.31 115.47 94.79 114.53C95.48 113.13 95.73 111.65 95.68 110.11C95.65 109.29 95.36 108.58 94.92 107.92C94.45 107.23 93.74 106.94 92.94 106.79C92.09 106.63 91.25 106.4 90.39 106.27C89.8 106.18 89.34 105.88 88.88 105.56C88.59 105.36 88.64 104.99 88.96 104.81C89.12 104.73 89.28 104.67 89.44 104.62C90.6 104.24 91.79 103.97 93 103.87C94.38 103.75 95.77 103.71 97.16 103.62C97.68 103.58 98.19 103.52 98.71 103.46C99.62 103.35 100.52 103.34 101.42 103.56C102.44 103.8 103.01 104.39 103.13 105.42C103.19 105.98 103.31 106.55 103.28 107.11C103.2 108.41 103.58 109.59 104.03 110.77C104.4 111.74 104.76 112.72 105.03 113.73C105.23 114.48 105.28 115.27 105.39 116.04ZM33.14 126.02C34.68 126.04 36.17 126.31 37.65 126.65C39.84 127.16 42.03 127.69 44.23 128.18C44.99 128.35 45.77 128.48 46.54 128.56C48.01 128.7 49.38 128.37 50.64 127.57C51.15 127.24 51.66 126.9 52.2 126.64C52.67 126.42 53.17 126.28 53.67 126.14C53.87 126.09 54.1 126.13 54.31 126.17C54.62 126.24 54.79 126.64 54.62 126.9C54.51 127.08 54.37 127.26 54.22 127.4C53.51 128.04 52.8 128.69 52.06 129.29C51.08 130.09 49.9 130.37 48.67 130.46C47.59 130.55 46.51 130.62 45.43 130.69C43.91 130.78 42.41 130.96 40.9 131.17C39.83 131.32 38.75 131.41 37.67 131.48C35.94 131.61 34.2 131.68 32.47 131.81C30.79 131.93 29.1 132.11 27.42 132.22C25.17 132.37 22.91 132.48 20.66 132.59C18.97 132.68 17.28 132.71 15.59 132.85C14.29 132.95 13.03 133.24 11.87 133.89C11.3 134.21 10.71 134.48 10.11 134.74C10.02 134.78 9.83 134.74 9.77 134.67C9.66 134.55 9.56 134.37 9.58 134.23C9.61 134.03 9.73 133.82 9.85 133.65C10.33 132.99 10.81 132.31 11.33 131.67C12.37 130.41 13.6 129.46 15.22 129C18.31 128.13 21.42 127.33 24.6 126.89C26.53 126.62 28.48 126.47 30.42 126.28C31.33 126.18 32.24 126.11 33.14 126.02ZM173.08 120.03C173.03 120.67 172.86 121.25 172.53 121.78C171.91 122.77 171.27 123.75 170.64 124.73C170.57 124.84 170.49 124.94 170.4 125.04C169.96 125.54 169.49 125.67 168.89 125.37C168.43 125.13 167.99 124.85 167.58 124.53C166.9 123.99 166.26 123.4 165.58 122.86C164.57 122.05 163.53 121.26 162.5 120.46C161.96 120.04 161.41 119.62 160.87 119.19C159.68 118.25 159.05 117.02 158.82 115.54C158.63 114.34 158.38 113.15 158.13 111.97C157.91 110.89 157.9 109.81 158.01 108.73C158.05 108.3 158.27 108.08 158.72 107.94C159.23 107.78 159.58 107.85 160.03 108.14C162.09 109.49 164.2 110.79 166.28 112.11C166.65 112.34 167 112.59 167.34 112.87C168.62 113.97 169.9 115.08 171.16 116.21C172.16 117.1 172.83 118.19 173.01 119.54C173.04 119.71 173.06 119.88 173.08 120.03ZM119.6 124.74C119.45 125.77 119.3 126.76 118.89 127.68C118.75 127.99 118.59 128.31 118.36 128.57C117.85 129.15 117.33 129.74 116.75 130.26C115.75 131.15 114.7 131.99 113.67 132.85C111.78 134.44 109.89 136.04 107.99 137.62C107.49 138.04 106.99 138.46 106.46 138.83C106.11 139.07 105.71 139.24 105.31 139.41C104.93 139.57 104.66 139.47 104.41 139.14C104.28 138.96 104.16 138.78 104.07 138.59C103.79 137.99 103.35 137.64 102.7 137.5C102.41 137.43 102.12 137.33 101.85 137.2C101.53 137.04 101.38 136.67 101.46 136.31C101.65 135.55 101.94 134.82 102.49 134.24C103.05 133.63 103.64 133.07 104.28 132.54C104.88 132.05 105.54 131.63 106.2 131.21C106.9 130.75 107.47 130.17 107.95 129.49C108.84 128.21 109.76 126.95 110.7 125.71C111.92 124.11 113.29 122.67 114.92 121.49C115.23 121.26 115.5 120.97 115.8 120.72C116.02 120.52 116.26 120.5 116.51 120.66C117.05 121.02 117.61 121.35 118.13 121.74C119.13 122.5 119.6 123.53 119.6 124.74ZM29.49 155.87C29.05 155.8 28.53 155.72 28.03 155.62C25.82 155.17 23.62 154.7 21.38 154.42C19.7 154.22 18.05 153.88 16.38 153.61C15.39 153.46 14.41 153.3 13.42 153.22C10.58 152.98 7.88 152.23 5.25 151.2C4.36 150.85 3.5 150.44 2.61 150.09C1.8 149.76 1.67 149 1.52 148.31C1.41 147.81 1.76 147.41 2.15 147.1C2.22 147.04 2.3 147.01 2.38 147C2.47 146.99 2.56 147.01 2.63 147.06C2.86 147.19 3.08 147.32 3.32 147.43C5.35 148.43 7.5 148.81 9.75 148.63C10.53 148.56 11.31 148.52 12.09 148.5C13.43 148.48 14.78 148.51 16.12 148.49C16.73 148.48 17.33 148.4 17.93 148.35C18.1 148.34 18.28 148.33 18.45 148.33C19.57 148.37 20.7 148.45 21.83 148.46C24.41 148.48 26.66 149.35 28.65 150.95C29.6 151.72 30.54 152.49 31.47 153.27C31.73 153.49 31.97 153.74 32.18 154.02C32.45 154.39 32.37 154.88 32.02 155.19C31.66 155.52 31.21 155.7 30.74 155.77C30.35 155.83 29.96 155.84 29.49 155.87ZM125.95 112.53C125.99 113.14 125.83 113.67 125.51 114.16C124.62 115.5 123.65 116.78 122.48 117.89C122.05 118.3 121.5 118.59 120.97 118.89C120.66 119.06 120.21 118.8 120.19 118.45C120.18 118.1 120.2 117.75 120.25 117.41C120.33 116.85 120.45 116.3 120.54 115.75C120.82 114.2 120.67 112.7 119.87 111.34C118.81 109.54 118 107.62 117.11 105.74C116.37 104.17 115.77 102.54 115.11 100.94C115.06 100.82 115.02 100.69 114.99 100.57C114.78 99.75 114.86 99.05 115.6 98.48C116.52 97.76 117.38 96.96 118.28 96.21C118.51 96.02 118.77 95.86 119.05 95.73C119.81 95.39 120.38 95.55 120.87 96.22C121.2 96.69 121.39 97.21 121.53 97.77C121.84 99.07 122.18 100.38 122.52 101.67C122.63 102.09 122.8 102.49 122.95 102.9C123.44 104.29 123.94 105.68 124.42 107.07C124.81 108.22 125.2 109.37 125.58 110.52C125.79 111.18 126.01 111.84 125.95 112.53ZM72.14 151.13C71.82 151.05 71.48 151 71.16 150.88C70.54 150.63 70.37 149.9 70.78 149.37C70.95 149.16 71.14 148.99 71.36 148.85C71.84 148.55 72.33 148.27 72.83 148.01C76.59 146.03 80.52 144.42 84.54 143.02C85.64 142.64 86.74 142.23 87.83 141.82C89.66 141.14 91.56 140.68 93.45 140.21C94.16 140.03 94.89 139.96 95.61 139.85C96.81 139.66 97.99 139.39 99.04 138.74C99.88 138.22 100.76 137.91 101.76 138.04C102.05 138.08 102.36 138.14 102.63 138.25C103.42 138.56 103.62 138.9 103.56 139.75C103.54 140.02 103.46 140.26 103.25 140.44C102.86 140.78 102.48 141.14 102.07 141.45C99.7 143.23 97.08 144.4 94.11 144.74C93.94 144.76 93.77 144.76 93.59 144.77C89.19 144.94 85.05 146.13 81.09 147.99C78.57 149.17 76.03 150.24 73.32 150.91C72.94 151 72.56 151.05 72.14 151.13ZM114.66 120.28C114.36 120.72 114.09 121.22 113.72 121.64C113.39 122.03 112.98 122.37 112.57 122.68C111.26 123.64 110.21 124.85 109.19 126.09C108.56 126.87 107.93 127.64 107.27 128.39C106.34 129.45 105.19 130.22 103.88 130.74C103.04 131.08 102.19 131.42 101.33 131.71C99.19 132.41 97.06 133.16 95.21 134.52C94.94 134.71 94.67 134.63 94.61 134.33C94.48 133.56 94.09 132.97 93.53 132.46C93.31 132.26 93.16 131.98 93.02 131.71C92.82 131.35 92.82 130.99 92.98 130.59C93.29 129.8 93.74 129.16 94.49 128.71C96.76 127.36 99.08 126.09 101.45 124.91C103.12 124.07 104.8 123.27 106.47 122.44C108.46 121.46 110.51 120.65 112.68 120.18C113.26 120.06 113.88 120.08 114.48 120.05C114.52 120.05 114.57 120.16 114.66 120.28ZM175.38 73.23C175.23 75.51 174.69 77.46 173.69 79.27C172.78 80.92 171.69 82.43 170.52 83.88C169.4 85.27 168.19 86.58 167.1 87.99C163.85 92.17 160.62 96.37 157.41 100.58C156.22 102.14 154.98 103.65 153.57 105C153.26 105.3 152.97 105.63 152.66 105.93C152.54 106.05 152.38 106.14 152.23 106.21C152.01 106.32 151.66 106.07 151.69 105.82C151.73 105.61 151.79 105.4 151.86 105.2C152.15 104.38 152.46 103.57 152.74 102.75C153.24 101.26 154.04 99.92 154.78 98.54C155.07 98.01 155.39 97.49 155.67 96.95C155.97 96.37 156.4 95.87 156.92 95.48C157.52 95.04 158.09 94.58 158.71 94.17C159.66 93.55 160.51 92.82 161.33 92.04C163.24 90.21 164.27 87.98 164.42 85.35C164.46 84.74 164.66 84.26 165.11 83.87C165.54 83.5 165.96 83.13 166.42 82.8C167.45 82.05 168.32 81.16 169.11 80.17C170.83 78.04 172.52 75.89 174 73.58C174.19 73.3 174.43 73.04 174.67 72.79C174.87 72.59 175.21 72.68 175.3 72.95C175.34 73.04 175.36 73.13 175.38 73.23Z" fill="#000000" fill-opacity="1.000000" fill-rule="nonzero"/>
		<path d="M112.99 113.48C112.65 115.06 112.26 116.57 111.73 118.03C111.64 118.26 111.43 118.46 111.24 118.64C109.39 120.29 107.21 121.54 104.85 122.31C104.69 122.37 104.51 122.38 104.34 122.35C104.19 122.32 104 122.22 103.94 122.09C103.89 121.98 103.96 121.75 104.06 121.66C104.27 121.44 104.55 121.29 104.78 121.1C105.49 120.49 105.97 119.73 106.14 118.8C106.21 118.41 106.31 118.04 106.43 117.67C107.08 115.72 107.06 113.81 106.06 111.99C105.24 110.5 104.98 108.89 104.81 107.24C104.77 106.81 104.71 106.38 104.63 105.96C104.52 105.35 104.23 104.8 103.81 104.36C103.29 103.82 103.33 103.58 103.88 103.08C104.01 102.97 104.14 102.85 104.29 102.76C105.28 102.14 106.27 101.51 107.28 100.91C107.81 100.61 108.2 100.69 108.5 101.22C108.87 101.85 109.19 102.52 109.44 103.21C109.72 103.99 109.94 104.78 110.11 105.59C110.48 107.4 111.21 109.06 112.03 110.7C112.26 111.16 112.49 111.63 112.66 112.12C112.81 112.57 112.88 113.04 112.99 113.48ZM201.74 94.22C199.72 94.18 197.86 93.7 196.24 92.46C195.52 91.91 194.8 91.34 194.1 90.76C191.95 88.99 189.83 87.2 187.68 85.44C185.98 84.07 184.14 82.92 182.12 82.1C181.6 81.88 181.05 81.74 180.52 81.54C180.22 81.43 180.19 81.01 180.45 80.8C180.74 80.58 181.05 80.44 181.42 80.53C182.17 80.71 182.94 80.87 183.68 81.11C187.31 82.31 190.83 83.79 194.33 85.31C197.04 86.49 199.77 87.6 202.48 88.76C203.16 89.05 203.83 89.37 204.45 89.76C205.54 90.46 205.77 91.08 205.43 92.31C205.16 93.25 204.62 93.93 203.54 94.02C202.94 94.08 202.34 94.16 201.74 94.22ZM89.3 138.59C88.22 138.62 87.14 138.61 86.08 138.31C84.8 137.96 83.83 137.19 83.06 136.17C82.11 134.94 82.19 132.96 83.18 131.67C84.55 129.89 86.24 128.63 88.54 128.31C89.53 128.17 90.5 127.93 91.5 128.08C91.63 128.11 91.77 128.11 91.89 128.14C92.49 128.34 92.75 128.72 92.44 129.33C92.36 129.48 92.29 129.64 92.21 129.8C91.77 130.62 91.79 131.43 92.16 132.29C92.84 133.88 92.82 133.89 94.17 135.43C94.65 135.98 94.62 136.95 94.08 137.42C93.28 138.13 92.34 138.56 91.25 138.59C90.6 138.6 89.95 138.59 89.3 138.59Z" fill="#000000" fill-opacity="1.000000" fill-rule="nonzero"/>
		<path d="M113.61 117.83C113.74 117.14 113.9 116.42 114 115.69C114.12 114.92 114.2 114.15 114.24 113.37C114.28 112.26 113.93 111.24 113.32 110.31C112.84 109.58 112.34 108.86 111.96 108.09C111.37 106.89 110.78 105.67 110.35 104.41C109.96 103.3 109.99 102.1 110 100.93C110 100.7 110.15 100.47 110.37 100.46C110.94 100.44 111.33 100.09 111.78 99.84C112.01 99.72 112.24 99.58 112.48 99.5C113.24 99.25 113.72 99.42 114.13 100.1C114.99 101.52 115.52 103.08 116.03 104.65C116.36 105.64 116.73 106.61 117.06 107.59C117.45 108.78 117.81 109.99 118.19 111.18C118.43 111.92 118.69 112.66 118.92 113.41C119.25 114.46 118.99 115.38 118.25 116.16C117.51 116.96 116.75 117.72 115.96 118.46C115.61 118.78 115.18 119.02 114.76 119.23C114.26 119.47 113.81 119.2 113.69 118.64C113.64 118.39 113.64 118.13 113.61 117.83ZM179.67 137.98C179.73 137.67 179.79 137.29 179.88 136.91C180.32 135.22 180.93 133.61 181.82 132.1C183.82 128.74 185.62 125.27 187.22 121.71C187.59 120.88 188.05 120.09 188.47 119.28C188.99 118.28 189.97 117.99 190.94 117.77C191.72 117.6 192.48 118.53 192.34 119.41C192.27 119.88 192.11 120.34 191.91 120.77C191.56 121.52 191.19 122.26 190.75 122.95C189.27 125.31 188.06 127.81 186.94 130.36C186.16 132.15 185.25 133.87 184.07 135.45C183.13 136.72 181.91 137.7 180.76 138.75C180.57 138.93 180.33 139.06 180.05 138.95C179.81 138.86 179.66 138.56 179.67 138.19L179.67 137.98ZM215.35 113.67C215.34 114.35 214.88 114.68 214.36 114.5C213.78 114.3 213.29 113.93 212.84 113.52C211.59 112.36 210.48 111.09 209.55 109.66C207.83 107.02 206.65 104.14 205.74 101.14C205.61 100.73 205.57 100.29 205.46 99.87C205.29 99.2 205.17 98.5 204.88 97.88C204.48 97.02 204.57 96.29 205.15 95.58C205.26 95.45 205.34 95.29 205.47 95.18C205.73 94.95 205.99 94.6 206.28 94.58C206.7 94.55 207.02 94.96 207.32 95.25C207.49 95.43 207.59 95.69 207.71 95.92C209.4 99.21 210.92 102.56 212.08 106.08C212.33 106.85 212.72 107.59 213.04 108.35C213.21 108.74 213.36 109.15 213.54 109.54C213.64 109.77 213.76 110 213.9 110.21C214.52 111.12 214.9 112.14 215.26 113.16C215.33 113.36 215.33 113.58 215.35 113.67ZM174.73 123.66C174.62 126.29 174.22 128.72 173.29 131.04C172.94 131.92 172.49 132.78 172 133.59C171.42 134.56 170.93 135.58 170.56 136.64C169.55 139.55 168.78 142.53 167.94 145.49C167.86 145.78 167.76 146.07 167.62 146.33C167.46 146.6 167.01 146.6 166.85 146.32C166.73 146.1 166.63 145.85 166.59 145.6C166.44 144.61 166.48 143.6 166.64 142.62C167.11 139.66 167.59 136.71 168.14 133.77C168.5 131.85 169.07 129.98 170.14 128.32C170.52 127.73 170.77 127.07 170.9 126.39C171.18 125 171.88 123.8 172.55 122.59C172.74 122.26 173.03 121.97 173.32 121.72C173.86 121.24 174.64 121.58 174.67 122.25C174.68 122.77 174.72 123.29 174.73 123.66ZM193.1 117.24C192.8 117.19 192.5 117.16 192.2 117.09C191.58 116.93 190.95 116.76 190.33 116.58C190.16 116.53 190 116.47 189.84 116.4C189.41 116.2 189.21 115.8 189.34 115.33C189.42 115.04 189.54 114.76 189.69 114.5C191.04 112.32 192.05 109.97 193.18 107.67C194.39 105.21 196.26 103.29 198.43 101.65C198.95 101.25 199.52 101.14 200.12 101.47C200.37 101.61 200.51 101.84 200.46 102.12C200.41 102.41 200.31 102.7 200.22 102.99C199.71 104.47 198.99 105.85 198.25 107.23C197.92 107.84 197.58 108.44 197.26 109.05C196.46 110.56 195.93 112.15 195.78 113.86C195.74 114.34 195.62 114.8 195.49 115.26C195.42 115.55 195.28 115.83 195.13 116.09C194.68 116.86 194.04 117.32 193.1 117.24ZM62.86 81.48C62.84 81.15 62.82 80.94 62.81 80.72C62.81 80.47 62.98 80.33 63.2 80.26C63.44 80.18 63.76 80.36 63.8 80.62C64.01 82.06 64.66 83.35 65.09 84.71C65.54 86.11 65.93 87.54 65.99 89.02C66.02 89.91 65.92 90.76 65.43 91.53C65.34 91.67 65.26 91.83 65.15 91.96C63.91 93.51 62.53 93.55 61.11 92.32C60.2 91.52 59.88 90.46 60.06 89.25C60.17 88.48 60.41 87.73 60.76 87.03C61.22 86.1 61.7 85.17 62.17 84.24C62.63 83.34 62.9 82.39 62.86 81.48ZM65.87 119.45C65.98 119.46 66.2 119.47 66.41 119.53C66.75 119.61 67.05 119.8 67.26 120.08C67.47 120.36 67.58 120.71 67.56 121.06C67.55 121.36 67.52 121.67 67.42 121.95C66.83 123.62 65.97 125.12 64.59 126.25C63.85 126.85 63.06 127.39 62.28 127.93C61.63 128.38 60.89 128.64 60.12 128.82C59.96 128.86 59.78 128.86 59.61 128.85C59.25 128.82 59.01 128.34 59.23 128.06C59.44 127.79 59.7 127.55 59.95 127.32C60.43 126.88 60.93 126.46 61.4 126.01C61.91 125.51 62.23 124.92 62.3 124.18C62.37 123.5 62.49 122.81 62.61 122.13C62.91 120.41 64.06 119.44 65.87 119.45ZM222.23 119.53C222.05 119.49 221.67 119.41 221.3 119.31C219.28 118.78 217.78 117.53 216.59 115.86C216.47 115.68 216.37 115.49 216.29 115.29C216.11 114.88 216.41 114.64 216.64 114.39C216.81 114.2 217.07 114.21 217.35 114.38C217.57 114.52 217.78 114.68 217.99 114.82C219.19 115.6 220.38 116.38 221.58 117.16C221.94 117.4 222.31 117.63 222.65 117.89C222.86 118.05 223.04 118.23 223.2 118.43C223.37 118.64 223.48 118.88 223.33 119.15C223.2 119.4 222.98 119.52 222.7 119.53C222.61 119.53 222.53 119.53 222.23 119.53ZM133.47 33.48C133.65 33.46 133.76 33.52 133.73 33.73L133.75 33.71C133.57 33.72 133.48 33.63 133.49 33.45L133.47 33.48ZM133.49 33.45C133.32 33.44 133.24 33.36 133.24 33.19L133.21 33.22C133.37 33.23 133.47 33.3 133.46 33.48L133.49 33.45Z" fill="#000000" fill-opacity="1.000000" fill-rule="nonzero"/>
		<path d="M133.24 33.19L132.99 32.93L132.96 32.95L133.21 33.22L133.24 33.19ZM132.99 32.93L132.91 32.89L132.96 32.95L132.99 32.93ZM130.1 18.87L130.21 18.75C130.2 18.77 130.2 18.82 130.19 18.83C130.15 18.85 130.11 18.84 130.08 18.85L130.1 18.87Z" fill="#000000" fill-opacity="1.000000" fill-rule="nonzero"/>
	</g>
</svg>
