<svg width="436.000000" height="658.000000" viewBox="0 0 436 658" fill="none" xmlns="http://www.w3.org/2000/svg" xmlns:xlink="http://www.w3.org/1999/xlink">
	<desc>
			Created with Pixso.
	</desc>
	<defs>
		<clipPath id="clip1_250">
			<rect rx="0.000000" width="435.000000" height="657.000000" transform="translate(0.500000 0.500000)" fill="white" fill-opacity="0"/>
		</clipPath>
	</defs>
	<g clip-path="url(#clip1_250)">
		<path d="M435 656.48L1.39 656.48L0.99 137.54C0.99 137.54 23.59 131.52 26.6 120.96C36.95 84.75 78.88 94.73 78.88 94.73C76.81 85.7 85.96 75.53 93.91 69.7C100.09 65.16 107.48 61.75 115.55 59.76C126.6 57.02 139.55 56.39 150.72 59.01C152.24 59.36 153.76 59.75 155.2 60.27C155.93 60.53 157.97 61.17 158.24 61.86C151.6 43.75 164.6 27.52 189.81 23.36C215.02 19.2 217.15 1.51 217.15 1.51C217.15 1.51 219.27 19.2 244.48 23.36C269.69 27.52 282.7 43.75 276.06 61.86C276.31 61.16 278.36 60.53 279.09 60.27C280.53 59.75 282.05 59.36 283.57 59C294.74 56.39 307.69 57.02 318.74 59.76C326.8 61.75 334.2 65.16 340.38 69.7C348.33 75.53 357.48 85.7 355.41 94.73C355.41 94.73 397.33 84.74 407.69 120.96C410.7 131.52 434.58 137.78 434.58 137.78L435 656.48Z" fill="#CFFD3C" fill-opacity="1.000000" fill-rule="nonzero"/>
		<path d="M1.39 656.48L0.99 137.54C0.99 137.54 23.59 131.52 26.6 120.96C36.95 84.75 78.88 94.73 78.88 94.73C76.81 85.7 85.96 75.53 93.91 69.7C100.09 65.16 107.48 61.75 115.55 59.76C126.6 57.02 139.55 56.39 150.72 59.01C152.24 59.36 153.76 59.75 155.2 60.27C155.93 60.53 157.97 61.17 158.24 61.86C151.6 43.75 164.6 27.52 189.81 23.36C215.02 19.2 217.15 1.51 217.15 1.51C217.15 1.51 219.27 19.2 244.48 23.36C269.69 27.52 282.7 43.75 276.06 61.86C276.31 61.16 278.36 60.53 279.09 60.27C280.53 59.75 282.05 59.36 283.57 59C294.74 56.39 307.69 57.02 318.74 59.76C326.8 61.75 334.2 65.16 340.38 69.7C348.33 75.53 357.48 85.7 355.41 94.73C355.41 94.73 397.33 84.74 407.69 120.96C410.7 131.52 434.58 137.78 434.58 137.78L435 656.48L1.39 656.48Z" stroke="#000000" stroke-opacity="1.000000" stroke-width="1.249796"/>
	</g>
</svg>
