<svg width="225.000000" height="156.000000" viewBox="0 0 225 156" fill="none" xmlns="http://www.w3.org/2000/svg" xmlns:xlink="http://www.w3.org/1999/xlink">
	<desc>
			Created with Pixso.
	</desc>
	<defs>
		<clipPath id="clip1_230">
			<rect rx="0.000000" width="224.000000" height="155.000000" transform="translate(0.500000 0.500000)" fill="white" fill-opacity="0"/>
		</clipPath>
	</defs>
	<g clip-path="url(#clip1_230)">
		<path d="M133.69 0.12C131.57 0.09 129.93 0.43 128.44 1.14C124.31 3.11 123.79 7.04 125.28 9.95C125.4 10.18 125.54 10.41 125.7 10.6C126.65 11.69 127.37 12.93 128.12 14.15C129.49 16.38 131.03 18.48 132.93 20.29C135.19 22.45 137.8 23.89 140.92 24.35C141.58 24.45 142.19 24.67 142.69 25.12C142.81 25.23 142.89 25.4 142.95 25.55C143.03 25.78 142.71 26.13 142.5 26.05C142.3 25.98 142.1 25.89 141.92 25.78C141.55 25.55 141.13 25.41 140.7 25.34C136.7 24.7 133.54 22.61 130.88 19.64C129.52 18.11 128.35 16.44 127.27 14.7C127.06 14.37 126.81 14.05 126.67 13.69C126.23 12.54 125.28 12.54 124.32 12.63C124.05 12.65 123.77 12.88 123.57 13.09C123.24 13.45 123.09 13.91 123.07 14.4C123 15.84 123.08 17.26 123.63 18.63C124.32 20.34 125.31 21.86 126.55 23.22C127.92 24.74 129.46 26.09 131.1 27.31C131.55 27.64 132.03 27.95 132.54 28.19C134.64 29.22 136.75 30.25 138.88 31.22C139.63 31.56 140.43 31.78 141.23 31.98C142.64 32.34 143.8 31.85 144.67 30.73C145.13 30.15 145.51 29.51 145.92 28.9C146.72 27.71 147.71 26.66 148.86 25.79C150.4 24.63 152.14 24.03 154.04 23.86C154.64 23.81 155.25 23.85 155.84 23.96C156.59 24.1 157.1 23.81 157.54 23.27C157.57 23.24 157.6 23.2 157.62 23.17C158.87 21.28 160.11 19.4 161.35 17.51C161.52 17.26 161.64 16.98 161.77 16.71C161.87 16.52 161.78 16.36 161.61 16.29C160.65 15.88 159.65 15.95 158.66 16.09C157.71 16.22 156.8 16.51 155.9 16.86C154.93 17.24 153.93 17.48 152.89 17.65C151.56 17.86 150.19 17.78 148.9 17.39C147.11 16.86 145.37 16.19 143.61 15.58C143.45 15.52 143.29 15.42 143.15 15.33C142.94 15.21 142.84 14.94 142.94 14.78C142.99 14.69 143.08 14.61 143.18 14.57C143.28 14.53 143.39 14.53 143.5 14.56C143.88 14.64 144.25 14.76 144.62 14.89C145.77 15.29 146.92 15.68 148.06 16.1C150.44 16.99 152.81 16.94 155.18 16.05C156.11 15.7 157.08 15.43 158.05 15.19C159.33 14.87 160.63 14.88 161.9 15.29C162.25 15.4 162.35 15.31 162.44 14.95C162.77 13.74 162.57 12.53 162.37 11.34C162.29 10.81 161.97 10.37 161.59 10.01C159.85 8.34 157.98 6.88 155.54 6.35C154.06 6.03 152.59 5.66 151.11 5.31C149.42 4.92 147.77 4.33 146.22 3.57C145.36 3.14 144.49 2.75 143.62 2.35C141.19 1.22 138.61 0.68 135.97 0.35C135.07 0.23 134.16 0.17 133.69 0.12ZM192.98 47.59C192.9 46.28 192.81 45.29 192.78 44.29C192.75 43.55 192.75 42.81 192.84 42.08C193.02 40.63 192.67 39.33 191.95 38.09C191.55 37.42 191.07 36.79 190.47 36.28C188.15 34.28 186.32 31.85 184.38 29.5C182.88 27.7 181.43 25.85 179.91 24.07C177.46 21.22 174.67 18.74 171.46 16.77C170.62 16.25 169.7 15.83 168.8 15.4C167.88 14.96 166.89 14.89 165.88 14.86C165.53 14.84 165.18 14.9 164.86 15.03C164.54 15.16 164.24 15.35 164 15.6C163.54 16.06 163.09 16.54 162.72 17.07C162.19 17.81 161.71 18.59 161.29 19.4C160.64 20.67 159.9 21.91 159.09 23.09C158.49 23.96 158.04 24.88 158.19 25.99C158.21 26.16 158.19 26.34 158.16 26.51C157.78 29.3 158.34 31.96 159.29 34.55C159.64 35.5 160.18 36.34 160.78 37.14C162.9 39.98 165.39 42.46 168.16 44.65C169.9 46.03 171.86 47.07 173.85 48.07C174.97 48.64 176.09 49.22 177.2 49.81C177.89 50.18 178.54 50.61 179.09 51.18C179.23 51.32 179.47 51.49 179.64 51.46C180.13 51.38 180.58 51.6 181.04 51.63C181.82 51.68 182.61 51.7 183.38 51.62C184.15 51.53 184.92 51.37 185.65 51.08C186.01 50.94 186.41 50.9 186.79 50.8C186.95 50.76 187.02 50.52 186.89 50.39C186.68 50.17 186.48 49.93 186.24 49.75C185.63 49.26 185.02 48.77 184.37 48.34C182.85 47.34 181.29 46.38 179.76 45.39C177.27 43.8 174.83 42.14 172.59 40.2C170.05 38.01 167.84 35.47 166.05 32.64C164.92 30.86 164.08 28.98 163.65 26.9C163.34 25.41 163.03 23.93 162.94 22.41C162.92 22.11 162.94 21.8 163 21.51C163.03 21.37 163.21 21.2 163.34 21.18C163.47 21.17 163.7 21.31 163.73 21.43C163.85 21.85 163.94 22.28 163.97 22.71C164.08 24.41 164.45 26.06 164.87 27.7C165.33 29.48 166.2 31.08 167.22 32.61C169.4 35.9 172.14 38.67 175.27 41.07C177.62 42.86 180.12 44.43 182.63 46C183.8 46.75 184.95 47.52 186.09 48.32C187.02 48.97 187.86 49.73 188.43 50.73C188.63 51.07 188.91 51.21 189.28 51.22C189.59 51.22 189.89 51.26 190.19 51.25C191.38 51.21 192.37 50.49 192.7 49.33C192.88 48.67 192.92 47.97 192.98 47.59ZM94.92 18.85C94.91 18.97 94.85 19.11 94.89 19.23C95.16 20.05 95.42 20.88 95.75 21.68C96.18 22.73 96.84 23.67 97.69 24.42C97.92 24.62 98.15 24.83 98.36 25.04C100.14 26.79 102.33 27.62 104.75 28.01C106.82 28.33 108.91 28.33 110.98 28.19C112.93 28.06 114.84 27.62 116.72 27.09C116.97 27.02 117.21 26.89 117.45 26.81C118.06 26.6 118.45 26.19 118.76 25.62C120.01 23.35 120.87 20.96 121.15 18.38C121.21 17.91 121.22 17.41 121.14 16.95C120.93 15.84 120.96 14.71 120.92 13.59C120.92 13.57 120.76 13.53 120.71 13.56C119.78 14.03 118.83 14.45 117.83 14.74C116.23 15.21 114.59 15.35 112.95 15.48C110.52 15.67 108.1 15.81 105.68 16.01C104.86 16.08 104.06 16.3 103.24 16.43C102.82 16.49 102.39 16.5 101.96 16.51C101.81 16.52 101.72 16.2 101.84 16.09C102 15.95 102.15 15.78 102.35 15.71C102.88 15.53 103.41 15.33 103.97 15.25C106.03 14.95 108.1 14.75 110.19 14.66C112.48 14.56 114.79 14.44 117.03 13.91C118.48 13.56 119.85 13.01 121.03 12.08C121.68 11.56 122.28 11 122.59 10.2C122.64 10.08 122.69 9.95 122.77 9.85C123.45 9.13 123.39 8.25 123.24 7.39C123.12 6.66 122.93 5.95 122.68 5.25C122.29 4.2 121.81 3.17 121.4 2.12C121.13 1.44 120.72 1.14 119.93 1.12C117.23 1.04 114.55 1.2 111.89 1.67C108.73 2.24 105.6 2.95 102.56 4.01C101.58 4.36 100.62 4.77 99.64 5.13C99.45 5.21 99.23 5.23 99.02 5.25C98.88 5.27 98.73 4.96 98.81 4.85C98.91 4.71 99.01 4.55 99.15 4.48C99.8 4.13 100.45 3.76 101.13 3.49C103.02 2.72 104.99 2.17 106.96 1.68C107.85 1.46 108.74 1.28 109.62 1.08C109.69 1.06 109.76 1.01 109.83 0.98C109.75 0.96 109.67 0.93 109.58 0.91C109.54 0.9 109.5 0.9 109.45 0.9C106.64 1.11 103.84 1.43 101.13 2.32C99.52 2.84 97.93 3.42 96.41 4.16C95 4.86 93.66 5.66 92.47 6.68C91.65 7.38 90.77 7.87 89.68 7.98C89.34 8.02 89 8.1 88.67 8.21C87.58 8.56 87.2 9.66 87.84 10.61C88.11 11 88.45 11.36 88.8 11.67C89.41 12.23 90.05 12.75 90.69 13.27C91.7 14.1 92.64 14.99 93.38 16.09C93.59 16.41 93.87 16.71 94.18 16.93C96.48 18.58 98.86 20.08 101.53 21.07C103.26 21.71 105.05 22.02 106.86 22.23C107.77 22.34 108.68 22.4 109.59 22.44C111.42 22.54 113.23 22.37 115.04 22.1C115.59 22.02 116.15 21.99 116.72 21.96C116.8 21.96 116.96 22.08 116.98 22.18C117 22.27 116.94 22.43 116.85 22.5C116.72 22.61 116.57 22.7 116.4 22.74C115.9 22.88 115.4 23.04 114.89 23.11C113.08 23.35 111.28 23.63 109.44 23.39C109.06 23.34 108.66 23.33 108.27 23.32C104.19 23.22 100.41 22.09 96.92 19.95C96.4 19.64 95.89 19.31 95.37 19C95.23 18.92 95.05 18.91 94.89 18.87L94.92 18.85ZM91.26 33.73C90.9 33.63 90.71 33.91 90.47 34.08C89.21 34.94 87.89 35.7 86.43 36.15C85.64 36.39 84.83 36.57 84.03 36.74C83.7 36.81 83.33 36.81 82.99 36.76C81.22 36.53 79.44 36.54 77.66 36.52C76.88 36.51 76.1 36.42 75.32 36.35C75.15 36.34 74.99 36.28 74.85 36.19C74.8 36.15 74.76 36.1 74.73 36.04C74.7 35.99 74.68 35.93 74.68 35.87C74.68 35.76 74.77 35.6 74.86 35.56C75.05 35.47 75.27 35.38 75.47 35.39C77.51 35.46 79.55 35.54 81.59 35.62C81.85 35.63 82.12 35.63 82.37 35.68C83.43 35.92 84.44 35.7 85.45 35.41C86.66 35.07 87.82 34.56 88.89 33.89C90.46 32.93 91.83 31.74 93.12 30.43C93.49 30.05 93.79 29.64 93.84 29.09C94.07 26.9 94 24.75 93.18 22.67C93.04 22.32 92.92 22.25 92.6 22.42C90.74 23.38 88.88 24.32 87.05 25.31C84.65 26.61 82.32 28.05 80.07 29.62C79.72 29.86 79.34 30.08 78.95 30.27C78.88 30.31 78.69 30.24 78.62 30.17C78.56 30.09 78.54 29.9 78.59 29.82C78.7 29.64 78.84 29.46 79.01 29.33C79.72 28.76 80.42 28.17 81.17 27.66C84.36 25.54 87.71 23.72 91.13 22C91.37 21.88 91.6 21.78 91.84 21.66C92.7 21.24 92.7 21.23 92.33 20.41C91.87 19.37 91.3 18.39 90.6 17.5C90.03 16.79 89.47 16.07 88.87 15.38C88.29 14.72 87.79 14.02 87.48 13.2C87.41 13.04 87.34 12.88 87.25 12.73C87.1 12.45 86.92 12.35 86.61 12.45C85.88 12.71 85.13 12.95 84.42 13.27C82.32 14.22 80.34 15.38 78.41 16.66C76.06 18.22 73.86 20 71.84 21.97C71.44 22.37 71 22.72 70.56 23.08C70.49 23.13 70.29 23.12 70.22 23.06C70.14 22.99 70.08 22.8 70.13 22.72C70.3 22.42 70.49 22.13 70.71 21.87C71.94 20.45 73.31 19.18 74.79 18.03C77.29 16.08 79.97 14.37 82.79 12.92C83.84 12.39 84.91 11.92 86.03 11.57C86.43 11.44 86.48 11.28 86.23 10.93C85.64 10.1 84.94 9.41 83.97 9.03C83.62 8.9 83.32 8.86 82.99 9.09C81.17 10.37 79.14 11.28 77.18 12.29C74.98 13.42 72.88 14.76 70.92 16.27C70.24 16.8 69.62 17.42 69.01 18.04C67.14 19.92 65.54 22.06 64.28 24.39C63.48 25.84 63 27.44 62.87 29.1C62.78 30.22 62.27 30.96 61.34 31.49C60.96 31.71 60.59 31.93 60.21 32.15C59.72 32.45 59.32 32.84 59.07 33.37C58.65 34.23 59.06 34.96 60 35.04C60.3 35.07 60.61 35.06 60.91 35.06C64.53 35 67.96 35.89 71.31 37.17C73.22 37.89 75.01 38.86 76.81 39.84C77.26 40.09 77.74 40.31 78.21 40.52C78.83 40.78 79.48 40.83 80.12 40.6C80.98 40.3 81.85 40.03 82.68 39.66C83.64 39.24 84.55 38.74 85.48 38.26C87.54 37.2 89.31 35.73 90.99 34.14C91.1 34.03 91.16 33.86 91.24 33.71L91.26 33.73L91.26 33.73ZM184.1 155.02C184.62 155.02 185.14 155.03 185.66 155.02C188.28 154.98 190.56 154.07 192.58 152.41C193.91 151.3 195.3 150.25 196.73 149.26C198.93 147.76 201.41 147.03 204.06 146.86C206.01 146.74 207.96 146.9 209.91 147.06C212.16 147.25 214.42 147.25 216.68 147.15C217.51 147.12 218.31 146.93 219.05 146.51C219.35 146.34 219.68 146.22 219.99 146.07C221.13 145.52 222.31 145.41 223.53 145.77C223.65 145.81 223.79 145.84 223.91 145.84C223.99 145.84 224.13 145.8 224.14 145.76C224.16 145.64 224.16 145.49 224.1 145.41C223.94 145.21 223.75 145.02 223.54 144.87C223.06 144.5 222.57 144.14 222.04 143.84C221.68 143.63 221.26 143.44 220.81 143.66C219.86 143.59 218.91 143.54 217.96 143.44C215.98 143.22 214 142.96 212.02 142.73C207.96 142.27 203.94 141.64 200.05 140.33C198.44 139.79 196.92 139.04 195.45 138.2C193.02 136.82 190.43 135.85 187.74 135.11C186.41 134.75 185.06 134.77 183.73 134.97C182.36 135.18 181.03 135.58 179.78 136.22C177.96 137.17 176.46 138.44 175.49 140.27C175.1 141 174.72 141.73 174.36 142.47C173.8 143.6 173.23 144.72 172.72 145.87C172.38 146.62 172.11 147.4 171.89 148.19C171.44 149.87 172.03 151.28 173.22 152.44C173.55 152.76 174.02 152.97 174.45 153.15C175.7 153.66 176.97 154.07 178.3 154.35C180.21 154.75 182.13 155.11 184.1 155.02ZM48.48 56.32C48.57 57.99 48.61 59.3 49 60.55C49.15 61.05 49.1 61.47 48.81 61.9C48.48 62.41 48.16 62.93 47.87 63.46C47.55 64.04 47.38 64.67 47.44 65.34C47.5 66.05 47.8 66.45 48.48 66.66C49.12 66.87 49.77 66.81 50.42 66.72C51.36 66.59 52.31 66.46 53.25 66.33C54.05 66.22 54.76 65.93 55.35 65.38C55.93 64.85 56.49 64.31 57.08 63.79C57.8 63.16 58.51 62.53 59.28 61.96C61.12 60.6 63.19 59.91 65.49 60C66.45 60.04 67.4 59.98 68.34 59.8C70.06 59.48 71.57 58.8 72.57 57.26C73.85 55.27 74.71 53.1 75.32 50.82C75.34 50.75 75.3 50.66 75.28 50.58C75.19 50.61 75.06 50.62 75.02 50.69C73.69 52.96 71.64 54.4 69.38 55.58C67.65 56.49 65.94 57.42 64.31 58.51C64.13 58.62 63.94 58.73 63.74 58.82C63.53 58.92 63.25 58.86 63.17 58.7C63.04 58.47 63.12 58.26 63.28 58.11C63.61 57.82 63.93 57.52 64.3 57.3C65.45 56.6 66.62 55.93 67.78 55.27C68.2 55.03 68.65 54.85 69.05 54.6C69.9 54.08 70.78 53.58 71.57 52.98C74.3 50.94 75.49 48.1 75.66 44.76C75.68 44.36 75.59 43.99 75.4 43.64C74.99 42.87 74.52 42.14 73.87 41.54C73.27 40.98 72.62 40.47 71.98 39.96C71.86 39.86 71.67 39.85 71.51 39.8C71.48 39.97 71.44 40.14 71.43 40.31C71.42 40.43 71.44 40.57 71.44 40.7C71.49 41.99 71.14 43.18 70.5 44.3C69.84 45.44 69 46.42 68.02 47.3C66.71 48.5 65.43 49.74 64.27 51.1C62.48 53.2 61.09 55.54 59.97 58.05C59.8 58.41 59.61 58.74 59.4 59.06C59.34 59.14 59.13 59.2 59.05 59.15C58.91 59.06 58.81 58.93 58.75 58.78C58.7 58.68 58.75 58.52 58.8 58.4C59.01 57.83 59.21 57.26 59.47 56.71C60.88 53.74 62.72 51.07 65.06 48.75C66.01 47.8 66.99 46.88 67.96 45.94C68.75 45.19 69.39 44.3 69.87 43.32C70.5 42.01 70.6 40.66 70.17 39.27C70.07 38.95 69.91 38.73 69.61 38.6C68.61 38.18 67.61 37.77 66.61 37.35C66.17 37.16 65.89 37.35 65.6 37.67C62.89 40.67 60.72 44.13 59.18 47.88C58.34 49.92 57.53 51.98 56.92 54.12C56.83 54.4 56.7 54.68 56.54 54.93C56.49 55.02 56.31 55.07 56.2 55.05C56.14 55.03 56.08 55 56.04 54.96C55.99 54.92 55.95 54.86 55.93 54.81C55.87 54.64 55.86 54.47 55.88 54.3C55.95 53.92 56.04 53.53 56.16 53.16C57.36 49.48 58.75 45.88 60.73 42.54C61.53 41.19 62.44 39.91 63.43 38.7C63.84 38.2 64.26 37.7 64.68 37.2C64.83 37.02 64.8 36.88 64.59 36.82C63.38 36.46 62.15 36.23 60.9 36.06C60.37 35.98 59.97 36.18 59.64 36.58C59.15 37.18 58.64 37.77 58.16 38.39C55.9 41.33 54.41 44.63 53.47 48.2C53 50 52.61 51.83 52.18 53.64C52.1 53.98 52 54.31 51.88 54.63C51.87 54.67 51.85 54.71 51.82 54.74C51.79 54.78 51.75 54.8 51.71 54.82C51.67 54.84 51.63 54.85 51.59 54.85C51.54 54.85 51.5 54.84 51.46 54.83C51.35 54.78 51.21 54.66 51.2 54.57C51.17 54.27 51.15 53.96 51.21 53.67C51.41 52.56 51.6 51.44 51.89 50.35C52.3 48.71 52.77 47.09 53.28 45.47C54.32 42.25 56.04 39.4 58.16 36.77C58.32 36.57 58.46 36.36 58.6 36.14C58.62 36.11 58.52 35.95 58.48 35.95C57.93 35.99 57.36 36.01 56.82 36.12C56.59 36.17 56.36 36.38 56.2 36.57C55.76 37.11 55.32 37.65 54.94 38.23C53.12 40.95 51.65 43.84 50.56 46.93C49.92 48.73 49.22 50.52 48.94 52.42C48.73 53.84 48.6 55.26 48.48 56.32ZM140.02 123.91C141.3 123.78 142.79 124.02 144.22 124.6C144.51 124.72 144.75 124.67 144.9 124.42C145.88 122.87 147.28 121.66 148.42 120.23C148.84 119.7 149.44 119.3 149.97 118.86C150.35 118.55 150.82 118.39 151.3 118.41C152.32 118.44 153.14 117.99 153.89 117.36C154.18 117.11 154.43 116.79 154.71 116.52C155.67 115.59 156.76 115.09 158.13 115.56C158.54 115.7 158.97 115.77 159.39 115.89C159.62 115.96 159.76 116.21 159.69 116.39C159.66 116.49 159.59 116.58 159.51 116.65C159.42 116.72 159.32 116.76 159.21 116.77C159.08 116.78 158.95 116.75 158.82 116.72C158.44 116.64 158.06 116.55 157.69 116.46C157.11 116.32 156.53 116.35 156.07 116.73C155.27 117.39 154.51 118.1 153.74 118.8C153.72 118.82 153.75 118.95 153.79 118.98C153.9 119.05 154.02 119.11 154.14 119.16C154.75 119.39 155.36 119.61 155.96 119.85C156.19 119.93 156.36 119.93 156.55 119.76C156.87 119.48 157.22 119.21 157.57 118.96C159.11 117.92 161.03 118.22 162 119.77C162.59 120.71 163.23 121.68 163.21 122.88C163.21 123.16 163.34 123.38 163.56 123.55C163.63 123.6 163.7 123.65 163.76 123.72C164.45 124.49 165.29 124.94 166.35 125.02C166.77 125.04 167.16 125.31 167.56 125.46C167.9 125.59 168.11 125.46 168.28 125.12C168.49 124.69 168.41 124.28 168.25 123.86C167.63 122.18 166.78 120.62 165.66 119.22C165.6 119.16 165.55 119.08 165.49 119.03C164.25 117.88 163.67 116.41 163.34 114.8C163.28 114.51 163.23 114.21 163.18 113.91C162.89 112.24 162.02 110.93 160.71 109.9C159.62 109.04 158.42 108.33 157.14 107.78C154.54 106.66 151.87 105.79 149.07 105.3C147.45 105.01 145.8 104.82 144.15 104.87C143.21 104.9 142.27 105.13 141.33 105.3C140.9 105.37 140.49 105.51 140.08 105.64C137.83 106.31 135.59 106.99 133.32 107.54C132.81 107.67 132.32 107.83 131.84 108.04C131.21 108.31 130.8 108.49 131.71 109.12C132.09 109.39 132.39 109.79 132.69 110.16C132.94 110.45 133.15 110.79 133.37 111.11C134.26 112.4 135.51 112.96 137.05 112.96C137.61 112.96 138.17 112.95 138.74 112.98C140.36 113.07 141.76 113.71 143 114.73C143.26 114.94 143.47 115.23 143.63 115.53C143.72 115.7 143.68 115.95 143.66 116.16C143.64 116.33 143.26 116.46 143.13 116.35C143.02 116.28 142.93 116.19 142.85 116.08C141.95 114.84 140.63 114.32 139.21 114.03C138.62 113.92 138 113.96 137.39 113.96C135.41 113.99 133.72 113.4 132.55 111.69C132.33 111.37 132.12 111.03 131.87 110.74C131.59 110.41 131.27 110.12 130.96 109.82C130.91 109.76 130.79 109.73 130.72 109.75C130.66 109.78 130.61 109.88 130.6 109.96C130.46 111.15 130.69 112.29 131.04 113.42C131.24 114.03 131.5 114.63 131.74 115.24C131.9 115.64 132.07 116.04 132.23 116.44C132.36 116.77 132.37 117.1 132.28 117.46C131.68 119.98 133.1 121.93 134.85 122.93C135.91 123.53 137.1 123.87 138.32 123.9C138.8 123.92 139.28 123.91 140.02 123.91Z" fill="#000000" fill-opacity="1.000000" fill-rule="nonzero"/>
		<path d="M169.68 148.5C170.95 148.51 171.43 147.95 171.21 146.78C171.11 146.23 170.93 145.69 170.79 145.14C170.66 144.6 170.52 144.05 170.39 143.5C170.26 142.98 170.35 142.47 170.52 141.97C170.61 141.71 170.76 141.52 171.02 141.41C171.22 141.33 171.42 141.24 171.61 141.14C172.46 140.74 173.25 139.19 172.66 138.1C172.44 137.69 172.21 137.26 171.91 136.9C170.55 135.25 169.04 133.76 167.17 132.68C166.27 132.15 165.38 131.61 164.49 131.08C164.3 130.97 164.1 130.88 163.93 130.75C162.85 129.94 161.77 129.14 160.73 128.3C159.47 127.28 158.51 125.97 157.48 124.75C156.84 123.98 156.22 123.2 155.55 122.46C154.88 121.71 154 121.18 153.02 120.94C152.42 120.78 151.8 120.72 151.22 120.9C149.87 121.31 148.69 122.02 147.86 123.2C147.58 123.59 147.33 124 147.08 124.41C146.38 125.56 146.11 126.81 146.34 128.15C146.38 128.36 146.43 128.58 146.47 128.79C146.63 129.55 146.5 130.24 145.97 130.85C144.95 132.03 144.82 133.38 145.12 134.88C145.46 136.59 146.32 137.93 147.6 139.05C149.78 140.98 152.3 142.49 155.03 143.52C157.1 144.3 159.19 145 161.33 145.56C162.89 145.96 164.39 146.53 165.85 147.2C166.56 147.52 167.27 147.85 167.99 148.13C168.56 148.35 169.14 148.56 169.68 148.5ZM178.17 127.63C179.52 127.73 180.74 127.39 181.93 126.99C183.29 126.54 184.66 126.16 186.09 125.97C186.86 125.87 187.62 125.68 188.38 125.49C189.79 125.12 191.21 125.16 192.64 125.36C194.53 125.61 196.42 125.88 198.32 126.06C201.52 126.36 204.69 126.83 207.79 127.7C208.75 127.97 209.72 128.2 210.67 128.5C212.39 129.05 213.92 129.92 215.16 131.27C215.22 131.33 215.27 131.42 215.35 131.44C215.5 131.49 215.69 131.54 215.83 131.5C216.09 131.43 216.1 131.2 216.04 130.97C215.87 130.34 215.7 129.72 215.54 129.08C215.21 127.74 214.43 126.72 213.2 126.12C212.11 125.58 211 125.08 209.84 124.71C207.33 123.9 204.78 123.18 202.25 122.42C200.76 121.96 199.26 121.52 197.78 121.02C195.26 120.18 192.91 118.97 190.68 117.53C189.65 116.87 188.62 116.22 187.6 115.58C185.5 114.25 183.28 113.17 181.02 112.16C179.14 111.32 177.16 110.85 175.12 110.63C174.6 110.58 174.09 110.51 173.57 110.47C172.29 110.37 171.06 110.62 169.85 110.99C168.65 111.36 167.47 111.81 166.29 112.24C166.05 112.33 165.82 112.45 165.6 112.59C165.2 112.83 164.96 113.16 165.03 113.67C165.16 114.61 165.23 115.56 165.53 116.48C165.86 117.5 166.5 118.09 167.57 118.2C169.33 118.39 170.52 119.38 171.3 120.9C171.6 121.47 171.82 122.09 172.06 122.69C172.3 123.3 172.52 123.91 172.75 124.52C173.54 126.55 175.17 127.37 177.19 127.62C177.53 127.66 177.89 127.63 178.17 127.63ZM47.41 84.3L47.1 85.55C46.49 88.01 46.76 90.3 48.37 92.33C48.93 93.04 49.58 93.69 50.22 94.34C51.32 95.44 52.46 96.52 53.57 97.62C55.12 99.15 56.45 100.87 57.59 102.72C58.2 103.71 58.66 104.8 59.19 105.85C59.46 106.39 59.73 106.93 60.03 107.46C60.32 107.95 60.8 108.14 61.36 108.12C61.98 108.1 62.57 107.96 63.09 107.61C64.35 106.78 65.72 106.3 67.23 106.21C67.96 106.17 68.26 105.66 68.52 105.1C68.56 105.03 68.54 104.92 68.51 104.84C68.48 104.76 68.43 104.69 68.37 104.63C66.44 102.5 64.97 100.02 63.22 97.75C61.55 95.58 59.88 93.42 58.1 91.34C56.57 89.56 55.07 87.76 53.55 85.97C52.76 85.04 51.86 84.22 50.81 83.58C50.26 83.23 49.59 83.11 48.94 83.23C48.66 83.29 48.38 83.63 48.12 83.41C47.96 83.28 48 82.92 47.89 82.69C47.67 82.23 47.04 81.94 46.44 82.07C45.93 82.18 45.43 82.34 44.96 82.57C44.22 82.93 43.51 83.34 42.81 83.78C41.08 84.86 39.38 85.98 37.79 87.28C36.08 88.69 34.3 90.01 32.68 91.52C30.55 93.5 28.56 95.63 26.72 97.89C26.42 98.26 26.16 98.66 25.95 99.09C25.55 99.9 25.71 100.47 26.43 101.02C27.08 101.53 27.75 102.01 28.4 102.52C29.5 103.38 30.68 103.55 31.92 102.89C32.49 102.59 33.07 102.27 33.57 101.87C34.89 100.8 36.2 99.73 37.45 98.59C39.64 96.58 41.45 94.24 43.09 91.78C43.95 90.48 44.7 89.11 45.46 87.74C45.84 87.06 46.15 86.33 46.41 85.6C46.62 85.05 46.9 84.6 47.43 84.33L47.5 84.25C47.47 84.27 47.44 84.29 47.41 84.3ZM64.8 62.06C62.92 62.03 61.35 62.75 60.03 64.07C59.69 64.4 59.39 64.78 59.08 65.14C57.96 66.42 56.75 67.59 55.31 68.52C54.36 69.12 53.41 69.73 52.46 70.34C52.1 70.57 51.97 70.94 52.12 71.35C52.17 71.51 52.26 71.66 52.35 71.81C53.02 72.92 53.7 74.03 54.39 75.14C55.2 76.48 56.22 77.68 57.42 78.69C58.64 79.73 59.91 80.72 61.16 81.73C61.26 81.81 61.37 81.88 61.47 81.96C62.21 82.56 63.01 82.71 63.91 82.37C64.27 82.24 64.65 82.14 65.02 81.99C68.23 80.69 71.55 79.67 74.82 78.52C76.45 77.95 78.05 77.26 79.74 76.85C79.83 76.83 79.91 76.8 79.99 76.76C80.27 76.65 80.37 76.42 80.23 76.14C79.64 74.98 79.11 73.78 78.43 72.67C76.33 69.27 73.56 66.47 70.32 64.14C69.26 63.38 68.09 62.81 66.85 62.38C66.19 62.15 65.51 62.03 64.8 62.06ZM157.98 67.26C157.92 68.65 158.38 70.04 159.13 71.34C159.46 71.9 159.85 72.42 160.5 72.67C160.82 72.8 161.16 72.62 161.15 72.28C161.14 72.03 161.13 71.74 161.02 71.53C160.01 69.55 160.12 67.48 160.65 65.43C161.24 63.12 162.56 61.27 164.55 59.92C164.88 59.7 165.21 59.5 165.56 59.33C167.22 58.51 168.83 58.62 170.39 59.59C171.28 60.15 172.08 60.82 172.78 61.6C173.67 62.61 174.56 63.63 175.42 64.66C176.25 65.64 177.24 66.39 178.35 67.01C179.31 67.56 180.36 67.8 181.46 67.86C184.58 68.02 187.27 66.98 189.56 64.92C192.29 62.47 193.81 59.39 194.33 55.76C194.54 54.31 194.44 52.9 194.24 51.48C194.17 50.92 194.01 50.38 193.56 49.97C193.32 49.76 192.89 49.8 192.78 50.07C191.95 52.13 190.28 53.09 188.25 53.59C186.92 53.92 185.58 53.85 184.24 53.69C181.87 53.41 179.51 53.06 177.13 52.85C174.02 52.56 170.97 52.84 168.05 54.05C163.95 55.75 160.87 58.54 158.97 62.58C158.29 64.01 157.97 65.54 157.98 67.26L157.98 67.26ZM85.49 110.34C85.48 110.27 85.43 109.92 85.35 109.59C85.12 108.66 84.75 107.78 84.28 106.94C84.14 106.68 84.16 106.45 84.36 106.23C86.24 104.16 87.68 101.77 89.23 99.47C89.83 98.58 90.22 97.55 90.7 96.57C90.87 96.22 91 95.85 91.14 95.49C91.58 94.38 92.36 93.61 93.41 93.07C93.72 92.91 94.03 92.76 94.33 92.59C94.93 92.25 95.01 91.98 94.62 91.45C94.32 91.03 93.98 90.63 93.63 90.25C92.86 89.43 92.02 88.66 91.31 87.79C90.53 86.84 89.55 86.11 88.7 85.24C88.52 85.06 88.21 85.04 87.98 85.23C87.61 85.53 87.23 85.83 86.92 86.18C86 87.25 84.93 88.1 83.7 88.79C83.07 89.16 82.54 89.69 81.98 90.18C80.23 91.74 78.48 93.31 76.75 94.88C75.69 95.85 74.65 96.84 73.61 97.82C73.45 97.97 73.3 98.13 73.16 98.3C72.78 98.82 72.64 99.33 72.98 99.98C74.29 102.53 75.68 105.03 77.65 107.16C78.51 108.08 79.35 109.02 80.24 109.91C80.69 110.37 81.21 110.78 81.74 111.16C82.33 111.61 83.02 111.88 83.73 112.11C84.81 112.46 85.38 111.96 85.5 110.87C85.5 110.79 85.5 110.7 85.5 110.34L85.49 110.34ZM80.26 77.46C79.89 77.55 79.49 77.59 79.13 77.72C78.47 77.94 77.83 78.19 77.19 78.45C74.05 79.72 71.01 81.2 68.01 82.78C66.25 83.71 64.47 84.62 62.7 85.54C62.59 85.6 62.46 85.64 62.35 85.71C61.71 86.09 61.55 86.89 61.99 87.5C62.05 87.57 62.1 87.63 62.17 87.69C63.12 88.54 63.78 89.62 64.51 90.64C65.81 92.48 67.47 93.9 69.54 94.85C70.48 95.27 71.37 95.31 72.26 94.76C72.7 94.49 73.17 94.25 73.61 93.97C75.65 92.65 77.67 91.31 79.72 90C81.07 89.13 82.44 88.29 83.82 87.48C84.52 87.08 85.1 86.6 85.55 85.94C86.04 85.23 86.47 84.47 87.19 83.94C87.38 83.8 87.41 83.56 87.35 83.34C87.27 83.05 87.16 82.77 87.04 82.5C86.93 82.31 86.79 82.14 86.62 82C85.32 80.8 84.09 79.5 82.65 78.45C82.33 78.22 82 78.01 81.65 77.83C81.23 77.59 80.75 77.47 80.26 77.46Z" fill="#000000" fill-opacity="1.000000" fill-rule="nonzero"/>
		<path d="M97.31 114.97C97.23 114.57 97.17 113.96 97 113.39C96.8 112.73 96.83 112.11 97.1 111.49C97.33 110.98 97.53 110.45 97.8 109.95C99.83 106.04 101.24 101.9 102.58 97.73C102.62 97.61 102.67 97.48 102.7 97.36C102.78 96.99 102.7 96.66 102.4 96.42C101.29 95.52 100.15 94.64 98.81 94.1C98.24 93.87 97.67 93.71 97.04 93.7C96.7 93.69 96.37 93.59 96.03 93.53C95.73 93.48 95.43 93.4 95.13 93.38C94.72 93.35 94.37 93.5 94.13 93.86C94.03 94.01 93.94 94.15 93.85 94.3C91.6 97.95 89.34 101.61 87.08 105.26C86.7 105.89 86.32 106.53 85.85 107.09C85.44 107.56 85.44 108.02 85.64 108.53C85.75 108.81 85.92 109.07 86.07 109.33C87.98 112.42 90.56 114.82 93.55 116.83C94.09 117.19 94.69 117.46 95.33 117.61C96.28 117.84 96.96 117.43 97.17 116.47C97.26 116.05 97.25 115.61 97.31 114.97ZM103 125.83C103.01 125.13 102.82 124.46 102.55 123.82C102.47 123.62 102.38 123.39 102.23 123.26C101.46 122.57 100.82 121.73 99.88 121.23C98.42 120.46 96.95 119.69 95.36 119.24C92.75 118.51 90.33 117.34 87.91 116.15C85.53 114.99 83.25 113.64 81.05 112.16C79.94 111.41 78.75 110.76 77.57 110.11C76.36 109.44 75.12 108.8 73.87 108.2C73.29 107.91 72.67 107.71 72.05 107.51C71.42 107.31 70.78 107.35 70.12 107.47C69.53 107.57 69.08 107.85 68.69 108.28C67.85 109.21 67.64 110.36 67.6 111.55C67.59 112.08 67.85 112.57 68.28 112.9C68.8 113.3 69.31 113.71 69.89 114.01C72.34 115.32 74.86 116.48 77.56 117.22C79.11 117.64 80.63 118.14 82.16 118.63C85.16 119.59 87.92 121.05 90.67 122.55C91.96 123.25 93.26 123.97 94.53 124.71C95.32 125.17 96.07 125.68 96.83 126.19C97.55 126.67 98.25 127.18 98.99 127.65C99.35 127.87 99.75 128.06 100.16 128.19C101.61 128.64 102.9 127.74 103 126.22C103.01 126.1 103 125.97 103 125.83ZM119.6 116.03C119.59 117.04 119.8 118.04 120.2 118.96C120.51 119.67 120.99 120.21 121.69 120.53C122.79 121.04 123.91 121.48 125.14 121.64C127.38 121.94 129.59 122.4 131.68 123.3C132 123.44 132.33 123.55 132.67 123.63C132.82 123.66 133.01 123.63 133.17 123.59C133.35 123.54 133.51 123.2 133.43 123.05C133.33 122.86 133.21 122.68 133.08 122.5C131.96 121.02 131.26 119.37 131.09 117.5C131 116.45 130.67 115.47 130.2 114.53C129.51 113.13 129.26 111.65 129.31 110.1C129.34 109.29 129.63 108.58 130.07 107.92C130.54 107.23 131.25 106.94 132.05 106.79C132.9 106.63 133.74 106.4 134.6 106.27C135.19 106.18 135.65 105.88 136.11 105.55C136.4 105.35 136.35 104.99 136.03 104.81C135.87 104.73 135.71 104.67 135.55 104.62C134.39 104.24 133.2 103.97 131.99 103.87C130.61 103.75 129.22 103.71 127.83 103.62C127.31 103.58 126.8 103.52 126.28 103.46C125.37 103.35 124.47 103.34 123.57 103.56C122.55 103.8 121.98 104.39 121.86 105.42C121.8 105.98 121.68 106.55 121.71 107.11C121.79 108.41 121.41 109.59 120.96 110.77C120.59 111.74 120.23 112.72 119.96 113.73C119.76 114.48 119.71 115.26 119.6 116.03ZM191.85 126.02C190.31 126.04 188.82 126.3 187.34 126.65C185.15 127.16 182.96 127.69 180.76 128.18C180 128.35 179.22 128.48 178.45 128.55C176.98 128.7 175.61 128.37 174.35 127.56C173.84 127.24 173.33 126.9 172.79 126.64C172.32 126.42 171.82 126.28 171.32 126.14C171.12 126.09 170.89 126.13 170.68 126.17C170.37 126.24 170.2 126.64 170.37 126.9C170.48 127.08 170.62 127.26 170.77 127.4C171.48 128.04 172.19 128.69 172.92 129.29C173.91 130.09 175.09 130.36 176.31 130.46C177.4 130.55 178.48 130.62 179.56 130.69C181.07 130.78 182.58 130.96 184.09 131.17C185.16 131.32 186.24 131.41 187.32 131.48C189.05 131.61 190.79 131.68 192.52 131.81C194.2 131.93 195.89 132.11 197.57 132.22C199.82 132.37 202.08 132.47 204.33 132.59C206.02 132.68 207.71 132.71 209.4 132.85C210.7 132.95 211.96 133.24 213.12 133.89C213.69 134.21 214.28 134.48 214.88 134.74C214.97 134.78 215.16 134.74 215.22 134.67C215.33 134.55 215.43 134.37 215.41 134.23C215.38 134.03 215.26 133.82 215.14 133.65C214.66 132.99 214.18 132.31 213.66 131.67C212.62 130.41 211.39 129.46 209.77 129C206.68 128.13 203.57 127.33 200.39 126.89C198.46 126.62 196.51 126.47 194.57 126.27C193.66 126.18 192.75 126.1 191.85 126.02ZM51.91 120.03C51.96 120.67 52.13 121.25 52.46 121.78C53.08 122.76 53.72 123.75 54.35 124.73C54.42 124.84 54.5 124.94 54.59 125.04C55.03 125.54 55.5 125.67 56.1 125.37C56.56 125.13 57 124.85 57.41 124.53C58.09 123.99 58.73 123.4 59.41 122.86C60.42 122.05 61.46 121.26 62.48 120.46C63.03 120.04 63.58 119.61 64.12 119.18C65.31 118.25 65.94 117.02 66.17 115.54C66.36 114.34 66.61 113.15 66.86 111.97C67.08 110.89 67.09 109.81 66.98 108.73C66.94 108.3 66.72 108.08 66.27 107.94C65.76 107.78 65.41 107.85 64.96 108.14C62.9 109.49 60.79 110.79 58.71 112.11C58.34 112.34 57.99 112.59 57.65 112.87C56.37 113.97 55.09 115.08 53.83 116.2C52.83 117.1 52.16 118.19 51.98 119.54C51.95 119.71 51.93 119.88 51.91 120.03ZM105.39 124.74C105.54 125.77 105.69 126.76 106.1 127.68C106.24 127.99 106.41 128.31 106.63 128.57C107.14 129.15 107.66 129.74 108.24 130.26C109.24 131.15 110.29 131.99 111.32 132.85C113.21 134.44 115.1 136.03 117 137.62C117.5 138.04 118 138.46 118.53 138.82C118.88 139.07 119.28 139.24 119.68 139.41C120.06 139.56 120.33 139.47 120.58 139.14C120.71 138.96 120.83 138.78 120.92 138.59C121.2 137.99 121.64 137.64 122.29 137.49C122.58 137.43 122.87 137.32 123.14 137.2C123.46 137.04 123.61 136.67 123.53 136.31C123.34 135.55 123.05 134.81 122.5 134.24C121.94 133.63 121.35 133.07 120.71 132.54C120.11 132.05 119.45 131.63 118.79 131.21C118.09 130.75 117.52 130.17 117.04 129.49C116.15 128.21 115.23 126.95 114.29 125.7C113.07 124.11 111.7 122.67 110.07 121.49C109.76 121.26 109.49 120.97 109.19 120.71C108.97 120.52 108.73 120.5 108.48 120.66C107.94 121.02 107.38 121.35 106.86 121.74C105.86 122.5 105.39 123.53 105.39 124.74ZM195.5 155.87C195.94 155.79 196.46 155.72 196.96 155.62C199.17 155.17 201.37 154.69 203.61 154.42C205.29 154.22 206.94 153.88 208.61 153.61C209.6 153.46 210.58 153.3 211.57 153.22C214.41 152.98 217.11 152.22 219.74 151.19C220.63 150.85 221.49 150.44 222.38 150.09C223.19 149.76 223.32 149 223.47 148.3C223.58 147.81 223.23 147.41 222.84 147.1C222.77 147.04 222.69 147.01 222.61 147C222.52 146.99 222.43 147.01 222.36 147.06C222.13 147.18 221.91 147.32 221.67 147.43C219.64 148.43 217.49 148.8 215.24 148.63C214.46 148.56 213.68 148.52 212.9 148.5C211.56 148.48 210.21 148.51 208.87 148.49C208.26 148.48 207.66 148.4 207.06 148.35C206.89 148.34 206.71 148.32 206.54 148.33C205.42 148.37 204.29 148.45 203.16 148.46C200.58 148.48 198.33 149.35 196.34 150.95C195.39 151.72 194.45 152.48 193.52 153.27C193.26 153.49 193.02 153.74 192.81 154.02C192.54 154.39 192.62 154.88 192.97 155.19C193.33 155.52 193.78 155.7 194.25 155.77C194.64 155.83 195.03 155.83 195.5 155.87ZM99.04 112.53C99 113.14 99.16 113.67 99.48 114.15C100.37 115.5 101.34 116.78 102.51 117.89C102.94 118.29 103.49 118.59 104.02 118.89C104.33 119.06 104.78 118.8 104.8 118.44C104.81 118.1 104.79 117.75 104.74 117.41C104.66 116.85 104.54 116.3 104.45 115.75C104.18 114.2 104.32 112.7 105.12 111.34C106.18 109.54 106.99 107.62 107.88 105.74C108.62 104.17 109.22 102.54 109.88 100.94C109.93 100.82 109.97 100.69 110 100.57C110.21 99.75 110.13 99.05 109.39 98.48C108.47 97.76 107.61 96.96 106.71 96.21C106.48 96.02 106.22 95.86 105.94 95.73C105.18 95.39 104.61 95.55 104.12 96.22C103.79 96.69 103.6 97.21 103.46 97.77C103.15 99.07 102.82 100.38 102.47 101.67C102.36 102.09 102.19 102.49 102.04 102.9C101.55 104.29 101.06 105.68 100.57 107.07C100.18 108.22 99.79 109.37 99.41 110.52C99.2 111.18 98.98 111.84 99.04 112.53ZM152.85 151.13C153.17 151.05 153.51 151 153.83 150.88C154.45 150.63 154.62 149.89 154.21 149.37C154.04 149.16 153.85 148.99 153.63 148.85C153.15 148.55 152.66 148.27 152.16 148.01C148.4 146.03 144.47 144.42 140.45 143.02C139.35 142.64 138.25 142.23 137.16 141.82C135.33 141.14 133.43 140.68 131.54 140.21C130.83 140.03 130.1 139.96 129.38 139.85C128.17 139.66 127 139.39 125.95 138.74C125.11 138.22 124.23 137.91 123.23 138.04C122.94 138.07 122.63 138.14 122.36 138.25C121.57 138.56 121.37 138.9 121.43 139.75C121.45 140.02 121.53 140.26 121.74 140.44C122.13 140.78 122.51 141.14 122.92 141.45C125.29 143.23 127.91 144.4 130.88 144.74C131.05 144.75 131.22 144.76 131.4 144.77C135.8 144.94 139.94 146.13 143.9 147.99C146.42 149.17 148.96 150.24 151.67 150.91C152.05 151 152.43 151.05 152.85 151.13ZM110.33 120.28C110.63 120.72 110.9 121.21 111.27 121.64C111.6 122.03 112.01 122.37 112.42 122.68C113.73 123.64 114.78 124.85 115.8 126.09C116.43 126.86 117.06 127.64 117.72 128.39C118.65 129.45 119.8 130.21 121.11 130.74C121.95 131.08 122.8 131.42 123.66 131.71C125.8 132.41 127.93 133.16 129.78 134.51C130.05 134.71 130.32 134.63 130.38 134.33C130.51 133.56 130.9 132.97 131.46 132.45C131.68 132.26 131.83 131.97 131.97 131.71C132.17 131.35 132.17 130.99 132.01 130.59C131.7 129.8 131.25 129.16 130.5 128.71C128.23 127.36 125.91 126.08 123.54 124.9C121.88 124.07 120.19 123.27 118.52 122.44C116.54 121.46 114.48 120.65 112.31 120.18C111.73 120.05 111.11 120.08 110.51 120.05C110.47 120.05 110.42 120.16 110.33 120.28ZM49.61 73.23C49.76 75.51 50.3 77.45 51.3 79.27C52.21 80.92 53.3 82.43 54.47 83.88C55.59 85.27 56.8 86.58 57.89 87.99C61.14 92.17 64.37 96.37 67.58 100.58C68.77 102.14 70.01 103.64 71.42 105C71.73 105.3 72.02 105.63 72.33 105.93C72.45 106.05 72.61 106.14 72.76 106.21C72.98 106.32 73.33 106.07 73.3 105.82C73.26 105.61 73.2 105.4 73.13 105.2C72.84 104.38 72.53 103.57 72.25 102.75C71.75 101.26 70.95 99.92 70.21 98.54C69.92 98.01 69.6 97.49 69.32 96.95C69.02 96.37 68.59 95.87 68.07 95.48C67.47 95.04 66.9 94.58 66.28 94.17C65.33 93.55 64.48 92.82 63.66 92.04C61.75 90.21 60.72 87.98 60.57 85.35C60.53 84.74 60.33 84.26 59.88 83.87C59.45 83.5 59.03 83.13 58.57 82.8C57.54 82.05 56.67 81.16 55.88 80.17C54.16 78.04 52.47 75.89 50.99 73.58C50.8 73.29 50.56 73.04 50.32 72.79C50.12 72.58 49.78 72.68 49.69 72.95C49.65 73.04 49.63 73.13 49.61 73.23Z" fill="#000000" fill-opacity="1.000000" fill-rule="nonzero"/>
		<path d="M112 113.48C112.34 115.06 112.73 116.57 113.27 118.03C113.35 118.26 113.56 118.47 113.75 118.64C115.6 120.29 117.78 121.54 120.14 122.31C120.3 122.37 120.48 122.38 120.65 122.35C120.8 122.32 120.99 122.22 121.05 122.09C121.1 121.98 121.03 121.75 120.93 121.66C120.72 121.44 120.45 121.29 120.21 121.1C119.5 120.49 119.02 119.73 118.85 118.8C118.78 118.41 118.68 118.04 118.56 117.67C117.91 115.72 117.93 113.81 118.93 111.99C119.75 110.5 120.01 108.89 120.18 107.24C120.22 106.81 120.28 106.38 120.37 105.96C120.47 105.35 120.76 104.8 121.18 104.36C121.7 103.82 121.66 103.58 121.11 103.08C120.98 102.97 120.85 102.85 120.7 102.76C119.71 102.14 118.72 101.51 117.71 100.91C117.18 100.61 116.79 100.69 116.49 101.22C116.12 101.85 115.8 102.52 115.55 103.21C115.27 103.99 115.05 104.78 114.88 105.59C114.51 107.4 113.78 109.06 112.97 110.7C112.73 111.16 112.5 111.63 112.33 112.12C112.18 112.57 112.11 113.04 112 113.48ZM23.25 94.22C25.27 94.18 27.13 93.7 28.75 92.46C29.47 91.91 30.19 91.34 30.89 90.76C33.04 89 35.16 87.2 37.31 85.45C39.01 84.07 40.85 82.92 42.87 82.1C43.39 81.88 43.94 81.74 44.47 81.55C44.77 81.43 44.8 81.01 44.54 80.8C44.26 80.58 43.94 80.44 43.57 80.53C42.82 80.71 42.05 80.87 41.31 81.12C37.68 82.31 34.16 83.79 30.66 85.31C27.95 86.49 25.22 87.6 22.51 88.76C21.83 89.05 21.16 89.37 20.54 89.76C19.45 90.46 19.22 91.08 19.56 92.31C19.83 93.25 20.37 93.93 21.45 94.02C22.05 94.08 22.65 94.16 23.25 94.22ZM135.69 138.59C136.77 138.62 137.85 138.61 138.91 138.31C140.19 137.96 141.16 137.19 141.93 136.17C142.88 134.94 142.8 132.96 141.81 131.67C140.44 129.89 138.75 128.63 136.45 128.31C135.46 128.17 134.49 127.93 133.49 128.08C133.36 128.11 133.23 128.11 133.1 128.14C132.5 128.34 132.24 128.72 132.55 129.33C132.63 129.48 132.7 129.64 132.78 129.8C133.22 130.62 133.2 131.43 132.83 132.29C132.15 133.88 132.17 133.89 130.82 135.43C130.34 135.98 130.37 136.95 130.91 137.42C131.71 138.13 132.65 138.56 133.74 138.59C134.39 138.6 135.04 138.59 135.69 138.59Z" fill="#000000" fill-opacity="1.000000" fill-rule="nonzero"/>
		<path d="M111.38 117.83C111.25 117.14 111.09 116.42 110.99 115.69C110.87 114.92 110.79 114.15 110.75 113.37C110.71 112.26 111.06 111.24 111.67 110.31C112.15 109.58 112.65 108.86 113.03 108.09C113.62 106.89 114.21 105.67 114.64 104.41C115.03 103.3 115 102.1 114.99 100.93C114.99 100.7 114.84 100.47 114.62 100.46C114.06 100.44 113.66 100.09 113.21 99.84C112.98 99.72 112.75 99.58 112.51 99.5C111.75 99.24 111.27 99.42 110.86 100.1C110 101.52 109.47 103.08 108.96 104.65C108.64 105.64 108.26 106.61 107.93 107.59C107.54 108.78 107.18 109.99 106.8 111.18C106.56 111.92 106.3 112.66 106.07 113.41C105.74 114.46 106 115.38 106.74 116.16C107.48 116.95 108.25 117.72 109.04 118.46C109.38 118.78 109.81 119.02 110.23 119.23C110.73 119.47 111.18 119.2 111.3 118.64C111.35 118.39 111.35 118.13 111.38 117.83ZM45.32 137.98C45.26 137.67 45.2 137.29 45.11 136.91C44.67 135.22 44.06 133.61 43.17 132.1C41.17 128.74 39.37 125.27 37.77 121.71C37.4 120.88 36.94 120.09 36.52 119.28C36 118.28 35.02 117.98 34.05 117.77C33.28 117.6 32.52 118.53 32.65 119.41C32.72 119.88 32.88 120.34 33.08 120.77C33.43 121.52 33.8 122.26 34.24 122.95C35.72 125.31 36.93 127.81 38.05 130.36C38.83 132.15 39.74 133.87 40.92 135.45C41.86 136.72 43.08 137.7 44.23 138.75C44.42 138.93 44.66 139.06 44.94 138.95C45.18 138.86 45.33 138.56 45.32 138.19L45.32 137.98ZM9.64 113.67C9.66 114.35 10.11 114.68 10.63 114.5C11.21 114.3 11.7 113.93 12.15 113.52C13.4 112.36 14.51 111.09 15.44 109.66C17.16 107.02 18.34 104.14 19.25 101.14C19.38 100.73 19.42 100.29 19.53 99.87C19.7 99.2 19.82 98.5 20.11 97.88C20.51 97.02 20.42 96.29 19.84 95.58C19.73 95.45 19.65 95.29 19.52 95.18C19.26 94.95 19 94.6 18.71 94.58C18.29 94.55 17.97 94.96 17.67 95.25C17.5 95.43 17.4 95.69 17.28 95.92C15.6 99.21 14.07 102.56 12.92 106.08C12.66 106.85 12.27 107.59 11.95 108.35C11.78 108.74 11.63 109.15 11.45 109.54C11.35 109.77 11.23 110 11.09 110.21C10.47 111.12 10.1 112.14 9.73 113.16C9.66 113.36 9.66 113.58 9.64 113.67ZM50.26 123.66C50.37 126.29 50.77 128.72 51.7 131.04C52.05 131.92 52.5 132.78 52.99 133.59C53.57 134.55 54.06 135.58 54.43 136.64C55.44 139.55 56.21 142.53 57.05 145.49C57.13 145.78 57.23 146.07 57.37 146.33C57.53 146.6 57.98 146.6 58.14 146.32C58.26 146.1 58.36 145.85 58.4 145.6C58.55 144.61 58.51 143.6 58.35 142.62C57.88 139.66 57.4 136.71 56.85 133.77C56.49 131.85 55.92 129.98 54.85 128.31C54.47 127.73 54.22 127.07 54.09 126.39C53.81 125 53.11 123.8 52.44 122.59C52.25 122.26 51.96 121.97 51.67 121.72C51.13 121.24 50.35 121.58 50.32 122.25C50.31 122.77 50.28 123.29 50.26 123.66ZM31.9 117.24C32.19 117.19 32.5 117.16 32.79 117.09C33.42 116.93 34.04 116.76 34.66 116.58C34.83 116.53 34.99 116.47 35.15 116.4C35.58 116.2 35.79 115.8 35.65 115.33C35.57 115.04 35.45 114.76 35.3 114.5C33.95 112.32 32.94 109.97 31.81 107.67C30.6 105.21 28.73 103.29 26.56 101.65C26.04 101.25 25.47 101.13 24.87 101.47C24.62 101.61 24.48 101.84 24.53 102.12C24.58 102.41 24.68 102.7 24.77 102.99C25.28 104.47 26.01 105.85 26.74 107.23C27.07 107.84 27.41 108.44 27.73 109.05C28.53 110.56 29.06 112.15 29.21 113.86C29.25 114.34 29.37 114.8 29.5 115.26C29.57 115.55 29.71 115.83 29.86 116.09C30.31 116.86 30.95 117.32 31.9 117.24ZM162.13 81.48C162.15 81.15 162.17 80.94 162.18 80.72C162.18 80.47 162.01 80.33 161.79 80.26C161.55 80.18 161.23 80.36 161.19 80.62C160.98 82.06 160.34 83.35 159.9 84.71C159.45 86.11 159.06 87.53 159 89.02C158.97 89.91 159.07 90.76 159.56 91.53C159.65 91.67 159.73 91.83 159.84 91.96C161.08 93.51 162.46 93.55 163.88 92.32C164.79 91.52 165.11 90.46 164.94 89.25C164.82 88.48 164.58 87.73 164.23 87.03C163.77 86.1 163.29 85.17 162.82 84.24C162.36 83.34 162.09 82.39 162.13 81.48ZM159.12 119.45C159.01 119.46 158.79 119.47 158.58 119.53C158.24 119.61 157.94 119.8 157.73 120.08C157.52 120.36 157.41 120.71 157.43 121.06C157.44 121.36 157.47 121.67 157.57 121.95C158.16 123.62 159.02 125.11 160.4 126.25C161.14 126.85 161.92 127.39 162.71 127.93C163.36 128.38 164.1 128.64 164.87 128.82C165.03 128.86 165.21 128.86 165.38 128.85C165.74 128.82 165.98 128.34 165.76 128.06C165.55 127.79 165.29 127.55 165.04 127.32C164.56 126.88 164.06 126.46 163.59 126.01C163.08 125.51 162.76 124.92 162.69 124.18C162.62 123.5 162.5 122.81 162.38 122.13C162.08 120.41 160.93 119.44 159.12 119.45ZM2.77 119.53C2.94 119.49 3.32 119.41 3.69 119.31C5.71 118.78 7.21 117.53 8.4 115.86C8.52 115.68 8.62 115.48 8.7 115.29C8.88 114.88 8.58 114.64 8.35 114.39C8.18 114.2 7.92 114.21 7.64 114.38C7.42 114.52 7.22 114.68 7 114.82C5.81 115.6 4.61 116.38 3.41 117.16C3.05 117.4 2.68 117.63 2.34 117.89C2.13 118.05 1.95 118.23 1.79 118.43C1.62 118.64 1.51 118.88 1.66 119.15C1.79 119.4 2.01 119.52 2.29 119.53C2.38 119.53 2.46 119.53 2.77 119.53ZM91.52 33.48C91.34 33.46 91.23 33.52 91.26 33.73L91.24 33.71C91.42 33.71 91.51 33.63 91.5 33.45L91.52 33.48ZM91.5 33.45C91.67 33.44 91.75 33.36 91.75 33.19L91.78 33.22C91.62 33.23 91.52 33.3 91.53 33.48L91.5 33.45Z" fill="#000000" fill-opacity="1.000000" fill-rule="nonzero"/>
		<path d="M91.75 33.19L92 32.93L92.03 32.95L91.78 33.22L91.75 33.19ZM92 32.93L92.08 32.89L92.03 32.95L92 32.93ZM94.89 18.87L94.78 18.75C94.79 18.78 94.79 18.82 94.81 18.83C94.84 18.85 94.88 18.84 94.91 18.85L94.89 18.87Z" fill="#000000" fill-opacity="1.000000" fill-rule="nonzero"/>
	</g>
</svg>
